<svg xmlns="http://www.w3.org/2000/svg" xmlns:xlink="http://www.w3.org/1999/xlink" viewBox="0 0 1920 1080"><defs><style>.cls-1{opacity:0.91;fill:url(#radial-gradient);}.cls-2{fill:#f09638;}.cls-3{fill:#cca087;}.cls-4{fill:#231f20;}.cls-5{fill:#c3957e;}.cls-6{fill:#fff;}.cls-7{fill:#a87c4f;}.cls-8{fill:#6d6e70;}.cls-9{opacity:0.48;}.cls-10{opacity:0.8;isolation:isolate;}.cls-11{fill:#a1b8c7;}.cls-12{fill:#fdb73e;}.cls-13{fill:#d8d2b8;}.cls-14{fill:#fee0af;}.cls-15{fill:#ff0037;}.cls-16{fill:#ffdd67;}.cls-17{fill:#eba352;}.cls-18{fill:#75d6ff;}.cls-19{fill:#333;}.cls-20{fill:#94989b;}.cls-21{fill:#f2b200;}.cls-22{fill:#89664c;}.cls-23{fill:#b0bdc6;}.cls-24{fill:#e1ebef;}.cls-25{fill:#7d8b91;}.cls-26{fill:#d9e3e8;}.cls-27{fill:#4a4e51;}.cls-28{fill:#e7a74f;}.cls-29{fill:#ba8443;}.cls-30{fill:#826046;}.cls-31{fill:#68472c;}.cls-32{fill:#ef4d3c;}.cls-33{fill:#d33b23;}.cls-34{fill:#ffe62e;}.cls-35{fill:#8cc63e;}.cls-36{fill:#ffc17a;}.cls-37{fill:#e76c4f;}</style><radialGradient id="radial-gradient" cx="957.2" cy="636.72" r="1007.98" gradientUnits="userSpaceOnUse"><stop offset="0" stop-color="#fff"/><stop offset="1" stop-color="#353b44"/></radialGradient></defs><title>end_site1.ai</title><g id="Layer_7" data-name="Layer 7"><rect class="cls-1" x="-49.21" y="-84.11" width="2012.82" height="1256.34"/><g id="Storms_bitemoji" data-name="Storms bitemoji"><path class="cls-2" d="M1091.86,565.44l-.31-1.6c-3.5-13.16-10-20.94-19.3-23.13a21.24,21.24,0,0,0-7.13-.44c.42-6.88.51-11.61.43-14.95a17.41,17.41,0,0,0,6.48-14.76c-.17-2.59-.31-5.18-.45-7.77-.19-3.62-.39-7.37-.68-11.11a219.15,219.15,0,0,0-5.82-37.41c-1.95-7.74-4.95-17.8-10.9-27-5.72-8.85-12.63-14.1-21.14-16a4.55,4.55,0,0,1-1.5-.8,102.36,102.36,0,0,0-49.06-17.53,129.25,129.25,0,0,0-25.94.13c-6.87-6.33-14.68-9-23.26-8.05l-1.26.14c-1.26.13-2.69.27-4.19.55-12.51,2.25-17.14,9.73-18.81,15.69-2.52.62-5.11,1.27-7.71,2-20,5.76-35.34,13-48.38,22.89a80.5,80.5,0,0,0-22.23,25.11,16.23,16.23,0,0,0-2,5.07c-.78,4.28-1.41,7.89-2,11.59-.62,4.23-1.13,8.48-1.62,12.6v.12c-1.18,9.91-2.35,23-.91,36.56a46.92,46.92,0,0,0,4.81,17.21,23.49,23.49,0,0,0,10.11,10.2c.62,3.75,1.58,9.47,2.65,15.47a21.15,21.15,0,0,0-7,1.56c-8.84,3.64-14,12.35-15.37,25.9l-.09.82,0,.81a136.39,136.39,0,0,0,2.69,21.27c3.15,15,8.39,24.84,16,30.06,2.86,4.6,8.4,11.52,16.9,13.94a22.19,22.19,0,0,0,5.09.84c4.35,19.38,7.48,25.3,10.67,28.26,5,7.15,23,29.65,54.89,37.93,4.78,3.62,15.2,10.11,28.34,10.11a39,39,0,0,0,7.7-.76c16.42,3.4,32.4-7.85,38.17-12.53a273.89,273.89,0,0,0,28.71-18.09c18.69-13.64,32.73-25.12,33.39-36.08.31-2.49-3.37-13.35-2-26.67a22.21,22.21,0,0,0,7.23-2c8-3.75,12.38-11.46,14.47-16.46,6.65-6.36,10.26-17,11-32.22A137.44,137.44,0,0,0,1091.86,565.44Z"/><path class="cls-3" d="M850.36,538.42s7,44.75,9.8,46.94c0,0,11.93,85.88,19.44,89.95,0,0,17.32,27.46,51.5,35.23,0,0,14.12,13,30.73,8,0,0,12.79,5.49,31.27-10.14,0,0,51.38-27.58,51.88-45.2,0,0,10.36-82.54,5-88.39,0,0,5.55-48.6,3.08-54.2l-49.86-66.5-56.68-14.57-41.54,9.76L867.53,480Z"/><path class="cls-4" d="M954,721.67c-12.21,0-21.72-7.5-23.81-9.29-32.39-7.58-49.59-32-52-35.59-1.87-1.29-5.75-6.54-13.08-47.63-3.52-19.75-6.32-39.31-6.83-42.93-1-1.46-2.56-6-6-24.8-2.09-11.36-3.86-22.59-3.88-22.7l-.07-.44.13-.44,17.34-59L904,447.44l42.47-10,57.83,14.87,50.43,67.24.09.21c2.49,5.64-1.73,44.73-2.83,54.47,1.26,2.25,2.79,9.94-.54,47.11-1.83,20.43-4.31,40.45-4.5,42-.68,18-46.59,43.39-52.75,46.71-16.87,14.17-29.36,11.55-32.46,10.57A29.27,29.27,0,0,1,954,721.67ZM861.54,583.9l.49.39.11.8c5.72,41.17,14.18,85.52,18.43,88.47l.46.25.26.43c.17.27,17.32,26.86,50.25,34.35l.52.12.39.36c.13.12,13.52,12.12,28.81,7.53l.69-.21.67.29c.47.19,12,4.69,29.19-9.82l.35-.24c14-7.52,50.44-30,50.82-43.49v-.2c5-39.55,8.37-82.83,5.46-86.81l-.62-.67.13-.89c2.24-19.65,4.71-48.75,3.3-53L1002,455.85l-55.52-14.27-40.61,9.55-36.58,30L852.4,538.55C855.62,558.94,859.87,581.21,861.54,583.9Zm0,.08h0Z"/><path class="cls-5" d="M867.92,641.12c-12.79,8.41-21-9.28-21-9.28-14.2-6.09-15.52-43-15.52-43,2.94-29.2,24.73-11.25,24.73-11.25Z"/><path class="cls-4" d="M861.1,645.39a12.57,12.57,0,0,1-3.37-.47c-6.79-1.94-11.08-9.26-12.27-11.56-6.18-3.09-10.74-11.46-13.57-24.89a127.2,127.2,0,0,1-2.48-19.56v-.14l0-.13c1-9.6,4.07-15.54,9.23-17.67,8.31-3.42,18.34,4.72,18.77,5.07l.56.47,12.15,65.55-1.11.74A14.35,14.35,0,0,1,861.1,645.39ZM833.41,588.9c.38,10,3.67,36.54,14.31,41.11l.71.3.32.69c0,.08,3.94,8.33,10.08,10.07a8.84,8.84,0,0,0,6.87-1L854.32,578.7c-2-1.47-9-6.17-14.15-4C836.5,576.19,834.23,581,833.41,588.9Z"/><path class="cls-5" d="M1052.28,624.36c14,6.27,19.24-12.5,19.24-12.5,13-8.28,8.48-44.93,8.48-44.93-7.55-28.35-26.21-7.17-26.21-7.17Z"/><path class="cls-4" d="M1057.75,627.65a15.4,15.4,0,0,1-6.29-1.46l-1.22-.55,1.57-66.65.48-.55c.36-.41,9-10,17.72-8,5.43,1.28,9.44,6.65,11.92,16l.06.26a129.72,129.72,0,0,1,.66,19.71c-.66,13.71-3.83,22.7-9.43,26.74-.82,2.45-3.88,10.36-10.28,13.35A12,12,0,0,1,1057.75,627.65Zm-3.44-4.63a8.84,8.84,0,0,0,6.94-.16c5.81-2.72,8.32-11.45,8.34-11.54l.21-.74.65-.41c9.78-6.21,8.8-32.9,7.58-42.86-2.07-7.69-5.07-12-8.93-13-5.47-1.28-11.59,4.45-13.33,6.23Z"/><path class="cls-6" d="M1031.18,575.18c-36-11.4-55.62,6.42-55.62,6.42s-2.34,4.42,3.75,7.38c0,0,28.52,16.62,49.34-6.15C1028.65,582.83,1035.4,576.52,1031.18,575.18Z"/><path class="cls-4" d="M1002,595.78a51.48,51.48,0,0,1-23.14-5.93,7.93,7.93,0,0,1-4.41-4.47,5.81,5.81,0,0,1,.27-4.25l.09-.15.13-.12c.19-.18,20.42-18.07,56.59-6.63h0a2.69,2.69,0,0,1,2,2c.62,2.71-3.36,6.59-4.17,7.35A35.9,35.9,0,0,1,1002,595.78Zm-25.57-13.57a3.76,3.76,0,0,0-.07,2.57,6.15,6.15,0,0,0,3.44,3.3c.34.2,28.15,16,48.16-5.93,1.66-1.56,3.91-4.32,3.64-5.5,0-.09-.07-.33-.67-.52h0C997.4,565.55,978.23,580.65,976.38,582.21Z"/><path class="cls-7" d="M989.53,574.23l22.9-2.7s1.83,12.9-9,14C1003.39,585.54,990.74,587.66,989.53,574.23Z"/><path class="cls-4" d="M1001.53,586.67a13.6,13.6,0,0,1-8.27-2.58c-2.75-2.12-4.34-5.41-4.73-9.77l-.09-1,24.85-2.93.13,1c0,.28.93,6.87-2.56,11.33a10.26,10.26,0,0,1-7.37,3.82A13.14,13.14,0,0,1,1001.53,586.67Zm-10.9-11.57a10.86,10.86,0,0,0,3.84,7.4c3.68,2.85,8.71,2.06,8.76,2.06a8.44,8.44,0,0,0,6.06-3.07c2.25-2.87,2.33-7,2.24-8.85Z"/><path class="cls-4" d="M979.06,547.92c1.71-2.24,7-2.38,9.52-3.21a29.06,29.06,0,0,1,12.38-1.63c7.52.59,17.84.75,24.16,5.33,2.61,1.89,5.11-2.45,2.52-4.32-4.16-3-9.21-3.74-14.19-4.53a113.86,113.86,0,0,0-16.15-1.71c-4.93-.07-9,2-13.7,3-3.66.81-6.5,1.41-8.85,4.5-2,2.56,2.39,5.06,4.31,2.53Z"/><path class="cls-4" d="M980.56,542.36c-1,1.39,1.58.29,1.69.26,1.29-.38,2.49-1.09,3.8-1.47a28.71,28.71,0,0,1,8-1.08c5.88,0,11.64,1.34,17.33,2.66,3.13.73,4.46-4.09,1.32-4.82-11.18-2.6-26-5.82-35.9,2.23-2.48,2-4,5.42-1.08,7.82,3.47,2.86,7.09-.27,9.18-3.08,1.92-2.58-2.42-5.08-4.32-2.52Z"/><path class="cls-4" d="M1001.71,579.13c3.21,0,3.22-5,0-5s-3.23,5,0,5Z"/><path class="cls-6" d="M883.73,590c33.52-17.47,55.89-3.31,55.89-3.31s3.07,3.94-2.41,7.92c0,0-25.22,21.3-49.67,2.48C887.54,597.11,879.8,592.07,883.73,590Z"/><path class="cls-4" d="M909.38,605.83a36.11,36.11,0,0,1-22.45-7.92c-.85-.56-5.44-3.7-5.31-6.47a2.67,2.67,0,0,1,1.65-2.3l.46.88-.46-.88c17.55-9.15,32-9.57,41.11-8.32,9.89,1.37,15.54,4.89,15.78,5l.14.1.11.13a5.82,5.82,0,0,1,1,4.14c-.27,1.91-1.49,3.66-3.63,5.21C937.65,595.56,925.24,605.83,909.38,605.83Zm7.16-23.48c-8.79,0-19.79,2-32.35,8.56-.56.29-.57.53-.57.63-.06,1.2,2.63,3.54,4.47,4.74,23.6,18.16,48.22-2.21,48.47-2.42,1.72-1.25,2.67-2.54,2.87-3.88a3.84,3.84,0,0,0-.51-2.53C937.66,586.73,929.51,582.35,916.54,582.35Z"/><path class="cls-7" d="M924.59,581.87l-23,1.31s.43,13,11.33,12.23C912.89,595.41,925.72,595.31,924.59,581.87Z"/><path class="cls-4" d="M911.92,596.45a10,10,0,0,1-6.88-2.52c-4.2-3.79-4.47-10.44-4.48-10.72l0-1,25-1.42.08,1c.37,4.37-.62,7.89-3,10.45-3.73,4.09-9.48,4.18-9.72,4.18S912.24,596.45,911.92,596.45Zm-9.27-12.33c.23,1.85,1,5.9,3.74,8.33a8.38,8.38,0,0,0,6.43,2c.11,0,5.2-.11,8.33-3.55a10.86,10.86,0,0,0,2.5-8Z"/><path class="cls-4" d="M934,550.76c-3.06-2.73-6.22-2.55-10.12-2.78-5.51-.32-9.78-1.42-15.28-.13-8.65,2-20.57,4.37-26.94,11.08-2.21,2.34,1.32,5.88,3.54,3.54,5-5.27,14.4-7.05,21.18-8.88,4.34-1.18,8.21-1.84,12.74-1.17,3.17.47,8.93-.27,11.34,1.88s5.95-1.39,3.54-3.54Z"/><path class="cls-4" d="M924.22,552.31c2.56,2.42,6.79,4.63,9.59,1.15,2.56-3.18-.34-6.33-3.26-7.68-11.62-5.34-24.38-.21-35.25,4.43-2.95,1.26-.41,5.57,2.52,4.32,4.86-2.07,9.81-4.19,15-5.25a30.88,30.88,0,0,1,8-.7,25.07,25.07,0,0,1,4.49.66c1.08.28,5.68,2.62,2.41-.46-2.33-2.22-5.87,1.31-3.53,3.53Z"/><path class="cls-4" d="M913,588.85c3.22,0,3.22-5,0-5s-3.22,5,0,5Z"/><path class="cls-4" d="M938.22,625.85c-2.46,3.1-5.15,8.85-.39,11.45,1.16.63,2.38.49,3.64.64,3.2.4,5.38,1.58,8.13,3a15.29,15.29,0,0,0,16.47-1.41,12.36,12.36,0,0,1,7.49-3.15,9,9,0,0,0,2.75-.49c4.87-2,5.08-7.76,1.67-11.11-.58-.57-1.46.32-.89.88q3.74,3.38.54,7.91a6.22,6.22,0,0,1-5.73,1.34c-2.57.55-1-.54-3.29.66a14.34,14.34,0,0,0-2.34,2.13,14.39,14.39,0,0,1-8.64,3.75c-5,.34-7.87-2.68-12.23-4.15-1.32-.44-1.95-.25-3.22-.58q-3.37.33-5.59-2.93a8.61,8.61,0,0,1,2.52-7c.49-.63-.38-1.52-.89-.89Z"/><path class="cls-4" d="M966.55,576.66c2.68,5.07,5.53,10.41,5.7,16.28.14,4.75-1.78,9.22-1.59,14,0,.8,1.29.8,1.25,0-.21-5.4,2.07-10.48,1.44-15.89s-3.23-10.3-5.72-15c-.38-.71-1.46-.08-1.08.63Z"/><path class="cls-4" d="M843,582a29,29,0,0,1,9.33,7.07c2.09,2.41,4,4.85,6.77,6.42a.63.63,0,0,0,.63-1.08c-3.33-1.85-5.25-5-7.85-7.69a29.59,29.59,0,0,0-8.25-5.8c-.72-.35-1.35.73-.63,1.08Z"/><path class="cls-4" d="M854.44,623.36a13.3,13.3,0,0,0,12,10.1c.8.06.8-1.19,0-1.25A12.05,12.05,0,0,1,855.64,623a.62.62,0,0,0-1.2.33Z"/><path class="cls-4" d="M851,611.43a36.74,36.74,0,0,1,1.25-22.14c.28-.76-.93-1.09-1.2-.34a37.92,37.92,0,0,0-1.26,22.81.63.63,0,0,0,1.21-.33Z"/><path class="cls-4" d="M1065.45,564.88a12.68,12.68,0,0,0-12.75,14.06c.08.79,1.33.8,1.25,0a11.46,11.46,0,0,1,11.5-12.81.63.63,0,0,0,0-1.25Z"/><path class="cls-4" d="M1053.84,573.06a19.7,19.7,0,0,1,8.25,16.55.63.63,0,0,0,1.25,0,21,21,0,0,0-8.87-17.63c-.65-.47-1.27.61-.63,1.08Z"/><path class="cls-4" d="M1052.58,614.16a16.09,16.09,0,0,0,9.31-10.78.63.63,0,0,0-1.21-.33,14.9,14.9,0,0,1-8.73,10c-.74.31-.1,1.39.63,1.08Z"/><path class="cls-4" d="M928.22,675.29c8.26-5,17.8-4.81,27.1-4,10.15.88,20.29,2,30.43,3,1.6.16,1.59-2.34,0-2.5-11.2-1.11-22.42-2.54-33.65-3.26-8.74-.56-17.48,0-25.14,4.6a1.25,1.25,0,0,0,1.26,2.16Z"/><path class="cls-4" d="M935,684.27a57.79,57.79,0,0,0,29,1.84c1.58-.3.91-2.71-.67-2.42a54.93,54.93,0,0,1-27.69-1.83c-1.53-.51-2.19,1.91-.67,2.41Z"/><path class="cls-4" d="M929,665.68c-3.05,4.4-6.11,9.62-4.15,15.08.54,1.51,3,.86,2.41-.66-1.72-4.82,1.24-9.32,3.9-13.16.91-1.32-1.25-2.58-2.16-1.26Z"/><path class="cls-4" d="M986.59,665.62a40.54,40.54,0,0,1,1.13,10.52,1.25,1.25,0,0,0,2.5,0A43.06,43.06,0,0,0,989,665c-.38-1.56-2.79-.9-2.41.67Z"/><path class="cls-4" d="M960.07,708.34a24,24,0,0,0,0,10.49c.34,1.57,2.75.91,2.41-.66a20.87,20.87,0,0,1,0-9.17c.35-1.57-2.06-2.23-2.41-.66Z"/><path d="M918.18,409.32a30.1,30.1,0,0,1,.48-5.18c1.51-5.53,5.8-7.73,11-8.66,1.6-.29,3.22-.41,4.83-.59,6.94-.8,12.34,2.18,16.91,7a3.58,3.58,0,0,0,3.53,1.37,118.82,118.82,0,0,1,26.66-.45,92,92,0,0,1,44.32,15.81,14,14,0,0,0,5,2.31c6.78,1.55,11.34,6.1,15,11.72,4.76,7.38,7.48,15.62,9.6,24a211.34,211.34,0,0,1,5.56,35.72c.47,6.26.7,12.52,1.11,18.78.21,3.25-1.5,5.46-3.88,7.22a12.77,12.77,0,0,1-10.41,2.08c-4.69-.93-9.3-2.35-14-3.35-7.65-1.65-15.31-3.22-23-4.66a257.61,257.61,0,0,0-30.74-3.43,127.35,127.35,0,0,0-18.32.47c-9,.69-18,1.66-27.07,2.17-26.31,1.48-50.89,9-74.24,20.9a60.66,60.66,0,0,1-6.85,3.41c-6.61,2.35-12.38,0-15.68-6.21a36.78,36.78,0,0,1-3.7-13.58c-1.22-11.47-.46-22.91.9-34.32.5-4.16,1-8.31,1.6-12.45.54-3.76,1.21-7.5,1.89-11.24a7.48,7.48,0,0,1,.91-2.1A70,70,0,0,1,859,434.22C872.56,424,888,417.63,904.13,413c4-1.16,8.07-2.08,12.11-3.12ZM1027,425.89l-.15.06.21-.07a6.52,6.52,0,0,0,.88,1.63,35,35,0,0,1,8.92,15.82c2.72,10.09,5.49,20.17,7.76,30.35a116,116,0,0,1,2.79,31.37c-.17,3.16-.52,6.31-.78,9.47a9.31,9.31,0,0,0,7.2,0c2.11-.79,2.85-2.06,2.7-4.32-.53-7.87-.92-15.77-1.65-23.62a172.66,172.66,0,0,0-6.14-33.28c-2-6.7-4.41-13.23-8.5-19C1037,429.74,1032.87,426.37,1027,425.89Zm16.14,87.83c.12-.57.2-.86.24-1.16a114.3,114.3,0,0,0-.07-24.6c-1.55-14.63-5.49-28.73-9.44-42.81-1.56-5.58-4-10.8-8.37-14.82-5.28-4.9-10.72-9.64-16.12-14.41a7.78,7.78,0,0,0-2.22-1.24,91.36,91.36,0,0,0-25.4-6.32,123.89,123.89,0,0,0-40.61,3,14.48,14.48,0,0,0-1.55.54c4.76,12,6.14,24.68,7.77,37.05,4.07.25,7.86.4,11.63.72a39.48,39.48,0,0,1,18.11,6.08c8.55,5.5,13.56,13.53,15.8,23.25,1.93,8.41,3.72,16.89,3,25.84A315.62,315.62,0,0,1,1043.11,513.72Zm-142.42-2.39c-.17-3.92-.46-7.55-.46-11.17,0-7.06.19-14.1,2-21,4.12-16.18,14.32-26,30.73-29.21,3.46-.67,7-.8,10.78-1.2-1.5-12.42-3-24.83-7.87-36.55-.81,0-1.43,0-2,.11a201.63,201.63,0,0,0-38.54,9.3c-12,4.27-23.44,9.8-33.64,17.62-5,3.85-5.16,3.82-5.57,10-.83,12.69-1.64,25.37-2.23,38.07-.29,6.34-.31,12.7,0,19a35.67,35.67,0,0,0,5.67,18.45,11.33,11.33,0,0,1,.75,1.59A210.32,210.32,0,0,1,900.69,511.33Zm87.59-27.72c-1.32-7.13-3.86-13.36-8.6-18.54-5.92-6.49-13.65-9.24-22.11-10.1-4-.4-8.06-.05-12.07-.32a44.92,44.92,0,0,0-12.94,1c-9.62,2.21-17.26,7.25-21.77,16.25a51.17,51.17,0,0,0-3.46,9.58,23.83,23.83,0,0,0-1.07,8.54A173,173,0,0,1,988.28,483.61Zm-19.69,19.71c.38-1.7.91-3.48,1.17-5.31a20.34,20.34,0,0,0-.45-9.43,2,2,0,0,0-2.14-1.66c-2.79,0-5.58-.16-8.37-.12a168.23,168.23,0,0,0-39.07,5.07c-4.63,1.19-9.18,2.67-13.81,4a58.21,58.21,0,0,0,.28,12.85ZM852.65,448.25l-.56-.11a46.08,46.08,0,0,0-7,9.49,13,13,0,0,0-1.54,4.08c-2,11.84-3.76,23.71-4.22,35.74-.26,6.9-.43,13.8.81,20.62a40.06,40.06,0,0,0,2.63,8.85c1.81,4.12,5,5.31,9.17,3.77a49.51,49.51,0,0,0,5.15-2.58c-1.19-2.32-2.39-4.39-3.36-6.56-3-6.81-3.8-14.07-3.64-21.37.27-13,.9-26,1.48-39C851.78,456.86,852.28,452.56,852.65,448.25Zm137.83,54.53a48,48,0,0,0-1.34-13.5l-14-1.84c.14,2.87.43,5.42.32,8s-.59,5-.94,7.71Zm-66.27-92.87,23.25-4a16.76,16.76,0,0,0-6.79-4.9c-4.15-1.6-8.28-.48-12.28.51S923.09,405.54,924.21,409.91Z"/><path class="cls-8" d="M1043.11,513.72a315.62,315.62,0,0,0-47.27-8.91c.76-8.95-1-17.43-3-25.84-2.24-9.72-7.25-17.75-15.8-23.25A39.48,39.48,0,0,0,959,449.64c-3.77-.32-7.56-.47-11.63-.72-1.63-12.37-3-25-7.77-37.05a14.48,14.48,0,0,1,1.55-.54,123.89,123.89,0,0,1,40.61-3,91.36,91.36,0,0,1,25.4,6.32,7.78,7.78,0,0,1,2.22,1.24c5.4,4.77,10.84,9.51,16.12,14.41,4.32,4,6.81,9.24,8.37,14.82,4,14.08,7.89,28.18,9.44,42.81a114.3,114.3,0,0,1,.07,24.6C1043.31,512.86,1043.23,513.15,1043.11,513.72Zm-56.12-88a18.43,18.43,0,0,0,2.69-.46c1.41-.45,1.89-1.29,1.57-2.39s-1-1.4-2.54-1c-2.29.54-3.54-.14-4.24-2.31-.5-1.56-1.12-2.07-2.15-1.75s-1.46,1.21-1.19,2.64A7.1,7.1,0,0,0,987,425.76Z"/><path class="cls-8" d="M900.69,511.33a210.32,210.32,0,0,0-40.49,15.08,11.33,11.33,0,0,0-.75-1.59,35.67,35.67,0,0,1-5.67-18.45c-.27-6.34-.25-12.7,0-19,.59-12.7,1.4-25.38,2.23-38.07.41-6.22.55-6.19,5.57-10,10.2-7.82,21.6-13.35,33.64-17.62a201.63,201.63,0,0,1,38.54-9.3c.6-.09,1.22-.07,2-.11,4.92,11.72,6.37,24.13,7.87,36.55-3.75.4-7.32.53-10.78,1.2-16.41,3.2-26.61,13-30.73,29.21-1.77,6.91-2,14-2,21C900.23,503.78,900.52,507.41,900.69,511.33Zm-6-82.28c-1.78-.15-2.52.21-2.68,1.38s.52,1.7,1.48,2c3.74,1.35,8.82-2,9.07-5.93.06-1-.25-1.72-1.21-2a1.62,1.62,0,0,0-2.15,1.21c0,.15,0,.31-.09.45C898.29,428.49,897.09,429.25,894.72,429.05Z"/><path class="cls-8" d="M968.59,503.32l-62.39,5.42a58.21,58.21,0,0,1-.28-12.85c4.63-1.35,9.18-2.83,13.81-4a168.23,168.23,0,0,1,39.07-5.07c2.79,0,5.58.12,8.37.12a2,2,0,0,1,2.14,1.66,20.34,20.34,0,0,1,.45,9.43C969.5,499.84,969,501.62,968.59,503.32Zm-6.69-10.66a1.67,1.67,0,0,0-1.85,1.61,1.57,1.57,0,0,0,1.4,1.8,1.65,1.65,0,0,0,2-1.46A1.69,1.69,0,0,0,961.9,492.66Zm-14,3.26a1.69,1.69,0,1,0-3.38,0,1.56,1.56,0,0,0,1.59,1.64A1.65,1.65,0,0,0,947.88,495.92Zm-14.63,1.65a1.69,1.69,0,1,0-3.37-.11,1.56,1.56,0,0,0,1.51,1.7A1.63,1.63,0,0,0,933.25,497.57ZM918,502.24a1.64,1.64,0,0,0,1.93-1.5,1.68,1.68,0,0,0-1.54-1.92,1.62,1.62,0,0,0-1.8,1.42A1.63,1.63,0,0,0,918,502.24Z"/><path class="cls-8" d="M852.65,448.25c-.37,4.31-.87,8.61-1.06,12.93-.58,13-1.21,26-1.48,39-.16,7.3.64,14.56,3.64,21.37,1,2.17,2.17,4.24,3.36,6.56a49.51,49.51,0,0,1-5.15,2.58c-4.18,1.54-7.36.35-9.17-3.77a40.06,40.06,0,0,1-2.63-8.85c-1.24-6.82-1.07-13.72-.81-20.62.46-12,2.23-23.9,4.22-35.74a13,13,0,0,1,1.54-4.08,46.08,46.08,0,0,1,7-9.49Z"/><path class="cls-8" d="M1027,425.89c5.9.48,10,3.85,13.24,8.44,4.09,5.77,6.51,12.3,8.5,19a172.66,172.66,0,0,1,6.14,33.28c.73,7.85,1.12,15.75,1.65,23.62.15,2.26-.59,3.53-2.7,4.32a9.31,9.31,0,0,1-7.2,0c.26-3.16.61-6.31.78-9.47a116,116,0,0,0-2.79-31.37c-2.27-10.18-5-20.26-7.76-30.35a35,35,0,0,0-8.92-15.82,6.52,6.52,0,0,1-.88-1.63Z"/><path class="cls-8" d="M990.48,502.78l-15.94.33c.35-2.68.84-5.19.94-7.71s-.18-5.09-.32-8l14,1.84A48,48,0,0,1,990.48,502.78Zm-10.64-6.57a1.72,1.72,0,0,0,.34-3.42,1.7,1.7,0,0,0-1.92,1.55A1.63,1.63,0,0,0,979.84,496.21Z"/><path class="cls-8" d="M924.21,409.91c-1.12-4.37.21-7.37,4.18-8.35s8.13-2.11,12.28-.51a16.76,16.76,0,0,1,6.79,4.9Z"/><polygon class="cls-6" points="1027.03 425.88 1026.82 425.95 1026.97 425.89 1027.03 425.88"/><path d="M987,425.76a7.1,7.1,0,0,1-5.86-5.31c-.27-1.43.14-2.32,1.19-2.64s1.65.19,2.15,1.75c.7,2.17,1.95,2.85,4.24,2.31,1.52-.36,2.21-.08,2.54,1s-.16,1.94-1.57,2.39A18.43,18.43,0,0,1,987,425.76Z"/><path d="M894.72,429.05c2.37.2,3.57-.56,4.42-2.8.05-.14.05-.3.09-.45a1.62,1.62,0,0,1,2.15-1.21c1,.23,1.27,1,1.21,2-.25,3.95-5.33,7.28-9.07,5.93-1-.34-1.63-.93-1.48-2S892.94,428.9,894.72,429.05Z"/><path d="M961.9,492.66a1.69,1.69,0,0,1,1.51,1.95,1.65,1.65,0,0,1-2,1.46,1.57,1.57,0,0,1-1.4-1.8A1.67,1.67,0,0,1,961.9,492.66Z"/><path d="M947.88,495.92a1.65,1.65,0,0,1-1.79,1.67A1.56,1.56,0,0,1,944.5,496a1.69,1.69,0,1,1,3.38,0Z"/><path d="M933.25,497.57a1.63,1.63,0,0,1-1.86,1.59,1.56,1.56,0,0,1-1.51-1.7,1.69,1.69,0,1,1,3.37.11Z"/><path d="M918,502.24a1.63,1.63,0,0,1-1.41-2,1.62,1.62,0,0,1,1.8-1.42,1.68,1.68,0,0,1,1.54,1.92A1.64,1.64,0,0,1,918,502.24Z"/><path d="M979.84,496.21a1.63,1.63,0,0,1-1.58-1.87,1.7,1.7,0,0,1,1.92-1.55,1.72,1.72,0,0,1-.34,3.42Z"/></g></g><g id="Layer_8" data-name="Layer 8" class="cls-9"><rect class="cls-6" x="1709.47" y="66.73" width="70.52" height="130.49" transform="translate(1022.18 1725.53) rotate(-69.94)"/><g class="cls-10"><path class="cls-6" d="M1817.3,182.75s22.58-2.53,48.5,10.77c-21.79-21.63-45.25-19.68-45.25-19.68l-3.25,8.91Z"/></g><g class="cls-10"><path class="cls-6" d="M1780.51,283.49s17.92,7.25,41.14.44c-20.45,18.14-44.46,8.62-44.46,8.62l3.32-9.06Z"/></g><g class="cls-10"><path class="cls-11" d="M1832.46,263.24c-9.62,14.12-29.82,22.1-50.22,15.51l34.09-93.34c8.85,1,45.57,6.16,42.53,21.9C1855.48,224.77,1842.59,248.37,1832.46,263.24Zm-78.18,56.94c-7.61,20.84-145.77-29.62-138.15-50.47L1688.7,71l138.15,50.46Zm129.63-121.37c4.66-24.77-48.55-34.39-59.3-36.07l18.8-51.46L1682.62,52.55l-84.33,230.87c-9.38,25.69,151.41,84.42,160.79,58.73l14.86-40.69c30.59,10,63.7-7.8,79.44-30.62C1864.62,254.57,1880.06,219.23,1883.91,198.81Z"/></g><path class="cls-12" d="M1793.91,187.47l-122.57-44.76-45.07,123.4c-6.76,18.5,115.81,63.27,122.57,44.77Z"/><path class="cls-13" d="M1832.43,106.22c-4.38,12-22.75,16.3-41,9.62S1761.81,94,1766.19,82s22.77-16.35,41.07-9.67S1836.83,94.18,1832.43,106.22Z"/><path class="cls-13" d="M1852.92,124.42c-3.68,10.08-16.39,14.71-28.38,10.33s-18.72-16.11-15-26.19,16.4-14.73,28.38-10.35S1856.62,114.31,1852.92,124.42Z"/><path class="cls-13" d="M1673.54,126.31c-3.6,9.87-15.56,14.59-26.72,10.51s-17.29-15.4-13.69-25.26,15.59-14.63,26.77-10.54S1677.16,116.4,1673.54,126.31Z"/><path class="cls-13" d="M1674.83,154.14c-3.6,9.86-15.57,14.59-26.73,10.51s-17.29-15.41-13.68-25.27,15.59-14.63,26.77-10.55S1678.45,144.22,1674.83,154.14Z"/><path class="cls-13" d="M1744.54,86.71c-7.11,19.47-30.71,28.75-52.72,20.72s-34.07-30.36-27-49.82,30.76-28.8,52.74-20.77S1751.67,67.17,1744.54,86.71Z"/><path class="cls-13" d="M1698.25,99.44c-6.2,17-26.12,25.27-44.56,18.53s-28.31-25.92-22.11-42.88,26.15-25.3,44.56-18.58S1704.46,82.43,1698.25,99.44Z"/><path class="cls-13" d="M1791.76,84.69c-5.21,14.26-23,20.91-39.64,14.81s-26-22.61-20.76-36.87,23-21,39.66-14.87S1797,70.37,1791.76,84.69Z"/><path class="cls-6" d="M1829.66,109c-4.3,11.77-21.71,16.23-38.86,10s-27.6-20.89-23.3-32.66,21.71-16.24,38.87-10S1834,97.2,1829.66,109Z"/><path class="cls-6" d="M1848.22,123.58c-3.25,8.9-15.37,12.66-27.06,8.39s-18.56-15-15.31-23.87,15.38-12.68,27.09-8.4S1851.48,114.66,1848.22,123.58Z"/><path class="cls-6" d="M1679.45,127.41c-3.42,9.36-15,13.74-25.92,9.77S1636.59,122.37,1640,113s15-13.77,25.93-9.79S1682.88,118,1679.45,127.41Z"/><path class="cls-6" d="M1792,111.71c-3.42,9.37-15,13.75-25.93,9.77s-16.94-14.81-13.52-24.17,15.05-13.76,25.92-9.79S1795.46,102.32,1792,111.71Z"/><path class="cls-6" d="M1746.23,91.26c-6.74,18.46-29.6,27.1-51.07,19.25s-33.4-29.18-26.66-47.64,29.65-27.11,51.1-19.28S1753,72.74,1746.23,91.26Z"/><path class="cls-6" d="M1701.76,101.84C1696.11,117.28,1677,124.51,1659,118s-28-24.43-22.31-39.88,24.81-22.7,42.77-16.15S1707.42,86.33,1701.76,101.84Z"/><path class="cls-6" d="M1738.78,143.27c-5.64,15.45-24.8,22.67-42.76,16.11s-28-24.43-22.31-39.88,24.82-22.7,42.77-16.14S1744.45,127.76,1738.78,143.27Z"/><path class="cls-6" d="M1790.17,89.05c-4.94,13.51-21.69,19.85-37.43,14.1s-24.48-21.39-19.54-34.91,21.73-19.88,37.45-14.14S1795.13,75.47,1790.17,89.05Z"/><path class="cls-6" d="M1678.71,155.54c-3.42,9.37-15,13.74-25.92,9.76s-16.94-14.78-13.51-24.16,15-13.76,25.91-9.79S1682.14,146.15,1678.71,155.54Z"/><path class="cls-6" d="M1701,153.54c-3.3,9-14.47,13.23-25,9.4s-16.31-14.25-13-23.27,14.48-13.27,25-9.43S1704.25,144.49,1701,153.54Z"/><path class="cls-13" d="M1726.31,136.62a16,16,0,0,0-4.29-6.83,17.05,17.05,0,0,0-3.21-2.34,23.13,23.13,0,0,0-3.51-1.49l-1.71-.61v-2.07a14.42,14.42,0,0,0-2-7.34,18.8,18.8,0,0,0-2.35-3,15.66,15.66,0,0,0-1.6-1.45,19,19,0,0,0-17.48-3l-2.88,1-1.17-2.28a10.49,10.49,0,0,0-.94-1.52,12.77,12.77,0,0,0-1.37-1.43,11,11,0,0,0-3.59-2.19,13.3,13.3,0,0,0-9.18-.17c2.06-2.35,5.89-3.47,9.8-3a16.56,16.56,0,0,1,5.72,2,14.68,14.68,0,0,1,2.46,1.82,15.14,15.14,0,0,1,2.1,2.32l-4-1.23c6.4-3.68,15.83-3.11,22.74,1.38a22,22,0,0,1,2.48,1.86,19.31,19.31,0,0,1,2.06,2,18.28,18.28,0,0,1,3.31,4.87,15.87,15.87,0,0,1,1.25,10.46l-1.75-2.67a19.7,19.7,0,0,1,4.36,2.9,12.3,12.3,0,0,1,1.73,1.78,10.94,10.94,0,0,1,1.41,1.94A11.5,11.5,0,0,1,1726.31,136.62Z"/><path class="cls-13" d="M1770,69.31a20,20,0,0,0-8.28-2.5c-.77,0-1.19,0-2,0a8.5,8.5,0,0,0-1.94.21,21.7,21.7,0,0,0-3.4,1.1l-1.55.63-1.69-1.54a19.92,19.92,0,0,0-7.27-4.37A22.4,22.4,0,0,0,1740,62a15.38,15.38,0,0,0-4.16,0,13.29,13.29,0,0,0-11.28,8.61l-.9,2.71-2.62-1a10.32,10.32,0,0,0-1.81-.56,11.13,11.13,0,0,0-2-.23,9.66,9.66,0,0,0-4,.58,9.23,9.23,0,0,0-5.7,5.77,8.56,8.56,0,0,1,3.56-8.57,12.77,12.77,0,0,1,5.2-2.08,15,15,0,0,1,3-.19,17.67,17.67,0,0,1,3.17.46l-3.52,1.7c.78-7,7.26-12.73,15.28-13.59a24.91,24.91,0,0,1,5.9.11,21.81,21.81,0,0,1,6,1.67,22.48,22.48,0,0,1,9.23,7.16l-3.25-.9a16.92,16.92,0,0,1,5.13-.55,11.56,11.56,0,0,1,2.52.26,12.51,12.51,0,0,1,2.47.6A16.17,16.17,0,0,1,1770,69.31Z"/><ellipse class="cls-14" cx="1741.6" cy="210.12" rx="25.9" ry="27.41" transform="translate(946.72 1773.92) rotate(-69.94)"/><ellipse class="cls-14" cx="1689.67" cy="236.78" rx="19.42" ry="20.57" transform="translate(887.53 1742.65) rotate(-69.93)"/><path class="cls-14" d="M1726.07,255.31c7.11,2.59,10.89,10.15,8.43,16.86s-10.21,10.06-17.32,7.46-10.89-10.15-8.44-16.87S1719,252.71,1726.07,255.31Z"/><ellipse class="cls-14" cx="1683.59" cy="282.7" rx="9.06" ry="9.61" transform="translate(840.44 1767.12) rotate(-69.94)"/><path class="cls-15" d="M377.23,33.43c-74.75-58.88-147.68,31.69-133.4,75C207.49,75,98,99.71,115.26,191.35c19.23,102.06,215.5,85.78,233.71,91.53C353.9,266.63,457.65,96.76,377.23,33.43Z"/><path class="cls-16" d="M1413.1,754.94c-6.4,11.37-17.66,11.1-23,10.39l-2.5-.34s-2.12.65-5.27,1.27l-.4.53s20.13,10.45,27.36,12.54c8,2.31,41.14,17.07,49.46,20.25,9.78,3.75,16,8.58,11.18,19.37s-14.81,10.49-22.58,6.24c-10.71-5.87-48.05-23.19-48.05-23.19,4.33,3.33,7.85,7.41,3.47,15-5,8.72-9.34,8.88-15.21,6.76,5.7,7.91,2.42,13.74-.21,17.1-4.46,5.66-16.75,2.32-16.78,2.39,7.43,6.3,4.19,9.6.9,14.77-2,3.16-7.23,5.57-13.74,4.37s-12.82,1.25-55.83-25.76c-11.29-7.09-12.55-20.26-8.22-37.37,2.93-11.56,6.5-27.52,10.53-38.81a25.48,25.48,0,0,1,1.27-2.92A20.21,20.21,0,0,1,1320,744.94l43.15-9.4.16,0a10.87,10.87,0,0,1,7.85-.19,103.14,103.14,0,0,0,34,5.18C1410.5,740.43,1417.53,747.07,1413.1,754.94Z"/><path class="cls-17" d="M1373.69,854.61c6-9.51-9.94-15.69-4.3-10.66C1375.31,849.22,1373.69,854.61,1373.69,854.61Z"/><path class="cls-17" d="M1389.21,838.11c7.61-13.26-8.52-18.72-3.34-13.22S1389.21,838.11,1389.21,838.11Z"/><path class="cls-17" d="M1403,816.76c7.61-13.28-9.54-19.18-4.36-13.68S1403,816.76,1403,816.76Z"/><path class="cls-17" d="M1382,766.79a585.23,585.23,0,0,1,77.31,32c6.11,3.05,15.71,7.35,11.29,18.66C1472.17,803.27,1427.13,790.16,1382,766.79Z"/><path class="cls-17" d="M1413.91,746.82a9.09,9.09,0,0,0-5.58-2.11,103.41,103.41,0,0,1-34-5.18,10.87,10.87,0,0,0-7.85.18l-.16,0-43.16,9.41a20.2,20.2,0,0,0-14.45,12.61,22.53,22.53,0,0,0-1.27,2.93c-4,11.29-7.6,27.24-10.53,38.8-3.09,12.22-3.31,22.41.91,29.83-7.36-7.53-7.79-19.32-4.07-34,2.92-11.56,6.49-27.52,10.53-38.8a24,24,0,0,1,1.27-2.93A20.24,20.24,0,0,1,1320,744.94l43.16-9.4.15,0a10.9,10.9,0,0,1,7.86-.19,103.37,103.37,0,0,0,34,5.19C1408.48,740.46,1412.44,743,1413.91,746.82Z"/><path class="cls-17" d="M1372.1,758.48s13.06,1.61,19.1,2.61c5,.84,15.09.28,21.39-5.29-6.47,10.49-17.28,10.22-22.45,9.53l-2.51-.35a15.76,15.76,0,0,1-5.67,1.81S1378.37,760.78,1372.1,758.48Z"/><path class="cls-17" d="M1395.69,802a19.61,19.61,0,0,0-4.91.35,43.64,43.64,0,0,1-5,.74,12.29,12.29,0,0,1-5.42-.84,8.58,8.58,0,0,1-4.1-3.49,25.27,25.27,0,0,0,4.74,1.3,22.17,22.17,0,0,0,4.62.12,38.36,38.36,0,0,1,5.07-.09A8,8,0,0,1,1395.69,802Z"/><path class="cls-17" d="M1382,821.07a19.65,19.65,0,0,0-4.91.35,43.32,43.32,0,0,1-5,.74,12.15,12.15,0,0,1-5.42-.84,8.62,8.62,0,0,1-4.09-3.5,24.32,24.32,0,0,0,4.73,1.31,21.53,21.53,0,0,0,4.62.11,38.57,38.57,0,0,1,5.08-.08A8,8,0,0,1,1382,821.07Z"/><path class="cls-17" d="M1365.41,841.13a19.15,19.15,0,0,0-4.91.35,44,44,0,0,1-5,.73,12.15,12.15,0,0,1-5.42-.84,8.55,8.55,0,0,1-4.09-3.49,25.82,25.82,0,0,0,4.73,1.31,22.89,22.89,0,0,0,4.62.11,38.47,38.47,0,0,1,5.08-.09A8,8,0,0,1,1365.41,841.13Z"/><path class="cls-16" d="M1600,864.23l-23.12,4.65s2.24-28.57,2.32-47.08c0-7.61-7.45-13.64-7.44-24.28,0-18.54,14-28.34,18-15,4.49,15.34,14.6,29.74,14.56,37.34C1604.19,832.53,1600,864.23,1600,864.23Z"/><path class="cls-16" d="M1609.56,880.62c-2.52,9-9.49,21.78-23.77,34,0,0-7.12-25-5.18-34.16,0,0,9.8-33.75,14.5-56,1.93-9.12-5.57-18.23-2.9-31,4.64-22.25,23.93-30.55,25.31-13.6,1.59,19.54,10.14,39.31,8.21,48.43C1622.5,843.6,1613.24,867.45,1609.56,880.62Z"/><path class="cls-17" d="M1594.06,854.59s3.93-12.66,8.62-34.85c1.94-9.13-5.56-18.24-2.89-31a36.09,36.09,0,0,1,8.67-17.57c-6.14,1.49-14.11,9.41-16.77,22.15s4.88,21.94,2.93,31.07c-2,9.54-4.53,19.33-4.53,19.33l-11.15-10.94Z"/><path class="cls-16" d="M1604.52,874.6c-10.54-24-25.87-42.52-35.84-54.47-14.8-17.73-15.52-2.7-51.59-8.62-4.77-.78-11.23.07-10.95,9.9.27,9.46,33.4,17.12,40.22,14.55,0,0,5.82,21.29,18.73,26.6,0,0-6.81,9.38-5.94,15.77,0,0-22.25,1.36-33.67,6.17l-15.08-23.94c8.32-22.94,7.21-31.33-4.2-35.14-10.64-3.56-13.74,6.52-17,14.5-5.91,14.36-10.69,15-9.73,22.16,3.68,27.42,14.39,48.17,45.35,61.94,11.6,5.16,19.1,8.13,27.79,7.77C1567.15,931.2,1616.13,901,1604.52,874.6Z"/><path class="cls-17" d="M1606.11,880.35c-2.42,23.28-40.91,46.06-53.56,46.58-8.69.35-16.19-2.62-27.78-7.78-30.63-13.62-41.52-34.2-45.22-61.06a13.69,13.69,0,0,0-.09,4c3.69,27.42,14.4,48.17,45.36,61.94,11.59,5.16,19.09,8.13,27.79,7.77C1566.13,931.25,1609.25,905.21,1606.11,880.35Z"/><path class="cls-17" d="M1506.33,859.58s14.27,21.71,18.81,24.58l-14.73-23.59c10.84-22.08,7.44-32.16-4.21-35.15-1-.24-1.82-.41-2.62-.53C1514.92,828.62,1517,838.07,1506.33,859.58Z"/><path class="cls-17" d="M1546.41,836s5.83,21.29,18.74,26.6l1.29-2.9c-12.91-5.3-18.74-26.6-18.74-26.6-6.81,2.56-39.94-5.09-40.21-14.56a15.32,15.32,0,0,1,.41-4.23c-1.11,1.56-1.79,3.83-1.7,7.14C1506.47,830.9,1539.6,838.55,1546.41,836Z"/><path class="cls-18" d="M1677.16,887.32c16.51,37.67,35.93,65.06,57.63,77.67a38.23,38.23,0,1,0,38.35-66.15C1751.44,886.23,1717.39,883.05,1677.16,887.32Z"/><path class="cls-18" d="M1647,911.55c-18.94,25.8-29.84,49.57-29.88,69.12a29.75,29.75,0,1,0,59.49.13C1676.64,961.24,1665.53,937,1647,911.55Z"/><path class="cls-18" d="M1695.86,970.85c-3.52,31.83-1.07,57.87,8.66,74.81A29.75,29.75,0,1,0,1756.1,1016C1746.36,999.05,1724.65,983.64,1695.86,970.85Z"/><path class="cls-19" d="M544.71,1040.63h0L540,903.56c-.75-31.84-23.49-59.56-55.43-65.08v0L307.85,809.57c-32.29-5.29-63,13.83-73.93,44L185.86,982a33.34,33.34,0,0,0-1.92,7.12c-3.06,18.56,9.29,36,27.57,39A33.36,33.36,0,0,0,242,1017l52.37-47.17a39.11,39.11,0,0,0,24.79,14.93c21.48,3.5,41.81-11.35,45.38-33.22l21,3.43c-3.58,21.85,11,42.42,32.46,45.93a39,39,0,0,0,27.82-6l34.41,61a33.45,33.45,0,0,0,25.41,20.22c18.28,3,35.56-9.64,38.58-28.23A33.85,33.85,0,0,0,544.71,1040.63Z"/><path class="cls-20" d="M317.37,886.62c3.5,5,8.53,4.51,11.15-1.06l3.09-18.77c-.74-6.12-5.35-8.16-10.27-4.55l-5,3.67a11.36,11.36,0,0,0-2.55,15.62Z"/><path class="cls-20" d="M294,836.64c-6,.73-8.08,5.46-4.54,10.44l3.6,5.08a10.9,10.9,0,0,0,15.36,2.51l5-3.67c4.93-3.61,4.5-8.73-.95-11.36Z"/><path class="cls-20" d="M278.29,855.21c-3.52-5-8.57-4.52-11.17,1L264,875c.72,6.12,5.35,8.17,10.28,4.55l5-3.68a11.34,11.34,0,0,0,2.55-15.61Z"/><path class="cls-20" d="M301.7,905.19c6-.76,8.05-5.46,4.53-10.44l-3.59-5.09a10.92,10.92,0,0,0-15.36-2.5l-5,3.67c-4.94,3.62-4.51,8.7,1,11.36Z"/><path class="cls-21" d="M490.75,902.45a11.19,11.19,0,1,0,9.07,12.8A11.07,11.07,0,0,0,490.75,902.45Z"/><path class="cls-21" d="M457.63,908.35a11.21,11.21,0,1,0,9.07,12.84A11.1,11.1,0,0,0,457.63,908.35Z"/><path class="cls-21" d="M491.54,891.22a11.19,11.19,0,1,0-9.07-12.82A11.13,11.13,0,0,0,491.54,891.22Z"/><path class="cls-21" d="M458.42,897.13a11.19,11.19,0,1,0-9.07-12.81A11,11,0,0,0,458.42,897.13Z"/><ellipse class="cls-20" cx="424.55" cy="961.36" rx="26.87" ry="26.43" transform="translate(-592.7 1225.32) rotate(-80.72)"/><path class="cls-20" d="M330,918.69a26.86,26.86,0,1,0,21.74,30.77A26.65,26.65,0,0,0,330,918.69Z"/><polygon class="cls-22" points="344.05 671.98 103.91 716.54 93.11 540.06 290.81 503.37 344.05 671.98"/><path class="cls-23" d="M167.79,512.31c-21.67,4-60.95,18.6-74.78,16.8,0,0,16.91,73.17,18.09,180.72,25.49-6.64,57.22-27.7,83-32.49S223.25,689,223.25,689L193.13,526.47S189.47,508.29,167.79,512.31Z"/><path class="cls-24" d="M167.5,509.45c-21.73,4-53.85,17-66.35,5.8,0,0,18.71,82.93,13.7,180.64,10.31,10,52-13.77,77.77-18.57S223.26,689,223.26,689L192.63,523.75S189.23,505.42,167.5,509.45Z"/><path class="cls-20" d="M194.14,677.34c-25.81,4.79-68.41,29.77-83,32.49L223.25,689S220,672.55,194.14,677.34Z"/><path class="cls-25" d="M117.78,544.06l-.29-3.22c3.55-.66,9.53-3,16.44-5.78,9.47-3.76,20.15-8,29.13-9.67,11.93-2.21,16.44-.26,16.91,0l-.79,1.44-.78,1.44s-4.05-1.71-14.88.3c-8.67,1.61-19.22,5.8-28.56,9.52C127.85,540.88,121.7,543.33,117.78,544.06Z"/><path class="cls-25" d="M119.28,560.54l-.3-3.35c3.62-.67,9.71-3.11,16.75-5.94,9.66-3.88,20.54-8.24,29.7-9.94,12.16-2.26,16.77-.22,17.25,0l-.8,1.48-.78,1.51s-4.14-1.8-15.19.25c-8.83,1.64-19.59,6-29.12,9.79C129.54,557.28,123.27,559.8,119.28,560.54Z"/><path class="cls-25" d="M120.84,577.7l-.32-3.48c3.7-.69,9.92-3.21,17.1-6.12,9.84-4,20.94-8.5,30.27-10.23,12.41-2.31,17.12-.17,17.62.08l-.82,1.54-.79,1.56s-4.23-1.88-15.5.21c-9,1.67-20,6.13-29.7,10.08C131.31,574.35,124.91,577,120.84,577.7Z"/><path class="cls-25" d="M122.46,595.57l-.33-3.62c3.77-.71,10.11-3.31,17.44-6.32,10-4.12,21.37-8.77,30.89-10.53,12.66-2.35,17.48-.11,18,.15l-.83,1.61-.8,1.62s-4.34-2-15.83.15c-9.2,1.71-20.39,6.3-30.3,10.38C133.15,592.12,126.62,594.8,122.46,595.57Z"/><path class="cls-25" d="M124.15,614.21l-.34-3.79c3.85-.72,10.32-3.41,17.8-6.51,10.25-4.25,21.8-9,31.53-10.86,12.92-2.4,17.85,0,18.38.23l-.85,1.67-.81,1.69c-.05,0-4.44-2.08-16.17.1-9.4,1.74-20.81,6.49-30.93,10.7C135.06,610.65,128.4,613.42,124.15,614.21Z"/><path class="cls-25" d="M125.91,633.65l-.35-4c3.93-.73,10.54-3.5,18.18-6.71,10.46-4.41,22.25-9.36,32.18-11.21,13.21-2.45,18.25,0,18.79.32l-.86,1.73-.83,1.76s-4.54-2.19-16.53,0c-9.59,1.78-21.24,6.69-31.57,11C137.06,630,130.26,632.84,125.91,633.65Z"/><path class="cls-25" d="M127.76,654l-.37-4.14c4-.74,10.77-3.61,18.57-6.92,10.68-4.56,22.73-9.69,32.88-11.57,13.49-2.5,18.66.1,19.21.41l-.87,1.8-.84,1.84c-.05,0-4.65-2.31-16.91,0-9.8,1.82-21.7,6.9-32.25,11.4C139.15,650.16,132.19,653.13,127.76,654Z"/><path class="cls-25" d="M129.69,675.17l-.4-4.32c4.12-.77,11-3.75,19-7.17,10.92-4.71,23.21-10,33.6-11.94,13.79-2.56,19.08.18,19.65.49l-.88,1.89-.86,1.91s-4.76-2.44-17.29-.11c-10,1.86-22.18,7.12-33,11.78C141.33,671.25,134.22,674.32,129.69,675.17Z"/><path class="cls-23" d="M211.25,504.25c21.67-4,63.56-4.52,75.82-11.15,0,0,10.46,74.36,47.95,175.17-26.18,3-63.35-5.32-89.17-.53s-23,21.34-23,21.34l-30.2-162.53S189.57,508.27,211.25,504.25Z"/><path class="cls-26" d="M210.49,501.45c21.73-4,56.37-3.44,64-18.4,0,0,12.28,84.13,52,173.54-6.06,13-53.43,5.78-79.26,10.58s-24.39,21.91-24.39,21.91L192.16,523.81S188.76,505.48,210.49,501.45Z"/><path class="cls-20" d="M245.85,667.74c25.82-4.79,74.54,3.24,89.17.53L222.86,689.08S220,672.53,245.85,667.74Z"/><path class="cls-25" d="M269.31,515.94l-.88-3.12c-3.55.66-10,.59-17.42.51-10.18-.11-21.68-.24-30.66,1.43-11.92,2.21-15.44,5.65-15.8,6l1.26,1.05,1.24,1.08s3.17-3.06,14-5.07c8.68-1.61,20-1.48,30.08-1.36C258.77,516.58,265.4,516.66,269.31,515.94Z"/><path class="cls-25" d="M273.83,531.86l-.92-3.23c-3.62.67-10.19.57-17.78.46-10.4-.15-22.13-.32-31.28,1.37-12.16,2.26-15.73,5.82-16.1,6.22l1.29,1.09,1.26,1.13s3.22-3.17,14.27-5.22c8.83-1.64,20.42-1.46,30.69-1.3C263.08,532.5,269.83,532.6,273.83,531.86Z"/><path class="cls-25" d="M278.53,548.44l-.95-3.37c-3.7.69-10.41.56-18.16.42-10.62-.2-22.59-.42-31.93,1.31-12.41,2.31-16,6-16.41,6.4l1.32,1.15,1.29,1.17s3.28-3.28,14.54-5.37c9-1.67,20.85-1.45,31.34-1.25C267.55,549.06,274.46,549.19,278.53,548.44Z"/><path class="cls-25" d="M283.43,565.7l-1-3.51c-3.77.7-10.63.55-18.54.37-10.85-.24-23.09-.52-32.61,1.25-12.67,2.35-16.36,6.17-16.74,6.6l1.35,1.2,1.33,1.22s3.33-3.4,14.83-5.54c9.2-1.7,21.29-1.42,32-1.17C272.21,566.31,279.27,566.47,283.43,565.7Z"/><path class="cls-25" d="M288.54,583.7,287.49,580c-3.85.72-10.85.53-18.94.31-11.1-.29-23.6-.63-33.33,1.18-12.93,2.4-16.68,6.37-17.07,6.81l1.39,1.25,1.36,1.29s3.39-3.53,15.13-5.71c9.4-1.75,21.75-1.41,32.71-1.11C277.07,584.29,284.29,584.49,288.54,583.7Z"/><path class="cls-25" d="M293.86,602.48l-1.08-3.83c-3.94.73-11.11.52-19.38.27-11.34-.36-24.13-.76-34.07,1.09-13.2,2.45-17,6.57-17.42,7l1.43,1.31,1.4,1.35s3.45-3.67,15.44-5.9c9.6-1.78,22.23-1.38,33.43-1C282.14,603.05,289.52,603.28,293.86,602.48Z"/><path class="cls-25" d="M299.42,622.09l-1.13-4c-4,.75-11.36.5-19.82.2-11.61-.41-24.69-.88-34.84,1-13.49,2.51-17.38,6.79-17.78,7.28l1.45,1.37,1.45,1.41s3.51-3.82,15.77-6.09c9.8-1.82,22.73-1.35,34.19-.94C287.43,622.64,295,622.91,299.42,622.09Z"/><path class="cls-25" d="M305.23,642.59l-1.18-4.18c-4.11.77-11.62.46-20.28.12-11.89-.47-25.28-1-35.66.91-13.79,2.56-17.75,7-18.16,7.52l1.49,1.44,1.49,1.48s3.58-4,16.1-6.31c10-1.86,23.27-1.32,35-.83C293,643.11,300.7,643.43,305.23,642.59Z"/><ellipse class="cls-6" cx="585.31" cy="431.51" rx="97.01" ry="97.06" transform="translate(-0.5 0.68) rotate(-0.07)"/><path class="cls-27" d="M645.58,498c6-15.61,5.74-27.38,5.45-31.14a90,90,0,0,0,20.84-33.54,26.11,26.11,0,0,1,6.61,1.9,27.61,27.61,0,0,1,.62,9C676.55,461,667.73,486,652.29,497.09,650.74,497.88,648,498.06,645.58,498Zm-51.14,27.78a36.35,36.35,0,0,0,8.88-7.1c4.3-.59,22.76-3.77,39.44-16a36.31,36.31,0,0,0,4.93.21C637.69,512.65,613.27,523.6,594.44,525.75Zm-54.07-11.42-1.26,1.95,1-2.09c-8.05-3.93-14.5-13.09-16.84-16.75a148.08,148.08,0,0,1,13.55-11.28c5.41,1.9,27.61,9.41,41.76,9.41,2.4,3.23,10.28,13.35,19.95,21.09-6,5.89-14.7,8.67-16.24,9.13C559.9,526.71,540.56,514.45,540.37,514.33ZM491.28,420a64.45,64.45,0,0,0,2.17,13,39.33,39.33,0,0,0-2.26,8.79A109.75,109.75,0,0,1,491.28,420Zm156.27,43.46a202,202,0,0,1-35.21-4.86c-3.14-10.95-13.51-38-15.88-44.1,10.16-14.53,20.18-28.22,23-32a84,84,0,0,1,34.67,9.36,99.07,99.07,0,0,1,13.65,38.52A86,86,0,0,1,647.55,463.43ZM584.24,337.1a48.1,48.1,0,0,1,8.84,1.51,78.37,78.37,0,0,0-6.41,10.91c-5.2.86-25,4.64-40.49,14.7-3.13-.83-12.57-3.05-21.51-2.28a31.37,31.37,0,0,1,5.88-7.79c1.23-.88,24.91-17.45,53.69-17.09v0Zm-66,101.09c-11.36-1.94-18.11-5.47-20.12-6.66-4.22-15.32-.83-31.86-.3-34.23,4.16-7.45,16-26.44,23.85-30,8.11-1.66,18.22.4,22.34,1.41a179.93,179.93,0,0,0,1.08,36C536.08,411.91,521.88,432.7,518.21,438.19Zm139.44-64.45a38.09,38.09,0,0,1-2.94,12.89,89.56,89.56,0,0,0-35.09-9c-2.63-3.89-12.53-17.43-28.16-26.82,2.14-4.18,5.12-9.29,6.86-10.84a10.21,10.21,0,0,1,2.77-.31c8.38,0,22.86,5.49,24.12,6C626.54,346.33,652.57,360.34,657.65,373.74Zm-119.6,107.7c-9.51-15.39-14.93-35.5-16.1-40.12,3-4.51,17.87-26.41,26.33-33,4.8.88,24.8,4.55,43.67,8,2.37,6.14,12.77,33.26,15.76,43.73-3.29,3.89-16.18,18.91-28.88,30.66C565.35,490.75,542.42,483,538.05,481.44Zm146.49-49.95c.07-2.37.69-36.16-19.31-58.16-.88-2-5.1-9.89-18.7-19.58a139.27,139.27,0,0,0-19.15-12.48h0c-.85-.46-17.44-9.24-37.58-9.24-1.52,0-3,.09-4.53.2v0c-15.35-.34-29.2,3.8-39.49,8.21l0,0-.08.05a101.87,101.87,0,0,0-18.1,9.85c-11.28,6.32-32.69,31.66-34.38,45.09-6.84,8.75-12.56,48,0,71.95,8.81,33.25,42,49.89,44.63,51.17,1.61,1,19.69,12.2,41.91,12.2q1.4,0,2.82-.06a42.68,42.68,0,0,0,5.76.37c24,0,59.59-16.93,67-30.18C675.85,485.85,686.46,447.27,684.54,431.49Z"/><path class="cls-28" d="M1514.33,406.72c14.28,42.34-17.45,74.79-84.27,97.34s-111.74,15.93-126-26.4C1283.17,415.79,1493.45,344.85,1514.33,406.72Z"/><path class="cls-29" d="M1504,377.83c14.29,42.34-17.24,74.72-83.7,97.15s-111.17,15.74-125.45-26.6C1273.93,386.51,1483.08,316,1504,377.83Z"/><path class="cls-30" d="M1294.6,449.67c-5.91-17.51,6.59-49.12,90.94-77.58s113.44-10.86,119.34,6.64c10.8,32-10.87,65.36-86.45,90.85S1305.39,481.66,1294.6,449.67Z"/><path class="cls-31" d="M1290.69,430.43c-5.91-17.5,6.13-49,88.62-76.79s111.12-10.08,117,7.42c10.79,32-10.22,65.14-84.14,90.07S1301.48,462.42,1290.69,430.43Z"/><path class="cls-32" d="M1283.47,407.55c1.51-12.39,14.21-17.34,62.79-13.54s59.85,10.64,58.34,23c-2.75,22.66-22.71,45.37-66.25,42S1280.71,430.21,1283.47,407.55Z"/><path class="cls-33" d="M1283,394.17c1.51-12.39,14.21-17.34,62.8-13.54s59.84,10.64,58.33,23c-2.76,22.66-22.71,45.37-66.25,42S1280.2,416.82,1283,394.17Z"/><path class="cls-32" d="M1387,410.65c-6.65-10.46.56-21.66,42.61-46.92s55.59-26.5,62.23-16c12.15,19.12,10.32,48.27-27.37,70.9S1399.18,429.77,1387,410.65Z"/><path class="cls-33" d="M1378.75,400.62c-6.65-10.46.55-21.66,42.62-46.91s55.57-26.51,62.22-16c12.15,19.12,10.32,48.27-27.37,70.9S1390.9,419.74,1378.75,400.62Z"/><polygon class="cls-34" points="1313.72 421.24 1407.32 465.02 1453.3 374.15 1313.72 421.24"/><path class="cls-35" d="M1487.74,342.68s7,10.95,5.13,15.44c-1.71,4-11.88,3.72-14.68,7.71-2.53,3.59,1.5,12.8-1.83,16.32-3.07,3.21-12.64-.12-16.33,3-3.43,2.87-1.62,12.79-5.55,15.52-3.7,2.56-12.46-2.51-16.57-.11-3.92,2.27-3.75,12.36-8,14.44-4.09,2-12-4.27-16.38-2.49-4.22,1.74-5.43,11.77-9.89,13.27s-11.49-5.75-15.9-4.57-7.06,11-11.53,11.91c-4.64.92-10.62-7.22-15.11-6.65-4.72.58-8.63,9.93-13.13,10.12-4.77.22-9.35-8.77-13.82-9-4.81-.23-10.41,8.22-14.79,7.52-4.79-.77-7.16-10.55-11.35-11.88-4.66-1.47-12.57,4.9-16.36,2.76-4.24-2.41-5.25-15.39-5.25-15.39Z"/><path class="cls-28" d="M1489.33,332.62c7.71,22.86-35.51,50.17-93.57,69.76s-109,24-116.72,1.18c-14.08-41.76,21.57-91.51,79.64-111.09S1475.24,290.86,1489.33,332.62Z"/><polygon class="cls-36" points="1317.33 355.31 1313.78 362.4 1306.65 358.91 1310.21 351.82 1317.33 355.31"/><polygon class="cls-36" points="1340.72 337.74 1337.17 344.83 1330.04 341.34 1333.6 334.25 1340.72 337.74"/><polygon class="cls-36" points="1363.81 356.85 1360.25 363.94 1353.13 360.45 1356.68 353.37 1363.81 356.85"/><polygon class="cls-36" points="1375.85 331.64 1373.49 336.37 1368.74 334.04 1371.11 329.31 1375.85 331.64"/><polygon class="cls-36" points="1446.62 323.03 1444.25 327.75 1439.51 325.43 1441.87 320.7 1446.62 323.03"/><polygon class="cls-36" points="1469.42 319.26 1467.06 323.99 1462.31 321.66 1464.68 316.93 1469.42 319.26"/><polygon class="cls-36" points="1419.56 307.21 1417.19 311.94 1412.45 309.62 1414.82 304.89 1419.56 307.21"/><polygon class="cls-36" points="1310.43 339.12 1308.06 343.85 1303.31 341.52 1305.68 336.79 1310.43 339.12"/><polygon class="cls-36" points="1297.04 362.15 1294.68 366.88 1289.93 364.56 1292.3 359.83 1297.04 362.15"/><polygon class="cls-36" points="1326.97 378 1324.6 382.72 1319.85 380.4 1322.22 375.67 1326.97 378"/><polygon class="cls-36" points="1350 310.06 1347.63 314.79 1342.88 312.46 1345.26 307.73 1350 310.06"/><polygon class="cls-36" points="1382.4 295.2 1380.03 299.93 1375.29 297.6 1377.65 292.88 1382.4 295.2"/><polygon class="cls-36" points="1329.14 321.02 1326.77 325.75 1322.02 323.43 1324.39 318.7 1329.14 321.02"/><polygon class="cls-36" points="1433.04 295.3 1430.68 300.03 1425.93 297.7 1428.3 292.98 1433.04 295.3"/><polygon class="cls-36" points="1409.67 352.54 1406.12 359.63 1398.99 356.14 1402.55 349.05 1409.67 352.54"/><polygon class="cls-36" points="1392.16 328.24 1388.61 335.33 1381.48 331.84 1385.04 324.75 1392.16 328.24"/><polygon class="cls-36" points="1404.99 301.33 1401.44 308.42 1394.32 304.93 1397.87 297.84 1404.99 301.33"/><polygon class="cls-36" points="1428.01 318.77 1424.46 325.86 1417.33 322.38 1420.89 315.28 1428.01 318.77"/><polygon class="cls-36" points="1447.97 303.52 1444.41 310.62 1437.29 307.13 1440.85 300.04 1447.97 303.52"/><polygon class="cls-36" points="1441.22 340.3 1437.66 347.39 1430.54 343.9 1434.1 336.81 1441.22 340.3"/><polygon class="cls-36" points="1309.19 374.65 1305.63 381.74 1298.51 378.25 1302.07 371.16 1309.19 374.65"/><g id="Layer_6" data-name="Layer 6"><path d="M1648,635a74.81,74.81,0,0,1-63.23-84.67l4.94.72A69.75,69.75,0,0,0,1690,623.4l2.24,4.45A74.08,74.08,0,0,1,1648,635Z"/><circle class="cls-37" cx="1645.41" cy="573.81" r="17.78"/><path d="M1642.76,592a18.41,18.41,0,1,1,20.86-15.57A18.43,18.43,0,0,1,1642.76,592Zm5.11-35.2a17.16,17.16,0,1,0,14.52,19.45A17.18,17.18,0,0,0,1647.87,556.83Z"/><path class="cls-37" d="M1643.7,585.57a12.79,12.79,0,0,1-10.82-14.49"/><path d="M1643.66,585.81a13.05,13.05,0,0,1-11-14.77l.5.07a12.54,12.54,0,0,0,10.61,14.21Z"/><circle class="cls-37" cx="1645.41" cy="573.81" r="6.73"/><path d="M1644.4,580.71a7,7,0,1,1,7.91-5.9A7,7,0,0,1,1644.4,580.71Zm1.94-13.31a6.48,6.48,0,1,0,5.48,7.34A6.49,6.49,0,0,0,1646.34,567.4Z"/><path d="M1645,576.68a2.53,2.53,0,0,1-2.14-2.86l.49.07a2,2,0,0,0,4,.58l.49.08A2.53,2.53,0,0,1,1645,576.68Z"/><path d="M1771.86,653a74.13,74.13,0,0,1-40.42-19.48l3.42-3.63a69.75,69.75,0,0,0,116.76-40.8l4.93.71A74.8,74.8,0,0,1,1771.86,653Z"/><circle class="cls-37" cx="1791.71" cy="595.05" r="17.78"/><path d="M1789.07,613.26a18.41,18.41,0,1,1,20.86-15.57A18.43,18.43,0,0,1,1789.07,613.26Zm5.11-35.2a17.16,17.16,0,1,0,14.51,19.45A17.18,17.18,0,0,0,1794.18,578.06Z"/><path class="cls-37" d="M1790,606.8A12.78,12.78,0,0,0,1804.5,596"/><path d="M1790,607.05l.07-.49A12.56,12.56,0,0,0,1804.25,596l.5.07A13.06,13.06,0,0,1,1790,607.05Z"/><circle class="cls-37" cx="1791.71" cy="595.05" r="6.73"/><path d="M1790.71,602a7,7,0,1,1,7.91-5.9A7,7,0,0,1,1790.71,602Zm1.93-13.32a6.48,6.48,0,1,0,5.49,7.35A6.48,6.48,0,0,0,1792.64,588.63Z"/><path d="M1791.3,597.92a2.54,2.54,0,0,1-2.14-2.87l.49.07a2,2,0,0,0,4,.59l.49.07A2.53,2.53,0,0,1,1791.3,597.92Z"/></g></g></svg>
