<svg id="Layer_1" data-name="Layer 1" xmlns="http://www.w3.org/2000/svg" viewBox="0 0 396.85 198.43"><defs><style>.cls-1,.cls-2,.cls-4{fill:#bb9084;}.cls-1,.cls-4,.cls-5,.cls-6{stroke:#262424;stroke-miterlimit:10;}.cls-3{fill:#262424;}.cls-4,.cls-5,.cls-6{stroke-width:0.75px;}.cls-5{fill:none;}.cls-6{fill:#282e60;}.cls-7{fill:#e7ad4a;}.cls-8{fill:#f5ec49;}.cls-9{fill:#fff;}.cls-10{fill:#9c7a52;}.cls-11{fill:#5aa59b;}</style></defs><title>politimand</title><path class="cls-1" d="M85,98.59C85.88,97.74,84,87.73,84,87.73l23-1.46s1.48,10.2.85,12.32"/><path class="cls-1" d="M107.93,96.25l4.51,1.28c-3.4,10.62-15.3,9.35-15.3,9.35s-11,1.49-15.94-9.14l3.91-2.58"/><path class="cls-2" d="M85.22,98.8a27.54,27.54,0,0,0-.11-4.89"/><path class="cls-3" d="M85.85,98.8a30.73,30.73,0,0,0-.11-4.89c-.08-.79-1.33-.8-1.25,0a30.73,30.73,0,0,1,.11,4.89c0,.81,1.2.8,1.25,0Z"/><path class="cls-3" d="M108.6,99.23v-4a.63.63,0,0,0-1.25,0v4a.63.63,0,0,0,1.25,0Z"/><path class="cls-4" d="M75.59,157.11l-2.14,20.22H67c-8.17-2.92-11.86-12.64-11.86-12.64L33.4,149.53c-5.83-1.17-6.41-8.77-6.41-8.77-7.39-7.6,10.69-20,10.69-20l14.19,9.53s-5.44,6.42-7,6.42c0,0,14.39,19.83,14,22,0,0,9.82-6,14.05-2.92S75.59,157.11,75.59,157.11Z"/><path class="cls-5" d="M35.09,134s8.1.37,9.78,2.73"/><path class="cls-4" d="M67.81,173.44s4.09,2.33,5.64,1.36"/><path class="cls-4" d="M70.63,158.86s3.4,1.36,4.38.78"/><path class="cls-4" d="M117.45,157.11l2.14,20.22H126c8.16-2.92,11.86-12.64,11.86-12.64l21.77-15.16c5.83-1.17,6.42-8.77,6.42-8.77,7.39-7.6-10.69-20-10.69-20l-14.2,9.53s5.45,6.42,7,6.42c0,0-14.39,19.83-14,22,0,0-9.82-6-14-2.92S117.45,157.11,117.45,157.11Z"/><path class="cls-5" d="M158,134s-8.09.37-9.78,2.73"/><path class="cls-4" d="M125.23,173.44s-4.08,2.33-5.64,1.36"/><path class="cls-4" d="M122.41,158.86s-3.4,1.36-4.37.78"/><path class="cls-6" d="M122,179.34c-26.35,15.72-51,0-51,0l1.92-23.59c-2.77-2.33-8.5-33.78-8.5-33.78L49.33,136.63c-9.56-1.28-14.24-17.85-14.24-17.85C51,106.24,52.31,107,52.31,107c8.5-6.3,27.41-11.76,27.41-11.76l1.48,2.55s16.58,20.19,31.24-.21l1.06-1.17s21,4.78,22.32,5.84a118.18,118.18,0,0,1,21.67,16.37s.21,13-14.24,17.85L128.59,122.6s-5.31,30.18-8.07,32.94Z"/><path d="M116.92,111.83a15.36,15.36,0,0,1,1.22,1.2c.43.5.91.94,1.36,1.41.16.18.16.21,0,.39a4.65,4.65,0,0,0-.73,1,3.44,3.44,0,0,0-.36,1.36c0,.09,0,.19-.06.26s0,.1,0,.15a7.27,7.27,0,0,0,.38,1.63,11.86,11.86,0,0,1,.76,1.75c.08.3.16.59.22.9a4.22,4.22,0,0,1,.06,1.12,4,4,0,0,1-.34,1.48,5.76,5.76,0,0,1-.52,1,6.47,6.47,0,0,1-1.45,1.46,7.8,7.8,0,0,1-1.43.68c-.14.06-.31,0-.43.1a4.3,4.3,0,0,0-2,.88,8.37,8.37,0,0,0-1,.9c-.15.15-.21.16-.38,0a3.15,3.15,0,0,1-.36-.37,5,5,0,0,0-1.4-1,3.89,3.89,0,0,0-1.14-.41,5.18,5.18,0,0,1-2.25-1,5.24,5.24,0,0,1-.92-1,4.7,4.7,0,0,1-.54-.85,5,5,0,0,1-.49-1.54,5.33,5.33,0,0,1-.06-1,5.07,5.07,0,0,1,.39-1.7c.24-.55.5-1.09.74-1.64a2.11,2.11,0,0,0,.22-.86.59.59,0,0,1,.07-.41s0-.13,0-.19a4.91,4.91,0,0,0-.55-1.95,4.48,4.48,0,0,0-.61-.82c-.15-.15-.15-.21,0-.36l2.33-2.4a3.08,3.08,0,0,1,.27-.24h.16l.41.29a3.35,3.35,0,0,0,1.67.58,3.05,3.05,0,0,0,.6-.06,3.13,3.13,0,0,0,1.23-.48c.14-.08.26-.24.42-.24s.28.15.41.24a3.63,3.63,0,0,0,1.6.54c.29,0,.55-.11.84-.08.08-.16.26-.06.39-.12a5.73,5.73,0,0,0,1.08-.67Zm-11.27,10.93a3.53,3.53,0,0,0,.17,1.17,4.51,4.51,0,0,0,1.12,1.92,6.28,6.28,0,0,0,.67.59,3.92,3.92,0,0,0,1,.55,6.85,6.85,0,0,0,1.26.32,7.76,7.76,0,0,1,1.42.7,4.39,4.39,0,0,1,.94.78c.14.15.21.15.35,0a3.38,3.38,0,0,1,.54-.53,10.07,10.07,0,0,1,1.28-.73,8,8,0,0,1,1-.32,4.85,4.85,0,0,0,1.11-.38,9.45,9.45,0,0,0,.86-.53,4.23,4.23,0,0,0,1.16-1.3,4.57,4.57,0,0,0,.65-2.31c0-.25,0-.48-.07-.72a3.82,3.82,0,0,0-.2-.84c-.21-.52-.46-1-.7-1.53a6,6,0,0,1-.47-2,3.08,3.08,0,0,1,.08-.53,3.12,3.12,0,0,1,.08-.52,5,5,0,0,1,.46-1.23c.15-.22.28-.45.43-.66,0-.06.06-.08,0-.14l-2-2c-.09-.08-.13-.07-.23,0a3.81,3.81,0,0,1-1.16.53,3.39,3.39,0,0,1-.71.11,3.9,3.9,0,0,1-.76-.06,3.71,3.71,0,0,1-1.51-.58c-.06,0-.08,0-.14,0a4,4,0,0,1-1.17.53,3.39,3.39,0,0,1-.71.11,3.43,3.43,0,0,1-.84-.06,4.27,4.27,0,0,1-1.4-.55c-.16-.11-.16-.11-.3,0l-1.83,1.82c-.17.18-.16.17,0,.39a2.45,2.45,0,0,1,.56,1,3.31,3.31,0,0,1,.38,1.54,3,3,0,0,1-.07,1.07,2.63,2.63,0,0,1-.15.53c-.08.17-.16.33-.23.5s-.12.35-.2.51c-.17.38-.38.75-.51,1.14A4.5,4.5,0,0,0,105.65,122.76Z"/><path class="cls-7" d="M105.65,122.76a4.5,4.5,0,0,1,.25-1.55c.13-.39.34-.76.51-1.14.08-.16.13-.34.2-.51s.15-.33.23-.5a2.63,2.63,0,0,0,.15-.53,3,3,0,0,0,.07-1.07,3.31,3.31,0,0,0-.38-1.54,2.45,2.45,0,0,0-.56-1c-.16-.22-.17-.21,0-.39l1.83-1.82c.14-.14.14-.14.3,0a4.27,4.27,0,0,0,1.4.55,3.43,3.43,0,0,0,.84.06,3.39,3.39,0,0,0,.71-.11,4,4,0,0,0,1.17-.53c.06,0,.08,0,.14,0a3.71,3.71,0,0,0,1.51.58,3.9,3.9,0,0,0,.76.06,3.39,3.39,0,0,0,.71-.11,3.81,3.81,0,0,0,1.16-.53c.1-.07.14-.08.23,0l2,2c.06.06,0,.08,0,.14-.15.21-.28.44-.43.66a5,5,0,0,0-.46,1.23,3.12,3.12,0,0,0-.08.52,3.08,3.08,0,0,0-.08.53,6,6,0,0,0,.47,2c.24.5.49,1,.7,1.53a3.82,3.82,0,0,1,.2.84c0,.24.07.47.07.72a4.57,4.57,0,0,1-.65,2.31,4.23,4.23,0,0,1-1.16,1.3,9.45,9.45,0,0,1-.86.53,4.85,4.85,0,0,1-1.11.38,8,8,0,0,0-1,.32,10.07,10.07,0,0,0-1.28.73,3.38,3.38,0,0,0-.54.53c-.14.14-.21.14-.35,0a4.39,4.39,0,0,0-.94-.78,7.76,7.76,0,0,0-1.42-.7,6.85,6.85,0,0,1-1.26-.32,3.92,3.92,0,0,1-1-.55,6.28,6.28,0,0,1-.67-.59,4.51,4.51,0,0,1-1.12-1.92A3.53,3.53,0,0,1,105.65,122.76Zm12.94-.09a2.64,2.64,0,0,0,0-.63,4.54,4.54,0,0,0-.23-.74c-.12-.23-.19-.48-.31-.71-.21-.4-.37-.82-.54-1.24a3,3,0,0,1-.25-1,6.81,6.81,0,0,1,.13-2A6.35,6.35,0,0,1,118,115a.3.3,0,0,0,0-.41c-.06-.07-.1-.16-.15-.21-.28-.32-.59-.61-.89-.91,0,0-.1,0-.14-.06s-.1,0-.16,0a4.36,4.36,0,0,1-.89.33,6.51,6.51,0,0,1-1.16.18c-.15,0-.3-.07-.44-.07a3,3,0,0,1-1.32-.38.7.7,0,0,0-.7,0,5.24,5.24,0,0,1-.94.33c-.28.1-.57-.06-.82.12a.29.29,0,0,1-.16,0,2.06,2.06,0,0,0-.32-.07,4,4,0,0,1-1.47-.4.34.34,0,0,0-.43,0,10.37,10.37,0,0,0-1.06,1.14.26.26,0,0,0,0,.32,3.2,3.2,0,0,1,.48,1,3.87,3.87,0,0,1,.26,1,7,7,0,0,1-.05,1.71,6.69,6.69,0,0,1-.31,1c-.21.53-.47,1-.69,1.57a3.11,3.11,0,0,0-.29,1.28c0,.21,0,.42,0,.63a3.47,3.47,0,0,0,.11.63,3.34,3.34,0,0,0,.67,1.31c0,.13.1.12.17.16a.23.23,0,0,0,.32-.17c0-.18,0-.36-.18-.48a.69.69,0,0,1-.14-.22,3.74,3.74,0,0,1-.39-2,2.22,2.22,0,0,1,.16-.73c.24-.52.48-1,.71-1.57a4.88,4.88,0,0,0,.47-1.91c0-.13-.06-.29.08-.4-.14-.13-.06-.3-.08-.44a4.76,4.76,0,0,0-.06-.65,7.14,7.14,0,0,0-.5-1.5c0-.09-.14-.19-.13-.26s.14-.17.22-.25l.53-.54s0,0,.11,0a3.93,3.93,0,0,0,1,.28,6.64,6.64,0,0,0,1,.15c.15,0,.3-.06.44-.07a4.24,4.24,0,0,0,1.48-.37.52.52,0,0,1,.37,0,3.65,3.65,0,0,0,1,.31,6.68,6.68,0,0,0,.78.13,1.35,1.35,0,0,0,.57,0c.2-.08.43,0,.59-.12a2.63,2.63,0,0,0,.92-.26s.06-.06.12,0c.24.25.48.49.73.73.05,0,0,.07,0,.12a7.78,7.78,0,0,0-.46,1.16,4,4,0,0,0-.2,1.14,1,1,0,0,1-.05.52c.12.16,0,.35.05.53a5.28,5.28,0,0,0,.1.71c.07.25.13.5.22.74s.21.5.32.74.27.56.4.83a4.48,4.48,0,0,1,.27.88,8,8,0,0,1,0,1.09c-.15.2-.13.45-.22.67a4,4,0,0,1-.33.65,3.2,3.2,0,0,1-1.37,1.23,5.16,5.16,0,0,1-1,.35,7.4,7.4,0,0,0-1.6.56c-.18.09-.36.21-.54.32s-.34.25-.52.38l-.54-.38a7,7,0,0,0-1.31-.66,5.53,5.53,0,0,0-1-.28,3.38,3.38,0,0,1-1.35-.58.84.84,0,0,0-.38-.21c-.08,0-.22.1-.26.19a.22.22,0,0,0,0,.28l.33.26a3.22,3.22,0,0,0,1.09.52,9.83,9.83,0,0,1,1,.25,5.49,5.49,0,0,1,1.31.59,7.67,7.67,0,0,1,.77.54c.19.19.35.18.56,0a3,3,0,0,1,.26-.24,7,7,0,0,1,1.85-.9c.26-.08.53-.11.79-.18a3.37,3.37,0,0,0,1.17-.54,4.3,4.3,0,0,0,1.33-1.45A3.66,3.66,0,0,0,118.59,122.67Zm-6.1.75c-.2,0-.4,0-.6,0a1.53,1.53,0,0,1-.36-.07.93.93,0,0,0-.1,0,4.15,4.15,0,0,1-1-.55,3.23,3.23,0,0,1-.93-1.09,4.06,4.06,0,0,1-.33-1,3,3,0,0,1,0-1.39,2.78,2.78,0,0,1,.45-1,3.11,3.11,0,0,1,1.13-1.06,2.8,2.8,0,0,1,1.49-.42.64.64,0,0,0,.18-.06s.09,0,.1,0,.28,0,.41.07.21,0,.29.07c.24-.06.41.17.64.17s.32,0,.36-.12,0-.31-.11-.35-.43-.17-.65-.24a1.32,1.32,0,0,0-.33-.08c-.13,0-.28,0-.38,0a.66.66,0,0,0-.53,0c-.14,0-.27,0-.41.07a2.88,2.88,0,0,0-.51.1,4.1,4.1,0,0,0-2.1,1.54,3.68,3.68,0,0,0-.69,2.13,5.54,5.54,0,0,0,.07.81,3.7,3.7,0,0,0,.81,1.8,3.88,3.88,0,0,0,1.35,1,4.73,4.73,0,0,0,1.77.42c.16,0,.32-.07.48-.07a3.27,3.27,0,0,0,.62-.14,4.57,4.57,0,0,0,.87-.4,2,2,0,0,0,.55-.39,5.74,5.74,0,0,0,.7-.78,4.39,4.39,0,0,0,.55-1.28,3.09,3.09,0,0,0,.08-.6,3.42,3.42,0,0,0,0-.64,3,3,0,0,0-.09-.67,5.75,5.75,0,0,0-.46-1.08,5.14,5.14,0,0,0-.91-1,.59.59,0,0,0-.14-.06s-.08,0-.1,0a.31.31,0,0,0-.11.51l.48.48a2.76,2.76,0,0,1,.6,1,3,3,0,0,1,.19,1.24,3.75,3.75,0,0,1-.35,1.37,3.24,3.24,0,0,1-.35.53,2.88,2.88,0,0,1-1,.89A2.77,2.77,0,0,1,112.49,123.42Zm1.82-1.39a2.52,2.52,0,0,1-.08-.44,2.33,2.33,0,0,1,0-.59c0-.12-.19-.15-.06-.28a1.89,1.89,0,0,0,.2-.27c.09-.1.19-.18.28-.28s.38-.42.56-.64a.31.31,0,0,0-.16-.48,9.24,9.24,0,0,0-1-.24c-.26,0-.56-.08-.68-.36s-.38-.6-.54-.92a.93.93,0,0,0-.25-.33.17.17,0,0,0-.27,0,.92.92,0,0,0-.14.14c-.24.39-.49.77-.69,1.18a.35.35,0,0,1-.21.18,6.3,6.3,0,0,1-.75.18c-.1,0-.2,0-.3.07s-.2,0-.32.08-.3.12-.27.36a.37.37,0,0,0,.11.19c.27.31.55.62.84.92.11.13.22.29.15.44a1.83,1.83,0,0,0-.07.65c0,.09,0,.21,0,.27s-.06.33-.06.49a.27.27,0,0,0,.39.22c.37-.15.73-.33,1.11-.46.19-.07.38-.2.63-.06s.8.35,1.2.54a.24.24,0,0,0,.28,0C114.35,122.42,114.29,122.26,114.31,122Z"/><path class="cls-8" d="M118.59,122.67a3.66,3.66,0,0,1-.47,1.91,4.3,4.3,0,0,1-1.33,1.45,3.37,3.37,0,0,1-1.17.54c-.26.07-.53.1-.79.18a7,7,0,0,0-1.85.9,3,3,0,0,0-.26.24c-.21.18-.37.19-.56,0a7.67,7.67,0,0,0-.77-.54,5.49,5.49,0,0,0-1.31-.59,9.83,9.83,0,0,0-1-.25A3.22,3.22,0,0,1,108,126l-.33-.26a.22.22,0,0,1,0-.28c0-.09.18-.21.26-.19a.84.84,0,0,1,.38.21,3.38,3.38,0,0,0,1.35.58,5.53,5.53,0,0,1,1,.28,7,7,0,0,1,1.31.66l.54.38c.18-.13.34-.26.52-.38s.36-.23.54-.32a7.4,7.4,0,0,1,1.6-.56,5.16,5.16,0,0,0,1-.35,3.2,3.2,0,0,0,1.37-1.23,4,4,0,0,0,.33-.65c.09-.22.07-.47.22-.67a8,8,0,0,0,0-1.09,4.48,4.48,0,0,0-.27-.88c-.13-.27-.27-.55-.4-.83s-.22-.49-.32-.74-.15-.49-.22-.74a5.28,5.28,0,0,1-.1-.71c0-.18.07-.37-.05-.53a1,1,0,0,0,.05-.52,4,4,0,0,1,.2-1.14,7.78,7.78,0,0,1,.46-1.16c0-.05.06-.07,0-.12-.25-.24-.49-.48-.73-.73-.06,0-.07,0-.12,0a2.63,2.63,0,0,1-.92.26c-.16.17-.39,0-.59.12a1.35,1.35,0,0,1-.57,0,6.68,6.68,0,0,1-.78-.13,3.65,3.65,0,0,1-1-.31.52.52,0,0,0-.37,0,4.24,4.24,0,0,1-1.48.37c-.14,0-.29.07-.44.07a6.64,6.64,0,0,1-1-.15,3.93,3.93,0,0,1-1-.28c-.06,0-.08,0-.11,0l-.53.54c-.08.08-.19.16-.22.25s.09.17.13.26a7.14,7.14,0,0,1,.5,1.5,4.76,4.76,0,0,1,.06.65c0,.14-.06.31.08.44-.14.11-.07.27-.08.4a4.88,4.88,0,0,1-.47,1.91c-.23.53-.47,1-.71,1.57a2.22,2.22,0,0,0-.16.73,3.74,3.74,0,0,0,.39,2,.69.69,0,0,0,.14.22c.2.12.18.3.18.48a.23.23,0,0,1-.32.17c-.07,0-.19,0-.17-.16a3.34,3.34,0,0,1-.67-1.31,3.47,3.47,0,0,1-.11-.63c0-.21,0-.42,0-.63a3.11,3.11,0,0,1,.29-1.28c.22-.53.48-1,.69-1.57a6.69,6.69,0,0,0,.31-1,7,7,0,0,0,.05-1.71,3.87,3.87,0,0,0-.26-1,3.2,3.2,0,0,0-.48-1,.26.26,0,0,1,0-.32,10.37,10.37,0,0,1,1.06-1.14.34.34,0,0,1,.43,0,4,4,0,0,0,1.47.4,2.06,2.06,0,0,1,.32.07.29.29,0,0,0,.16,0c.25-.18.54,0,.82-.12a5.24,5.24,0,0,0,.94-.33.7.7,0,0,1,.7,0,3,3,0,0,0,1.32.38c.14,0,.29.07.44.07a6.51,6.51,0,0,0,1.16-.18,4.36,4.36,0,0,0,.89-.33c.06,0,.1-.06.16,0s.1,0,.14.06c.3.3.61.59.89.91,0,0,.09.14.15.21a.3.3,0,0,1,0,.41,6.35,6.35,0,0,0-.58,1.38,6.81,6.81,0,0,0-.13,2,3,3,0,0,0,.25,1c.17.42.33.84.54,1.24.12.23.19.48.31.71a4.54,4.54,0,0,1,.23.74A2.64,2.64,0,0,1,118.59,122.67Z"/><path class="cls-8" d="M112.49,123.42a2.77,2.77,0,0,0,1.65-.43,2.88,2.88,0,0,0,1-.89,3.24,3.24,0,0,0,.35-.53,3.75,3.75,0,0,0,.35-1.37,3,3,0,0,0-.19-1.24,2.76,2.76,0,0,0-.6-1l-.48-.48a.31.31,0,0,1,.11-.51s.07,0,.1,0a.59.59,0,0,1,.14.06,5.14,5.14,0,0,1,.91,1,5.75,5.75,0,0,1,.46,1.08,3,3,0,0,1,.09.67,3.42,3.42,0,0,1,0,.64,3.09,3.09,0,0,1-.08.6,4.39,4.39,0,0,1-.55,1.28,5.74,5.74,0,0,1-.7.78,2,2,0,0,1-.55.39,4.57,4.57,0,0,1-.87.4,3.27,3.27,0,0,1-.62.14c-.16,0-.32.08-.48.07a4.73,4.73,0,0,1-1.77-.42,3.88,3.88,0,0,1-1.35-1,3.7,3.7,0,0,1-.81-1.8,5.54,5.54,0,0,1-.07-.81,3.68,3.68,0,0,1,.69-2.13,4.1,4.1,0,0,1,2.1-1.54,2.88,2.88,0,0,1,.51-.1c.14,0,.27,0,.41-.07a.66.66,0,0,1,.53,0c.1.06.25,0,.38,0a1.32,1.32,0,0,1,.33.08c.22.07.43.15.65.24s.15.25.11.35-.22.13-.36.12-.4-.23-.64-.17c-.08-.11-.19,0-.29-.07s-.29.06-.41-.07-.07,0-.1,0a.64.64,0,0,1-.18.06,2.8,2.8,0,0,0-1.49.42,3.11,3.11,0,0,0-1.13,1.06,2.78,2.78,0,0,0-.45,1,3,3,0,0,0,0,1.39,4.06,4.06,0,0,0,.33,1,3.23,3.23,0,0,0,.93,1.09,4.15,4.15,0,0,0,1,.55.93.93,0,0,1,.1,0,1.53,1.53,0,0,0,.36.07C112.09,123.43,112.29,123.42,112.49,123.42Z"/><path class="cls-8" d="M114.31,122c0,.23,0,.39-.12.52a.24.24,0,0,1-.28,0c-.4-.19-.82-.33-1.2-.54s-.44,0-.63.06c-.38.13-.74.31-1.11.46a.27.27,0,0,1-.39-.22c0-.16-.07-.33.06-.49s0-.18,0-.27a1.83,1.83,0,0,1,.07-.65c.07-.15,0-.31-.15-.44-.29-.3-.57-.61-.84-.92a.37.37,0,0,1-.11-.19c0-.24,0-.23.27-.36s.25,0,.32-.08.2,0,.3-.07a6.3,6.3,0,0,0,.75-.18.35.35,0,0,0,.21-.18c.2-.41.45-.79.69-1.18a.92.92,0,0,1,.14-.14.17.17,0,0,1,.27,0,.93.93,0,0,1,.25.33c.16.32.39.6.54.92s.42.32.68.36a9.24,9.24,0,0,1,1,.24.31.31,0,0,1,.16.48c-.18.22-.37.43-.56.64s-.19.18-.28.28a1.89,1.89,0,0,1-.2.27c-.13.13.08.16.06.28a2.33,2.33,0,0,0,0,.59A2.52,2.52,0,0,0,114.31,122Zm-3.1-.57v.17c0,.22,0,.25.24.15l.87-.38a.31.31,0,0,1,.21,0c.22.09.42.2.63.3l.41.16a.15.15,0,0,0,.09,0,5.57,5.57,0,0,0,0-.82c0-.18-.1-.35,0-.51s.36-.41.53-.61.17-.22.25-.34,0-.06,0-.06c-.33,0-.65-.16-1-.23a.53.53,0,0,1-.41-.28,7.75,7.75,0,0,1-.46-.79c0-.1-.1-.08-.17,0a5.48,5.48,0,0,0-.46.72c-.12.17-.21.33-.45.36a6.33,6.33,0,0,0-.75.19l-.29.06a1.22,1.22,0,0,1,.2.25c.09.23.3.35.45.52a.83.83,0,0,1,.2.48C111.32,121,111.15,121.22,111.21,121.46Z"/><path class="cls-7" d="M111.21,121.46c-.06-.24.11-.48.08-.74a.83.83,0,0,0-.2-.48c-.15-.17-.36-.29-.45-.52a1.22,1.22,0,0,0-.2-.25l.29-.06a6.33,6.33,0,0,1,.75-.19c.24,0,.33-.19.45-.36a5.48,5.48,0,0,1,.46-.72c.07-.07.12-.09.17,0a7.75,7.75,0,0,0,.46.79.53.53,0,0,0,.41.28c.32.07.64.19,1,.23,0,0,0,0,0,.06s-.16.23-.25.34-.36.4-.53.61-.05.33,0,.51a5.57,5.57,0,0,1,0,.82.15.15,0,0,1-.09,0l-.41-.16c-.21-.1-.41-.21-.63-.3a.31.31,0,0,0-.21,0l-.87.38c-.2.1-.24.07-.24-.15Z"/><path class="cls-1" d="M81.37,11.16s22.83-.52,29.76,14.37c0,0,5.65,3.59,6.42,19.24,0,0-.52,7.19,0,7.95,0,0,2.82,3.6,2.31,13.09,0,0,.77,5.9-1,9.75,0,0-11.29,18.73-20,20.53,0,0-14.89,0-27.2-9.38,0,0-8-15.25-7.44-18.08,0,0-8-22.83-5.9-29.5C58.28,39.13,59.82,15.78,81.37,11.16Z"/><path class="cls-1" d="M66.85,76.83c-3,1.27-5.91-3.46-5.91-3.46-2-1.68-3-7.56-3-7.56-3.16-9,3-7.65,3-7.65Z"/><path class="cls-1" d="M117.55,44.77s8-4.36,6.93,8.85c0,0,1.28,12.45-4.62,12.19Z"/><path class="cls-3" d="M99.35,93.35l-.56-2.89c-.15-.79-1.35-.46-1.2.33l.56,2.89c.15.79,1.36.46,1.2-.33Z"/><path class="cls-3" d="M58.66,61.51c.84.92,2.56.62,3,1.9.26.75,1.47.43,1.2-.33a2.74,2.74,0,0,0-1.39-1.63c-.62-.3-1.47-.3-2-.82s-1.42.29-.88.88Z"/><path class="cls-3" d="M64.39,71.18a5.87,5.87,0,0,1-.58-4.37c.13-.79-1.08-1.13-1.21-.34a7.28,7.28,0,0,0,.71,5.34c.44.68,1.52,0,1.08-.63Z"/><path class="cls-3" d="M120.35,46.41c-1.65.47-1.94,2.07-2.38,3.52-.24.77,1,1.1,1.2.33.29-.93.43-2.33,1.51-2.65a.62.62,0,0,0-.33-1.2Z"/><path class="cls-3" d="M118.43,53.06a7.28,7.28,0,0,1,1.72,2.72,9.84,9.84,0,0,1,.14,3.16c-.05.81,1.2.8,1.25,0a9.64,9.64,0,0,0-.31-3.89,9.71,9.71,0,0,0-1.91-2.88c-.53-.61-1.41.28-.89.89Z"/><path class="cls-9" d="M90.4,71.64c-.38.13-.59.19-.79.28a29.51,29.51,0,0,0-3.15,1.39,4.83,4.83,0,0,0-2.59,4.9A12.35,12.35,0,0,0,85.52,83c.06.11.22.16.33.24,0-.14.14-.31.09-.41a4,4,0,0,1-.17-2.56A4.29,4.29,0,0,1,88.21,77c.7-.32,1.46-.52,2.18-.81A5.49,5.49,0,0,0,93.51,74c.2-.36.46-.2.72-.16,1,.13,2,.29,3,.36s2,0,3,0A4.65,4.65,0,0,1,105,77.5c.1.29.15.61.27.89a2.15,2.15,0,0,0,.37.5c.13-.19.36-.37.36-.55,0-.87,0-1.75-.09-2.61-.24-3-1.95-4.6-4.72-5.31A11.89,11.89,0,0,0,96,70.19c.17-.59.52-.65,1-.61a10.35,10.35,0,0,0,1.67,0,1.3,1.3,0,0,0,1.2-1.12,4.17,4.17,0,0,0-.63-3.3,2.14,2.14,0,0,0-1-.68.77.77,0,0,0-.7.22c-.18.3,0,.53.37.69a2.46,2.46,0,0,1,1,2.81,1.73,1.73,0,0,1-1,.46c-.14,0-.43-.17-.5-.33-.31-.69-.6-.78-1.11-.22s-.85,1.08-1.27,1.62a3,3,0,0,1-3.64,1.1c-.44-.15-.85-.38-1.29-.53a6.89,6.89,0,0,0-1.54-.36,1.1,1.1,0,0,0-.74.37c-.45.52-.86.55-1.1-.07a7.67,7.67,0,0,1-.37-1.8c-.06-.34,0-.7-.07-1s-.34-.32-.54-.37-.34.27-.33.42a14,14,0,0,0,.2,2.6c.34,1.53,1.58,2,2.91,1.14a1.16,1.16,0,0,1,.82-.1A5.75,5.75,0,0,1,90.4,71.64Zm10.75-35.52a10.07,10.07,0,0,0-7.27,2.53,6.45,6.45,0,0,0-1.81,2.57c-.35.92.13,1.6,1.1,1.47a3.63,3.63,0,0,0,1.47-.51,21.47,21.47,0,0,0,2.08-1.58,6.93,6.93,0,0,1,3.79-1.66c1.15-.1,2.3-.08,3.45-.13a2.15,2.15,0,0,1,2.23,1.48,1,1,0,0,0,1.42.63c.52-.25.6-.68.26-1.45a5,5,0,0,0-2.6-2.57A9.25,9.25,0,0,0,101.15,36.12ZM73,47.12a6.52,6.52,0,0,0-5.77,3,3,3,0,0,0-.38.94.93.93,0,0,0,.68,1.09c.5.2.82,0,1-.5a7,7,0,0,1,.36-.66,2.59,2.59,0,0,1,2.65-1.54,23.63,23.63,0,0,1,3.54.72c1.88.54,3.72,1.23,5.6,1.77a3.58,3.58,0,0,0,1.72,0,1.48,1.48,0,0,0,1.27-1.6,1.69,1.69,0,0,0-1.43-1.62,5.77,5.77,0,0,0-1.76-.08,5.91,5.91,0,0,1-3.08-.41A11.11,11.11,0,0,0,73,47.12Zm24.52,6.94a21.1,21.1,0,0,0,6.37-1.23,12.41,12.41,0,0,0,2.17-1,3.42,3.42,0,0,0,1.52-2c.07-.22,0-.66-.14-.72a18.91,18.91,0,0,0-3.15-1.35,12.42,12.42,0,0,0-5.29,0c-2.42.42-4.48,1.39-5.32,4a.85.85,0,0,1-.13.25c-.4.65-.38.75.27,1.15A7.27,7.27,0,0,0,97.54,54.06ZM76.2,58.7c1.2-.11,2.17-.14,3.12-.29A9.71,9.71,0,0,0,85,55.62,1.08,1.08,0,0,0,85.13,54a3.68,3.68,0,0,0-3-1.74,15.09,15.09,0,0,0-8.72,2.25,10.35,10.35,0,0,0-2.31,2.27c-.64.78-.43,1.24.55,1.38C73.21,58.36,74.82,58.53,76.2,58.7ZM88.89,79.1a2.48,2.48,0,0,1,0-.33c0-.35,0-.69-.42-.67a.74.74,0,0,0-.49.51,7.14,7.14,0,0,0-.1,1.84,1.23,1.23,0,0,0,.53.81c.2.13.55,0,.84,0l-.12-.73c0-.14-.08-.36,0-.39,1.47-.91,2.83-2.07,4.75-1.9a3.1,3.1,0,0,0,1.7-.34,6.17,6.17,0,0,1,3.87-.72,12.48,12.48,0,0,0,1.49.07c.55,0,.94,0,.62.73-.12.29-.12.69.3.72.19,0,.5-.24.59-.45a2.47,2.47,0,0,0-.76-3.09c-.33-.27-.72-.86-1.16-.32s.23.71.51,1a1.72,1.72,0,0,1,.22.37,1.6,1.6,0,0,1-.42.1c-1,0-2-.13-3-.17a4.42,4.42,0,0,0-2.32.57,4,4,0,0,1-1.68.44,6.62,6.62,0,0,0-3.52,1.07Zm2.29-27.88a13.69,13.69,0,0,0,1.35,4,31.83,31.83,0,0,1,1.13,3.42c.33,1.16.56,2.35.87,3.52.08.31.27.71.71.52s.27-.52.17-.87a21.59,21.59,0,0,1-.64-2.61,13.14,13.14,0,0,0-1.19-4.1,22,22,0,0,1-1.19-2.72,7.36,7.36,0,0,1-.25-1.56c0-.38-.14-.73-.59-.62-.16,0-.26.39-.36.61S91.18,51,91.18,51.22Zm-4.79,5.06c.11,1.08.2,2.16.33,3.23.17,1.39.35,2.77.56,4.15,0,.21.28.39.42.59.17-.18.48-.35.49-.54a8.56,8.56,0,0,0-.07-2,29.06,29.06,0,0,1-.71-6.84,11.69,11.69,0,0,0-.5-2.83c-.08-.36-.35-.58-.68-.37a.76.76,0,0,0-.2.69A7.53,7.53,0,0,1,86.39,56.28Zm7,25.52c.78-.08,1.37-.12,2-.21a6,6,0,0,0,3.52-1.53c.25-.25.52-.53.23-.88s-.59-.1-.85.14a4.79,4.79,0,0,1-2.47,1.23,6.37,6.37,0,0,1-3.57,0c-.18-.07-.47.13-.71.21.13.22.2.56.39.63A12.14,12.14,0,0,0,93.34,81.8ZM87.5,46.4c-.23-.69-.47-1.45-.76-2.19,0-.1-.29-.12-.44-.18a1.71,1.71,0,0,0,0,.4c.11.29.28.56.38.86a4.88,4.88,0,0,1-.18,3.2,2.53,2.53,0,0,0,0,.73c.16-.2.41-.38.47-.61C87.18,47.93,87.31,47.23,87.5,46.4Zm.7-1.23a2.8,2.8,0,0,0-.22.49,2.34,2.34,0,0,0,1.35,2.24,1,1,0,0,0,.34,0c0-.13,0-.33-.12-.38a2.17,2.17,0,0,1-1.15-1.88A2.19,2.19,0,0,0,88.2,45.17Z"/><path d="M90.4,71.64a5.75,5.75,0,0,0-1.07-.55,1.16,1.16,0,0,0-.82.1c-1.33.82-2.57.39-2.91-1.14a14,14,0,0,1-.2-2.6c0-.15.25-.44.33-.42s.49.2.54.37,0,.68.07,1a7.67,7.67,0,0,0,.37,1.8c.24.62.65.59,1.1.07a1.1,1.1,0,0,1,.74-.37,6.89,6.89,0,0,1,1.54.36c.44.15.85.38,1.29.53A3,3,0,0,0,95,69.71c.42-.54.81-1.12,1.27-1.62s.8-.47,1.11.22c.07.16.36.37.5.33a1.73,1.73,0,0,0,1-.46,2.46,2.46,0,0,0-1-2.81c-.37-.16-.55-.39-.37-.69a.77.77,0,0,1,.7-.22,2.14,2.14,0,0,1,1,.68,4.17,4.17,0,0,1,.63,3.3,1.3,1.3,0,0,1-1.2,1.12,10.35,10.35,0,0,1-1.67,0c-.48,0-.83,0-1,.61a11.89,11.89,0,0,1,5.15.23c2.77.71,4.48,2.36,4.72,5.31.07.86.1,1.74.09,2.61,0,.18-.23.36-.36.55a2.15,2.15,0,0,1-.37-.5c-.12-.28-.17-.6-.27-.89a4.65,4.65,0,0,0-4.79-3.3c-1,0-2,0-3,0s-2-.23-3-.36c-.26,0-.52-.2-.72.16a5.49,5.49,0,0,1-3.12,2.24c-.72.29-1.48.49-2.18.81a4.29,4.29,0,0,0-2.44,3.3,4,4,0,0,0,.17,2.56c0,.1,0,.27-.09.41-.11-.08-.27-.13-.33-.24a12.35,12.35,0,0,1-1.65-4.82,4.83,4.83,0,0,1,2.59-4.9,29.51,29.51,0,0,1,3.15-1.39C89.81,71.83,90,71.77,90.4,71.64Zm-5.3,7.9.24.1A5.39,5.39,0,0,1,89.5,76a3.75,3.75,0,0,0,1.13-.42,17.17,17.17,0,0,0,2-1.33,2.29,2.29,0,0,0,.59-1c.13-.35,0-.61-.46-.57s-.74.1-1.11.1a1.8,1.8,0,0,1-.54-.14,2.22,2.22,0,0,1,.49-.33,4.07,4.07,0,0,1,.61-.08V72a6.89,6.89,0,0,0-1.51.1,13.5,13.5,0,0,0-2.63.94,11.69,11.69,0,0,0-2.68,1.81,4,4,0,0,0-.63,4.64,4.91,4.91,0,0,1,.08-1,10.86,10.86,0,0,1,.5-1.49c.05-.13.27-.18.42-.27a1.77,1.77,0,0,1,0,.46C85.56,78,85.33,78.77,85.1,79.54Zm9.48-7.82c.49-.1.85-.19,1.22-.25.09,0,.2.08.31.12-.08.11-.14.27-.24.31-.49.19-1,.35-1.5.53s-.42.46-.07.66a3.21,3.21,0,0,0,1.28.47c1.58.11,3.17.17,4.76.18a4.87,4.87,0,0,1,4.72,2.75s.09,0,.13.06a3,3,0,0,0-2.47-3.07,2.13,2.13,0,0,1-.27-.07.32.32,0,0,1-.14-.2.26.26,0,0,1,.18-.17,2,2,0,0,1,.82.09c.59.3,1.14.68,1.7,1a4.07,4.07,0,0,0-2.33-2.61,11.06,11.06,0,0,0-5.73-1A3.06,3.06,0,0,0,94.58,71.72Z"/><path d="M101.15,36.12a9.25,9.25,0,0,1,4.12.78,5,5,0,0,1,2.6,2.57c.34.77.26,1.2-.26,1.45a1,1,0,0,1-1.42-.63A2.15,2.15,0,0,0,104,38.81c-1.15,0-2.3,0-3.45.13a6.93,6.93,0,0,0-3.79,1.66,21.47,21.47,0,0,1-2.08,1.58,3.63,3.63,0,0,1-1.47.51c-1,.13-1.45-.55-1.1-1.47a6.45,6.45,0,0,1,1.81-2.57A10.07,10.07,0,0,1,101.15,36.12Z"/><path d="M73,47.12a11.11,11.11,0,0,1,4.43,1.08,5.91,5.91,0,0,0,3.08.41,5.77,5.77,0,0,1,1.76.08,1.69,1.69,0,0,1,1.43,1.62,1.48,1.48,0,0,1-1.27,1.6,3.58,3.58,0,0,1-1.72,0c-1.88-.54-3.72-1.23-5.6-1.77a23.63,23.63,0,0,0-3.54-.72A2.59,2.59,0,0,0,68.94,51a7,7,0,0,0-.36.66c-.21.46-.53.7-1,.5a.93.93,0,0,1-.68-1.09,3,3,0,0,1,.38-.94A6.52,6.52,0,0,1,73,47.12Z"/><path d="M97.54,54.06a7.27,7.27,0,0,1-3.7-.9c-.65-.4-.67-.5-.27-1.15a.85.85,0,0,0,.13-.25c.84-2.57,2.9-3.54,5.32-4a12.42,12.42,0,0,1,5.29,0,18.91,18.91,0,0,1,3.15,1.35c.14.06.21.5.14.72a3.42,3.42,0,0,1-1.52,2,12.41,12.41,0,0,1-2.17,1A21.1,21.1,0,0,1,97.54,54.06ZM94.37,51.5a31.48,31.48,0,0,1,11.68-2.57,5.08,5.08,0,0,0-1.45-.62,14.83,14.83,0,0,0-5.75,0,6.64,6.64,0,0,0-3.22,1.38A3.76,3.76,0,0,0,94.37,51.5Zm4.72,1.36c1.08-.22,2.11-.35,3.08-.64a1.61,1.61,0,0,0,1.15-1.89c-.08-.36-.17-.8-.7-.65s-1-.07-.93.71a.9.9,0,0,1-.69,1.07c-.57.14-1.26.11-1.51-.43-.33-.7-.73-.55-1.23-.4-.8.25-1,1-.43,1.53A5.68,5.68,0,0,0,99.09,52.86Zm4.56-.89a5.32,5.32,0,0,0,2.72-1.81c.23-.33.25-.57-.25-.58-.65,0-1.3,0-1.94,0-.47,0-.45.2-.43.57C103.77,50.7,103.69,51.28,103.65,52Zm-6,1.05c-.23-.58-.43-1.12-.67-1.63-.06-.12-.32-.26-.42-.22-.64.25-1.25.54-1.87.83-.39.18-.36.37,0,.54A6,6,0,0,0,97.66,53Z"/><path d="M76.2,58.7c-1.38-.17-3-.34-4.59-.58-1-.14-1.19-.6-.55-1.38a10.35,10.35,0,0,1,2.31-2.27,15.09,15.09,0,0,1,8.72-2.25,3.68,3.68,0,0,1,3,1.74A1.08,1.08,0,0,1,85,55.62a9.71,9.71,0,0,1-5.68,2.79C78.37,58.56,77.4,58.59,76.2,58.7Zm-4.35-2.34.13.27A30.25,30.25,0,0,1,84.61,54.1a3.47,3.47,0,0,0-2.87-1.47,15.31,15.31,0,0,0-8.07,2.22A14.44,14.44,0,0,0,71.85,56.36Zm5.35,1.39c1-.16,2-.28,2.94-.49A1.66,1.66,0,0,0,80.85,55a.34.34,0,0,0-.24-.11,3,3,0,0,0-1,.11c-.14.06-.15.41-.22.63a1.45,1.45,0,0,1-1,1.12,1,1,0,0,1-1.3-.47c-.36-.91-.92-.57-1.51-.42s-.49.37-.34.77C75.58,57.52,75.88,57.7,77.2,57.75Zm6-3.14c-.71.06-1.38-.07-1.64.2s0,.92-.08,1.4c-.07.66.22.58.62.34a10.12,10.12,0,0,0,1.25-.79,8.7,8.7,0,0,0,1-1ZM72.13,57.09l.05.2,3,.37a9.61,9.61,0,0,1-.44-1.14c-.1-.34-.25-.36-.54-.24C73.5,56.56,72.81,56.82,72.13,57.09Z"/><path d="M88.89,79.1l1.4-.86a6.62,6.62,0,0,1,3.52-1.07,4,4,0,0,0,1.68-.44,4.42,4.42,0,0,1,2.32-.57c1,0,2,.12,3,.17a1.6,1.6,0,0,0,.42-.1,1.72,1.72,0,0,0-.22-.37c-.28-.29-.91-.52-.51-1s.83,0,1.16.32a2.47,2.47,0,0,1,.76,3.09c-.09.21-.4.47-.59.45-.42,0-.42-.43-.3-.72.32-.73-.07-.75-.62-.73a12.48,12.48,0,0,1-1.49-.07,6.17,6.17,0,0,0-3.87.72,3.1,3.1,0,0,1-1.7.34c-1.92-.17-3.28,1-4.75,1.9,0,0,0,.25,0,.39l.12.73c-.29,0-.64.11-.84,0a1.23,1.23,0,0,1-.53-.81,7.14,7.14,0,0,1,.1-1.84.74.74,0,0,1,.49-.51c.41,0,.47.32.42.67A2.48,2.48,0,0,0,88.89,79.1Z"/><path d="M91.18,51.22c0-.25,0-.36,0-.43s.2-.57.36-.61c.45-.11.54.24.59.62a7.36,7.36,0,0,0,.25,1.56,22,22,0,0,0,1.19,2.72,13.14,13.14,0,0,1,1.19,4.1,21.59,21.59,0,0,0,.64,2.61c.1.35.26.69-.17.87s-.63-.21-.71-.52c-.31-1.17-.54-2.36-.87-3.52a31.83,31.83,0,0,0-1.13-3.42A13.69,13.69,0,0,1,91.18,51.22Z"/><path d="M86.39,56.28A7.53,7.53,0,0,0,86,52.4a.76.76,0,0,1,.2-.69c.33-.21.6,0,.68.37a11.69,11.69,0,0,1,.5,2.83,29.06,29.06,0,0,0,.71,6.84,8.56,8.56,0,0,1,.07,2c0,.19-.32.36-.49.54-.14-.2-.38-.38-.42-.59-.21-1.38-.39-2.76-.56-4.15C86.59,58.44,86.5,57.36,86.39,56.28Z"/><path d="M93.34,81.8a12.14,12.14,0,0,1-1.51-.41c-.19-.07-.26-.41-.39-.63.24-.08.53-.28.71-.21a6.37,6.37,0,0,0,3.57,0,4.79,4.79,0,0,0,2.47-1.23c.26-.24.53-.51.85-.14s0,.63-.23.88a6,6,0,0,1-3.52,1.53C94.71,81.68,94.12,81.72,93.34,81.8Z"/><path d="M87.5,46.4c-.19.83-.32,1.53-.53,2.21-.06.23-.31.41-.47.61a2.53,2.53,0,0,1,0-.73,4.88,4.88,0,0,0,.18-3.2c-.1-.3-.27-.57-.38-.86a1.71,1.71,0,0,1,0-.4c.15.06.4.08.44.18C87,45,87.27,45.71,87.5,46.4Z"/><path d="M88.2,45.17a2.19,2.19,0,0,1,.2.45,2.17,2.17,0,0,0,1.15,1.88c.09,0,.08.25.12.38a1,1,0,0,1-.34,0A2.34,2.34,0,0,1,88,45.66,2.8,2.8,0,0,1,88.2,45.17Z"/><path class="cls-10" d="M85.1,79.54c.23-.77.46-1.53.67-2.3a1.77,1.77,0,0,0,0-.46c-.15.09-.37.14-.42.27a10.86,10.86,0,0,0-.5,1.49,4.91,4.91,0,0,0-.08,1,4,4,0,0,1,.63-4.64,11.69,11.69,0,0,1,2.68-1.81,13.5,13.5,0,0,1,2.63-.94,6.89,6.89,0,0,1,1.51-.1v.19a4.07,4.07,0,0,0-.61.08,2.22,2.22,0,0,0-.49.33,1.8,1.8,0,0,0,.54.14c.37,0,.74-.07,1.11-.1s.59.22.46.57a2.29,2.29,0,0,1-.59,1,17.17,17.17,0,0,1-2,1.33A3.75,3.75,0,0,1,89.5,76a5.39,5.39,0,0,0-4.16,3.64Z"/><path class="cls-10" d="M94.58,71.72A3.06,3.06,0,0,1,97,70.56a11.06,11.06,0,0,1,5.73,1A4.07,4.07,0,0,1,105,74.14c-.56-.33-1.11-.71-1.7-1a2,2,0,0,0-.82-.09.26.26,0,0,0-.18.17.32.32,0,0,0,.14.2,2.13,2.13,0,0,0,.27.07,3,3,0,0,1,2.47,3.07s-.11,0-.13-.06a4.87,4.87,0,0,0-4.72-2.75c-1.59,0-3.18-.07-4.76-.18a3.21,3.21,0,0,1-1.28-.47c-.35-.2-.38-.5.07-.66s1-.34,1.5-.53c.1,0,.16-.2.24-.31-.11,0-.22-.14-.31-.12C95.43,71.53,95.07,71.62,94.58,71.72Z"/><path class="cls-2" d="M94.37,51.5a3.76,3.76,0,0,1,1.26-1.77,6.64,6.64,0,0,1,3.22-1.38,14.83,14.83,0,0,1,5.75,0,5.08,5.08,0,0,1,1.45.62A31.48,31.48,0,0,0,94.37,51.5Z"/><path class="cls-11" d="M99.09,52.86a5.68,5.68,0,0,1-1.26-.7c-.6-.57-.37-1.28.43-1.53.5-.15.9-.3,1.23.4.25.54.94.57,1.51.43a.9.9,0,0,0,.69-1.07c-.08-.78.53-.61.93-.71s.62.29.7.65a1.61,1.61,0,0,1-1.15,1.89C101.2,52.51,100.17,52.64,99.09,52.86Z"/><path class="cls-9" d="M103.65,52c0-.69.12-1.27.1-1.84,0-.37,0-.59.43-.57.64,0,1.29,0,1.94,0,.5,0,.48.25.25.58A5.32,5.32,0,0,1,103.65,52Z"/><path class="cls-9" d="M97.66,53a6,6,0,0,1-3-.48c-.37-.17-.4-.36,0-.54.62-.29,1.23-.58,1.87-.83.1,0,.36.1.42.22C97.23,51.9,97.43,52.44,97.66,53Z"/><path class="cls-2" d="M71.85,56.36a14.44,14.44,0,0,1,1.82-1.51,15.31,15.31,0,0,1,8.07-2.22,3.47,3.47,0,0,1,2.87,1.47A30.25,30.25,0,0,0,72,56.63Z"/><path class="cls-11" d="M77.2,57.75c-1.32,0-1.62-.23-2-1.17-.15-.4-.11-.65.34-.77s1.15-.49,1.51.42a1,1,0,0,0,1.3.47,1.45,1.45,0,0,0,1-1.12c.07-.22.08-.57.22-.63a3,3,0,0,1,1-.11.34.34,0,0,1,.24.11,1.66,1.66,0,0,1-.71,2.31C79.17,57.47,78.18,57.59,77.2,57.75Z"/><path class="cls-9" d="M83.19,54.61l1.13.12a8.7,8.7,0,0,1-1,1,10.12,10.12,0,0,1-1.25.79c-.4.24-.69.32-.62-.34,0-.48-.16-1.15.08-1.4S82.48,54.67,83.19,54.61Z"/><path class="cls-9" d="M72.13,57.09c.68-.27,1.37-.53,2.05-.81.29-.12.44-.1.54.24a9.61,9.61,0,0,0,.44,1.14l-3-.37Z"/><path class="cls-1" d="M286,98.59c.85-.85-1.06-10.86-1.06-10.86l22.95-1.46s1.48,10.2.85,12.32"/><path class="cls-1" d="M308.93,96.25l4.51,1.28c-3.4,10.62-15.3,9.35-15.3,9.35s-11.05,1.49-15.94-9.14l3.91-2.58"/><path class="cls-2" d="M286.22,98.8a27.54,27.54,0,0,0-.11-4.89"/><path class="cls-3" d="M286.85,98.8a30.73,30.73,0,0,0-.11-4.89c-.08-.79-1.33-.8-1.25,0a30.73,30.73,0,0,1,.11,4.89c-.05.81,1.2.8,1.25,0Z"/><path class="cls-3" d="M309.6,99.23v-4a.63.63,0,0,0-1.25,0v4a.63.63,0,0,0,1.25,0Z"/><path class="cls-4" d="M276.59,157.11l-2.14,20.22H268c-8.17-2.92-11.86-12.64-11.86-12.64L234.4,149.53c-5.83-1.17-6.41-8.77-6.41-8.77-7.39-7.6,10.69-20,10.69-20l14.19,9.53s-5.44,6.42-7,6.42c0,0,14.39,19.83,14,22,0,0,9.82-6,14.05-2.92S276.59,157.11,276.59,157.11Z"/><path class="cls-5" d="M236.09,134s8.1.37,9.78,2.73"/><path class="cls-4" d="M268.81,173.44s4.09,2.33,5.64,1.36"/><path class="cls-4" d="M271.63,158.86s3.4,1.36,4.38.78"/><path class="cls-4" d="M318.45,157.11l2.14,20.22H327c8.16-2.92,11.86-12.64,11.86-12.64l21.77-15.16c5.83-1.17,6.42-8.77,6.42-8.77,7.39-7.6-10.69-20-10.69-20l-14.2,9.53s5.45,6.42,7,6.42c0,0-14.39,19.83-14,22,0,0-9.82-6-14-2.92S318.45,157.11,318.45,157.11Z"/><path class="cls-5" d="M359,134s-8.09.37-9.78,2.73"/><path class="cls-4" d="M326.23,173.44s-4.08,2.33-5.64,1.36"/><path class="cls-4" d="M323.41,158.86s-3.4,1.36-4.37.78"/><path class="cls-6" d="M323,179.34c-26.35,15.72-51,0-51,0l1.92-23.59c-2.77-2.33-8.5-33.78-8.5-33.78l-15.09,14.66c-9.56-1.28-14.24-17.85-14.24-17.85C252,106.24,253.31,107,253.31,107c8.5-6.3,27.41-11.76,27.41-11.76l1.48,2.55s16.58,20.19,31.24-.21l1.06-1.17s21,4.78,22.32,5.84a118.18,118.18,0,0,1,21.67,16.37s.21,13-14.24,17.85L329.59,122.6s-5.31,30.18-8.07,32.94Z"/><path d="M317.92,111.83a15.36,15.36,0,0,1,1.22,1.2c.43.5.91.94,1.36,1.41.16.18.16.21,0,.39a4.65,4.65,0,0,0-.73,1,3.44,3.44,0,0,0-.36,1.36c0,.09,0,.19-.06.26s0,.1,0,.15a7.27,7.27,0,0,0,.38,1.63,11.86,11.86,0,0,1,.76,1.75c.08.3.16.59.22.9a4.22,4.22,0,0,1,.06,1.12,4,4,0,0,1-.34,1.48,5.76,5.76,0,0,1-.52,1,6.47,6.47,0,0,1-1.45,1.46,7.8,7.8,0,0,1-1.43.68c-.14.06-.31,0-.43.1a4.3,4.3,0,0,0-2,.88,8.37,8.37,0,0,0-1,.9c-.15.15-.21.16-.38,0a3.15,3.15,0,0,1-.36-.37,5,5,0,0,0-1.4-1,3.89,3.89,0,0,0-1.14-.41,5.18,5.18,0,0,1-2.25-1,5.24,5.24,0,0,1-.92-1,4.7,4.7,0,0,1-.54-.85,5,5,0,0,1-.49-1.54,5.33,5.33,0,0,1-.06-1,5.07,5.07,0,0,1,.39-1.7c.24-.55.5-1.09.74-1.64a2.11,2.11,0,0,0,.22-.86.59.59,0,0,1,.07-.41s0-.13,0-.19a4.91,4.91,0,0,0-.55-1.95,4.48,4.48,0,0,0-.61-.82c-.15-.15-.15-.21,0-.36l2.33-2.4a3.08,3.08,0,0,1,.27-.24h.16l.41.29a3.35,3.35,0,0,0,1.67.58,3.05,3.05,0,0,0,.6-.06,3.13,3.13,0,0,0,1.23-.48c.14-.08.26-.24.42-.24s.28.15.41.24a3.63,3.63,0,0,0,1.6.54c.29,0,.55-.11.84-.08.08-.16.26-.06.39-.12a5.73,5.73,0,0,0,1.08-.67Zm-11.27,10.93a3.53,3.53,0,0,0,.17,1.17,4.51,4.51,0,0,0,1.12,1.92,6.28,6.28,0,0,0,.67.59,3.92,3.92,0,0,0,1,.55,6.85,6.85,0,0,0,1.26.32,7.76,7.76,0,0,1,1.42.7,4.39,4.39,0,0,1,.94.78c.14.15.21.15.35,0a3.38,3.38,0,0,1,.54-.53,10.07,10.07,0,0,1,1.28-.73,8,8,0,0,1,1-.32,4.85,4.85,0,0,0,1.11-.38,9.45,9.45,0,0,0,.86-.53,4.23,4.23,0,0,0,1.16-1.3,4.57,4.57,0,0,0,.65-2.31c0-.25-.05-.48-.07-.72a3.82,3.82,0,0,0-.2-.84c-.21-.52-.46-1-.7-1.53a6,6,0,0,1-.47-2,3.08,3.08,0,0,1,.08-.53,3.12,3.12,0,0,1,.08-.52,5,5,0,0,1,.46-1.23c.15-.22.28-.45.43-.66,0-.06.06-.08,0-.14l-2-2c-.09-.08-.13-.07-.23,0a3.81,3.81,0,0,1-1.16.53,3.39,3.39,0,0,1-.71.11,3.9,3.9,0,0,1-.76-.06,3.71,3.71,0,0,1-1.51-.58c-.06,0-.08,0-.14,0a4,4,0,0,1-1.17.53,3.39,3.39,0,0,1-.71.11,3.43,3.43,0,0,1-.84-.06,4.27,4.27,0,0,1-1.4-.55c-.16-.11-.16-.11-.3,0l-1.83,1.82c-.17.18-.16.17,0,.39a2.45,2.45,0,0,1,.56,1,3.31,3.31,0,0,1,.38,1.54,3,3,0,0,1-.07,1.07,2.63,2.63,0,0,1-.15.53c-.08.17-.16.33-.23.5s-.12.35-.2.51c-.17.38-.38.75-.51,1.14A4.5,4.5,0,0,0,306.65,122.76Z"/><path class="cls-7" d="M306.65,122.76a4.5,4.5,0,0,1,.25-1.55c.13-.39.34-.76.51-1.14.08-.16.13-.34.2-.51s.15-.33.23-.5a2.63,2.63,0,0,0,.15-.53,3,3,0,0,0,.07-1.07,3.31,3.31,0,0,0-.38-1.54,2.45,2.45,0,0,0-.56-1c-.16-.22-.17-.21,0-.39l1.83-1.82c.14-.14.14-.14.3,0a4.27,4.27,0,0,0,1.4.55,3.43,3.43,0,0,0,.84.06,3.39,3.39,0,0,0,.71-.11,4,4,0,0,0,1.17-.53c.06,0,.08,0,.14,0a3.71,3.71,0,0,0,1.51.58,3.9,3.9,0,0,0,.76.06,3.39,3.39,0,0,0,.71-.11,3.81,3.81,0,0,0,1.16-.53c.1-.07.14-.08.23,0l2,2c.06.06,0,.08,0,.14-.15.21-.28.44-.43.66a5,5,0,0,0-.46,1.23,3.12,3.12,0,0,0-.08.52,3.08,3.08,0,0,0-.08.53,6,6,0,0,0,.47,2c.24.5.49,1,.7,1.53a3.82,3.82,0,0,1,.2.84c0,.24.07.47.07.72a4.57,4.57,0,0,1-.65,2.31,4.23,4.23,0,0,1-1.16,1.3,9.45,9.45,0,0,1-.86.53,4.85,4.85,0,0,1-1.11.38,8,8,0,0,0-1,.32,10.07,10.07,0,0,0-1.28.73,3.38,3.38,0,0,0-.54.53c-.14.14-.21.14-.35,0a4.39,4.39,0,0,0-.94-.78,7.76,7.76,0,0,0-1.42-.7,6.85,6.85,0,0,1-1.26-.32,3.92,3.92,0,0,1-1-.55,6.28,6.28,0,0,1-.67-.59,4.51,4.51,0,0,1-1.12-1.92A3.53,3.53,0,0,1,306.65,122.76Zm12.94-.09a2.64,2.64,0,0,0,0-.63,4.54,4.54,0,0,0-.23-.74c-.12-.23-.19-.48-.31-.71-.21-.4-.37-.82-.54-1.24a3,3,0,0,1-.25-1,6.81,6.81,0,0,1,.13-2A6.35,6.35,0,0,1,319,115a.3.3,0,0,0,0-.41c-.06-.07-.1-.16-.15-.21-.28-.32-.59-.61-.89-.91,0,0-.1,0-.14-.06s-.1,0-.16,0a4.36,4.36,0,0,1-.89.33,6.51,6.51,0,0,1-1.16.18c-.15,0-.3-.07-.44-.07a3,3,0,0,1-1.32-.38.7.7,0,0,0-.7,0,5.24,5.24,0,0,1-.94.33c-.28.1-.57-.06-.82.12a.29.29,0,0,1-.16,0,2.06,2.06,0,0,0-.32-.07,4,4,0,0,1-1.47-.4.34.34,0,0,0-.43,0,10.37,10.37,0,0,0-1.06,1.14.26.26,0,0,0,0,.32,3.2,3.2,0,0,1,.48,1,3.87,3.87,0,0,1,.26,1,7,7,0,0,1-.05,1.71,6.69,6.69,0,0,1-.31,1c-.21.53-.47,1-.69,1.57a3.11,3.11,0,0,0-.29,1.28c0,.21,0,.42,0,.63a3.47,3.47,0,0,0,.11.63,3.34,3.34,0,0,0,.67,1.31c0,.13.1.12.17.16a.23.23,0,0,0,.32-.17c0-.18,0-.36-.18-.48a.69.69,0,0,1-.14-.22,3.74,3.74,0,0,1-.39-2,2.22,2.22,0,0,1,.16-.73c.24-.52.48-1,.71-1.57a4.88,4.88,0,0,0,.47-1.91c0-.13-.06-.29.08-.4-.14-.13-.06-.3-.08-.44a4.76,4.76,0,0,0-.06-.65,7.14,7.14,0,0,0-.5-1.5c0-.09-.14-.19-.13-.26s.14-.17.22-.25l.53-.54s.05,0,.11,0a3.93,3.93,0,0,0,1,.28,6.64,6.64,0,0,0,1,.15c.15,0,.3-.06.44-.07a4.24,4.24,0,0,0,1.48-.37.52.52,0,0,1,.37,0,3.65,3.65,0,0,0,1,.31,6.68,6.68,0,0,0,.78.13,1.35,1.35,0,0,0,.57,0c.2-.08.43,0,.59-.12a2.63,2.63,0,0,0,.92-.26c.05,0,.06-.06.12,0,.24.25.48.49.73.73,0,0,0,.07,0,.12a7.78,7.78,0,0,0-.46,1.16,4,4,0,0,0-.2,1.14,1,1,0,0,1-.05.52c.12.16,0,.35.05.53a5.28,5.28,0,0,0,.1.71c.07.25.13.5.22.74s.21.5.32.74.27.56.4.83a4.48,4.48,0,0,1,.27.88,8,8,0,0,1,0,1.09c-.15.2-.13.45-.22.67a4,4,0,0,1-.33.65,3.2,3.2,0,0,1-1.37,1.23,5.16,5.16,0,0,1-1,.35,7.4,7.4,0,0,0-1.6.56c-.18.09-.36.21-.54.32s-.34.25-.52.38l-.54-.38a7,7,0,0,0-1.31-.66,5.53,5.53,0,0,0-1-.28,3.38,3.38,0,0,1-1.35-.58.84.84,0,0,0-.38-.21c-.08,0-.22.1-.26.19a.22.22,0,0,0,0,.28l.33.26a3.22,3.22,0,0,0,1.09.52,9.83,9.83,0,0,1,1,.25,5.49,5.49,0,0,1,1.31.59,7.67,7.67,0,0,1,.77.54c.19.19.35.18.56,0a3,3,0,0,1,.26-.24,7,7,0,0,1,1.85-.9c.26-.08.53-.11.79-.18a3.37,3.37,0,0,0,1.17-.54,4.3,4.3,0,0,0,1.33-1.45A3.66,3.66,0,0,0,319.59,122.67Zm-6.1.75c-.2,0-.4,0-.6,0a1.53,1.53,0,0,1-.36-.07.93.93,0,0,0-.1,0,4.15,4.15,0,0,1-1-.55,3.23,3.23,0,0,1-.93-1.09,4.06,4.06,0,0,1-.33-1,3,3,0,0,1,0-1.39,2.78,2.78,0,0,1,.45-1,3.11,3.11,0,0,1,1.13-1.06,2.8,2.8,0,0,1,1.49-.42.64.64,0,0,0,.18-.06s.09,0,.1,0,.28,0,.41.07.21,0,.29.07c.24-.06.41.17.64.17s.32,0,.36-.12,0-.31-.11-.35-.43-.17-.65-.24a1.32,1.32,0,0,0-.33-.08c-.13,0-.28,0-.38,0a.66.66,0,0,0-.53,0c-.14,0-.27,0-.41.07a2.88,2.88,0,0,0-.51.1,4.1,4.1,0,0,0-2.1,1.54,3.68,3.68,0,0,0-.69,2.13,5.54,5.54,0,0,0,.07.81,3.7,3.7,0,0,0,.81,1.8,3.88,3.88,0,0,0,1.35,1,4.73,4.73,0,0,0,1.77.42c.16,0,.32-.07.48-.07a3.27,3.27,0,0,0,.62-.14,4.57,4.57,0,0,0,.87-.4,2,2,0,0,0,.55-.39,5.74,5.74,0,0,0,.7-.78,4.39,4.39,0,0,0,.55-1.28,3.09,3.09,0,0,0,.08-.6,3.42,3.42,0,0,0,0-.64,3,3,0,0,0-.09-.67,5.75,5.75,0,0,0-.46-1.08,5.14,5.14,0,0,0-.91-1,.59.59,0,0,0-.14-.06s-.08,0-.1,0a.31.31,0,0,0-.11.51c.15.16.32.32.48.48a2.76,2.76,0,0,1,.6,1,3,3,0,0,1,.19,1.24,3.75,3.75,0,0,1-.35,1.37,3.24,3.24,0,0,1-.35.53,2.88,2.88,0,0,1-1,.89A2.77,2.77,0,0,1,313.49,123.42Zm1.82-1.39a2.52,2.52,0,0,1-.08-.44,2.33,2.33,0,0,1,0-.59c0-.12-.19-.15-.06-.28a1.89,1.89,0,0,0,.2-.27c.09-.1.19-.18.28-.28s.38-.42.56-.64a.31.31,0,0,0-.16-.48,9.24,9.24,0,0,0-1-.24c-.26,0-.56-.08-.68-.36s-.38-.6-.54-.92a.93.93,0,0,0-.25-.33.17.17,0,0,0-.27,0,.92.92,0,0,0-.14.14c-.24.39-.49.77-.69,1.18a.35.35,0,0,1-.21.18,6.3,6.3,0,0,1-.75.18c-.1,0-.2,0-.3.07s-.2,0-.32.08-.3.12-.27.36a.37.37,0,0,0,.11.19c.27.31.55.62.84.92.11.13.22.29.15.44a1.83,1.83,0,0,0-.07.65c0,.09,0,.21,0,.27s-.06.33-.06.49a.27.27,0,0,0,.39.22c.37-.15.73-.33,1.11-.46.19-.07.38-.2.63-.06s.8.35,1.2.54a.24.24,0,0,0,.28,0C315.35,122.42,315.29,122.26,315.31,122Z"/><path class="cls-8" d="M319.59,122.67a3.66,3.66,0,0,1-.47,1.91,4.3,4.3,0,0,1-1.33,1.45,3.37,3.37,0,0,1-1.17.54c-.26.07-.53.1-.79.18a7,7,0,0,0-1.85.9,3,3,0,0,0-.26.24c-.21.18-.37.19-.56,0a7.67,7.67,0,0,0-.77-.54,5.49,5.49,0,0,0-1.31-.59,9.83,9.83,0,0,0-1-.25A3.22,3.22,0,0,1,309,126l-.33-.26a.22.22,0,0,1,0-.28c0-.09.18-.21.26-.19a.84.84,0,0,1,.38.21,3.38,3.38,0,0,0,1.35.58,5.53,5.53,0,0,1,1,.28,7,7,0,0,1,1.31.66l.54.38c.18-.13.34-.26.52-.38s.36-.23.54-.32a7.4,7.4,0,0,1,1.6-.56,5.16,5.16,0,0,0,1-.35,3.2,3.2,0,0,0,1.37-1.23,4,4,0,0,0,.33-.65c.09-.22.07-.47.22-.67a8,8,0,0,0,0-1.09,4.48,4.48,0,0,0-.27-.88c-.13-.27-.27-.55-.4-.83s-.22-.49-.32-.74-.15-.49-.22-.74a5.28,5.28,0,0,1-.1-.71c0-.18.07-.37-.05-.53a1,1,0,0,0,.05-.52,4,4,0,0,1,.2-1.14,7.78,7.78,0,0,1,.46-1.16c0-.05.06-.07,0-.12-.25-.24-.49-.48-.73-.73-.06,0-.07,0-.12,0a2.63,2.63,0,0,1-.92.26c-.16.17-.39,0-.59.12a1.35,1.35,0,0,1-.57,0,6.68,6.68,0,0,1-.78-.13,3.65,3.65,0,0,1-1-.31.52.52,0,0,0-.37,0,4.24,4.24,0,0,1-1.48.37c-.14,0-.29.07-.44.07a6.64,6.64,0,0,1-1-.15,3.93,3.93,0,0,1-1-.28c-.06,0-.08,0-.11,0l-.53.54c-.08.08-.19.16-.22.25s.09.17.13.26a7.14,7.14,0,0,1,.5,1.5,4.76,4.76,0,0,1,.06.65c0,.14-.06.31.08.44-.14.11-.07.27-.08.4a4.88,4.88,0,0,1-.47,1.91c-.23.53-.47,1-.71,1.57a2.22,2.22,0,0,0-.16.73,3.74,3.74,0,0,0,.39,2,.69.69,0,0,0,.14.22c.2.12.18.3.18.48a.23.23,0,0,1-.32.17c-.07,0-.19,0-.17-.16a3.34,3.34,0,0,1-.67-1.31,3.47,3.47,0,0,1-.11-.63c0-.21,0-.42,0-.63a3.11,3.11,0,0,1,.29-1.28c.22-.53.48-1,.69-1.57a6.69,6.69,0,0,0,.31-1,7,7,0,0,0,.05-1.71,3.87,3.87,0,0,0-.26-1,3.2,3.2,0,0,0-.48-1,.26.26,0,0,1,0-.32,10.37,10.37,0,0,1,1.06-1.14.34.34,0,0,1,.43,0,4,4,0,0,0,1.47.4,2.06,2.06,0,0,1,.32.07.29.29,0,0,0,.16,0c.25-.18.54,0,.82-.12a5.24,5.24,0,0,0,.94-.33.7.7,0,0,1,.7,0,3,3,0,0,0,1.32.38c.14,0,.29.07.44.07a6.51,6.51,0,0,0,1.16-.18,4.36,4.36,0,0,0,.89-.33c.06,0,.1-.06.16,0s.1,0,.14.06c.3.3.61.59.89.91,0,0,.09.14.15.21a.3.3,0,0,1,0,.41,6.35,6.35,0,0,0-.58,1.38,6.81,6.81,0,0,0-.13,2,3,3,0,0,0,.25,1c.17.42.33.84.54,1.24.12.23.19.48.31.71a4.54,4.54,0,0,1,.23.74A2.64,2.64,0,0,1,319.59,122.67Z"/><path class="cls-8" d="M313.49,123.42a2.77,2.77,0,0,0,1.65-.43,2.88,2.88,0,0,0,1-.89,3.24,3.24,0,0,0,.35-.53,3.75,3.75,0,0,0,.35-1.37,3,3,0,0,0-.19-1.24,2.76,2.76,0,0,0-.6-1c-.16-.16-.33-.32-.48-.48a.31.31,0,0,1,.11-.51s.07,0,.1,0a.59.59,0,0,1,.14.06,5.14,5.14,0,0,1,.91,1,5.75,5.75,0,0,1,.46,1.08,3,3,0,0,1,.09.67,3.42,3.42,0,0,1,0,.64,3.09,3.09,0,0,1-.08.6,4.39,4.39,0,0,1-.55,1.28,5.74,5.74,0,0,1-.7.78,2,2,0,0,1-.55.39,4.57,4.57,0,0,1-.87.4,3.27,3.27,0,0,1-.62.14c-.16,0-.32.08-.48.07a4.73,4.73,0,0,1-1.77-.42,3.88,3.88,0,0,1-1.35-1,3.7,3.7,0,0,1-.81-1.8,5.54,5.54,0,0,1-.07-.81,3.68,3.68,0,0,1,.69-2.13,4.1,4.1,0,0,1,2.1-1.54,2.88,2.88,0,0,1,.51-.1c.14,0,.27,0,.41-.07a.66.66,0,0,1,.53,0c.1.06.25,0,.38,0a1.32,1.32,0,0,1,.33.08c.22.07.43.15.65.24s.15.25.11.35-.22.13-.36.12-.4-.23-.64-.17c-.08-.11-.19,0-.29-.07s-.29.06-.41-.07-.07,0-.1,0a.64.64,0,0,1-.18.06,2.8,2.8,0,0,0-1.49.42,3.11,3.11,0,0,0-1.13,1.06,2.78,2.78,0,0,0-.45,1,3,3,0,0,0,0,1.39,4.06,4.06,0,0,0,.33,1,3.23,3.23,0,0,0,.93,1.09,4.15,4.15,0,0,0,1,.55.93.93,0,0,1,.1,0,1.53,1.53,0,0,0,.36.07C313.09,123.43,313.29,123.42,313.49,123.42Z"/><path class="cls-8" d="M315.31,122c0,.23,0,.39-.12.52a.24.24,0,0,1-.28,0c-.4-.19-.82-.33-1.2-.54s-.44,0-.63.06c-.38.13-.74.31-1.11.46a.27.27,0,0,1-.39-.22c0-.16-.07-.33.06-.49s0-.18,0-.27a1.83,1.83,0,0,1,.07-.65c.07-.15,0-.31-.15-.44-.29-.3-.57-.61-.84-.92a.37.37,0,0,1-.11-.19c0-.24,0-.23.27-.36s.25,0,.32-.08.2,0,.3-.07a6.3,6.3,0,0,0,.75-.18.35.35,0,0,0,.21-.18c.2-.41.45-.79.69-1.18a.92.92,0,0,1,.14-.14.17.17,0,0,1,.27,0,.93.93,0,0,1,.25.33c.16.32.39.6.54.92s.42.32.68.36a9.24,9.24,0,0,1,1,.24.31.31,0,0,1,.16.48c-.18.22-.37.43-.56.64s-.19.18-.28.28a1.89,1.89,0,0,1-.2.27c-.13.13.08.16.06.28a2.33,2.33,0,0,0,0,.59A2.52,2.52,0,0,0,315.31,122Zm-3.1-.57v.17c0,.22,0,.25.24.15l.87-.38a.31.31,0,0,1,.21,0c.22.09.42.2.63.3l.41.16a.15.15,0,0,0,.09,0,5.57,5.57,0,0,0,0-.82c0-.18-.1-.35,0-.51s.36-.41.53-.61.17-.22.25-.34,0-.06,0-.06c-.33,0-.65-.16-1-.23a.53.53,0,0,1-.41-.28,7.75,7.75,0,0,1-.46-.79c-.05-.1-.1-.08-.17,0a5.48,5.48,0,0,0-.46.72c-.12.17-.21.33-.45.36a6.33,6.33,0,0,0-.75.19l-.29.06a1.22,1.22,0,0,1,.2.25c.09.23.3.35.45.52a.83.83,0,0,1,.2.48C312.32,121,312.15,121.22,312.21,121.46Z"/><path class="cls-7" d="M312.21,121.46c-.06-.24.11-.48.08-.74a.83.83,0,0,0-.2-.48c-.15-.17-.36-.29-.45-.52a1.22,1.22,0,0,0-.2-.25l.29-.06a6.33,6.33,0,0,1,.75-.19c.24,0,.33-.19.45-.36a5.48,5.48,0,0,1,.46-.72c.07-.07.12-.09.17,0a7.75,7.75,0,0,0,.46.79.53.53,0,0,0,.41.28c.32.07.64.19,1,.23,0,0,0,0,0,.06s-.16.23-.25.34-.36.4-.53.61,0,.33,0,.51a5.57,5.57,0,0,1,0,.82.15.15,0,0,1-.09,0l-.41-.16c-.21-.1-.41-.21-.63-.3a.31.31,0,0,0-.21,0l-.87.38c-.2.1-.24.07-.24-.15Z"/><path class="cls-1" d="M282.37,11.16s22.83-.52,29.76,14.37c0,0,5.65,3.59,6.42,19.24,0,0-.52,7.19,0,7.95,0,0,2.82,3.6,2.31,13.09,0,0,.77,5.9-1,9.75,0,0-11.29,18.73-20,20.53,0,0-14.89,0-27.2-9.38,0,0-8-15.25-7.44-18.08,0,0-8-22.83-5.9-29.5C259.28,39.13,260.82,15.78,282.37,11.16Z"/><path class="cls-1" d="M267.85,76.83c-3,1.27-5.91-3.46-5.91-3.46-2-1.68-3-7.56-3-7.56-3.16-9,3-7.65,3-7.65Z"/><path class="cls-1" d="M318.55,44.77s7.95-4.36,6.93,8.85c0,0,1.28,12.45-4.62,12.19Z"/><path class="cls-3" d="M300.35,93.35l-.56-2.89c-.15-.79-1.35-.46-1.2.33l.56,2.89c.15.79,1.36.46,1.2-.33Z"/><path class="cls-3" d="M259.66,61.51c.84.92,2.56.62,3,1.9.26.75,1.47.43,1.2-.33a2.74,2.74,0,0,0-1.39-1.63c-.62-.3-1.47-.3-1.95-.82s-1.42.29-.88.88Z"/><path class="cls-3" d="M265.39,71.18a5.87,5.87,0,0,1-.58-4.37c.13-.79-1.08-1.13-1.21-.34a7.28,7.28,0,0,0,.71,5.34c.44.68,1.52,0,1.08-.63Z"/><path class="cls-3" d="M321.35,46.41c-1.65.47-1.94,2.07-2.38,3.52-.24.77,1,1.1,1.2.33.29-.93.43-2.33,1.51-2.65a.62.62,0,0,0-.33-1.2Z"/><path class="cls-3" d="M319.43,53.06a7.28,7.28,0,0,1,1.72,2.72,9.84,9.84,0,0,1,.14,3.16c-.05.81,1.2.8,1.25,0a9.64,9.64,0,0,0-.31-3.89,9.71,9.71,0,0,0-1.91-2.88c-.53-.61-1.41.28-.89.89Z"/><path d="M291.4,71.64a5.75,5.75,0,0,0-1.07-.55,1.16,1.16,0,0,0-.82.1c-1.33.82-2.57.39-2.91-1.14a14,14,0,0,1-.2-2.6c0-.15.25-.44.33-.42s.49.2.54.37,0,.68.07,1a7.67,7.67,0,0,0,.37,1.8c.24.62.65.59,1.1.07a1.1,1.1,0,0,1,.74-.37,6.89,6.89,0,0,1,1.54.36c.44.15.85.38,1.29.53a3,3,0,0,0,3.64-1.1c.42-.54.81-1.12,1.27-1.62s.8-.47,1.11.22c.07.16.36.37.5.33a1.73,1.73,0,0,0,1-.46,2.46,2.46,0,0,0-1-2.81c-.37-.16-.55-.39-.37-.69a.77.77,0,0,1,.7-.22,2.14,2.14,0,0,1,1,.68,4.17,4.17,0,0,1,.63,3.3,1.3,1.3,0,0,1-1.2,1.12,10.35,10.35,0,0,1-1.67,0c-.48,0-.83,0-1,.61a11.89,11.89,0,0,1,5.15.23c2.77.71,4.48,2.36,4.72,5.31.07.86.1,1.74.09,2.61,0,.18-.23.36-.36.55a2.15,2.15,0,0,1-.37-.5c-.12-.28-.17-.6-.27-.89a4.65,4.65,0,0,0-4.79-3.3c-1,0-2,0-3,0s-2-.23-3-.36c-.26,0-.52-.2-.72.16a5.49,5.49,0,0,1-3.12,2.24c-.72.29-1.48.49-2.18.81a4.29,4.29,0,0,0-2.44,3.3,4,4,0,0,0,.17,2.56c.05.1-.05.27-.09.41-.11-.08-.27-.13-.33-.24a12.35,12.35,0,0,1-1.65-4.82,4.83,4.83,0,0,1,2.59-4.9,29.51,29.51,0,0,1,3.15-1.39C290.81,71.83,291,71.77,291.4,71.64Zm-5.3,7.9.24.1A5.39,5.39,0,0,1,290.5,76a3.75,3.75,0,0,0,1.13-.42,17.17,17.17,0,0,0,2-1.33,2.29,2.29,0,0,0,.59-1c.13-.35,0-.61-.46-.57s-.74.1-1.11.1a1.8,1.8,0,0,1-.54-.14,2.22,2.22,0,0,1,.49-.33,4.07,4.07,0,0,1,.61-.08V72a6.89,6.89,0,0,0-1.51.1,13.5,13.5,0,0,0-2.63.94,11.69,11.69,0,0,0-2.68,1.81,4,4,0,0,0-.63,4.64,4.91,4.91,0,0,1,.08-1,10.86,10.86,0,0,1,.5-1.49c0-.13.27-.18.42-.27a1.77,1.77,0,0,1,0,.46C286.56,78,286.33,78.77,286.1,79.54Zm9.48-7.82c.49-.1.85-.19,1.22-.25.09,0,.2.08.31.12-.08.11-.14.27-.24.31-.49.19-1,.35-1.5.53s-.42.46-.07.66a3.21,3.21,0,0,0,1.28.47c1.58.11,3.17.17,4.76.18a4.87,4.87,0,0,1,4.72,2.75s.09,0,.13.06a3,3,0,0,0-2.47-3.07,2.13,2.13,0,0,1-.27-.07.32.32,0,0,1-.14-.2.26.26,0,0,1,.18-.17,2,2,0,0,1,.82.09c.59.3,1.14.68,1.7,1a4.07,4.07,0,0,0-2.33-2.61,11.06,11.06,0,0,0-5.73-1A3.06,3.06,0,0,0,295.58,71.72Z"/><path d="M302.15,36.12a9.25,9.25,0,0,1,4.12.78,5,5,0,0,1,2.6,2.57c.34.77.26,1.2-.26,1.45a1,1,0,0,1-1.42-.63A2.15,2.15,0,0,0,305,38.81c-1.15,0-2.3,0-3.45.13a6.93,6.93,0,0,0-3.79,1.66,21.47,21.47,0,0,1-2.08,1.58,3.63,3.63,0,0,1-1.47.51c-1,.13-1.45-.55-1.1-1.47a6.45,6.45,0,0,1,1.81-2.57A10.07,10.07,0,0,1,302.15,36.12Z"/><path d="M274,47.12a11.11,11.11,0,0,1,4.43,1.08,5.91,5.91,0,0,0,3.08.41,5.77,5.77,0,0,1,1.76.08,1.69,1.69,0,0,1,1.43,1.62,1.48,1.48,0,0,1-1.27,1.6,3.58,3.58,0,0,1-1.72,0c-1.88-.54-3.72-1.23-5.6-1.77a23.63,23.63,0,0,0-3.54-.72A2.59,2.59,0,0,0,269.94,51a7,7,0,0,0-.36.66c-.21.46-.53.7-1,.5a.93.93,0,0,1-.68-1.09,3,3,0,0,1,.38-.94A6.52,6.52,0,0,1,274,47.12Z"/><path d="M289.89,79.1l1.4-.86a6.62,6.62,0,0,1,3.52-1.07,4,4,0,0,0,1.68-.44,4.42,4.42,0,0,1,2.32-.57c1,0,2,.12,3,.17a1.6,1.6,0,0,0,.42-.1,1.72,1.72,0,0,0-.22-.37c-.28-.29-.91-.52-.51-1s.83,0,1.16.32a2.47,2.47,0,0,1,.76,3.09c-.09.21-.4.47-.59.45-.42,0-.42-.43-.3-.72.32-.73-.07-.75-.62-.73a12.48,12.48,0,0,1-1.49-.07,6.17,6.17,0,0,0-3.87.72,3.1,3.1,0,0,1-1.7.34c-1.92-.17-3.28,1-4.75,1.9-.05,0,0,.25,0,.39l.12.73c-.29,0-.64.11-.84,0a1.23,1.23,0,0,1-.53-.81,7.14,7.14,0,0,1,.1-1.84.74.74,0,0,1,.49-.51c.41,0,.47.32.42.67A2.48,2.48,0,0,0,289.89,79.1Z"/><path d="M292.18,51.22c0-.25,0-.36,0-.43s.2-.57.36-.61c.45-.11.54.24.59.62a7.36,7.36,0,0,0,.25,1.56,22,22,0,0,0,1.19,2.72,13.14,13.14,0,0,1,1.19,4.1,21.59,21.59,0,0,0,.64,2.61c.1.35.26.69-.17.87s-.63-.21-.71-.52c-.31-1.17-.54-2.36-.87-3.52a31.83,31.83,0,0,0-1.13-3.42A13.69,13.69,0,0,1,292.18,51.22Z"/><path d="M287.39,56.28A7.53,7.53,0,0,0,287,52.4a.76.76,0,0,1,.2-.69c.33-.21.6,0,.68.37a11.69,11.69,0,0,1,.5,2.83,29.06,29.06,0,0,0,.71,6.84,8.56,8.56,0,0,1,.07,2c0,.19-.32.36-.49.54-.14-.2-.38-.38-.42-.59-.21-1.38-.39-2.76-.56-4.15C287.59,58.44,287.5,57.36,287.39,56.28Z"/><path d="M294.34,81.8a12.14,12.14,0,0,1-1.51-.41c-.19-.07-.26-.41-.39-.63.24-.08.53-.28.71-.21a6.37,6.37,0,0,0,3.57,0,4.79,4.79,0,0,0,2.47-1.23c.26-.24.53-.51.85-.14s0,.63-.23.88a6,6,0,0,1-3.52,1.53C295.71,81.68,295.12,81.72,294.34,81.8Z"/><path d="M288.5,46.4c-.19.83-.32,1.53-.53,2.21-.06.23-.31.41-.47.61a2.53,2.53,0,0,1,0-.73,4.88,4.88,0,0,0,.18-3.2c-.1-.3-.27-.57-.38-.86a1.71,1.71,0,0,1,0-.4c.15.06.4.08.44.18C288,45,288.27,45.71,288.5,46.4Z"/><path d="M289.2,45.17a2.19,2.19,0,0,1,.2.45,2.17,2.17,0,0,0,1.15,1.88c.09,0,.08.25.12.38a1,1,0,0,1-.34,0A2.34,2.34,0,0,1,289,45.66,2.8,2.8,0,0,1,289.2,45.17Z"/><path class="cls-10" d="M286.1,79.54c.23-.77.46-1.53.67-2.3a1.77,1.77,0,0,0,0-.46c-.15.09-.37.14-.42.27a10.86,10.86,0,0,0-.5,1.49,4.91,4.91,0,0,0-.08,1,4,4,0,0,1,.63-4.64,11.69,11.69,0,0,1,2.68-1.81,13.5,13.5,0,0,1,2.63-.94,6.89,6.89,0,0,1,1.51-.1v.19a4.07,4.07,0,0,0-.61.08,2.22,2.22,0,0,0-.49.33,1.8,1.8,0,0,0,.54.14c.37,0,.74-.07,1.11-.1s.59.22.46.57a2.29,2.29,0,0,1-.59,1,17.17,17.17,0,0,1-2,1.33,3.75,3.75,0,0,1-1.13.42,5.39,5.39,0,0,0-4.16,3.64Z"/><path class="cls-10" d="M295.58,71.72A3.06,3.06,0,0,1,298,70.56a11.06,11.06,0,0,1,5.73,1A4.07,4.07,0,0,1,306,74.14c-.56-.33-1.11-.71-1.7-1a2,2,0,0,0-.82-.09.26.26,0,0,0-.18.17.32.32,0,0,0,.14.2,2.13,2.13,0,0,0,.27.07,3,3,0,0,1,2.47,3.07s-.11,0-.13-.06a4.87,4.87,0,0,0-4.72-2.75c-1.59,0-3.18-.07-4.76-.18a3.21,3.21,0,0,1-1.28-.47c-.35-.2-.38-.5.07-.66s1-.34,1.5-.53c.1,0,.16-.2.24-.31-.11,0-.22-.14-.31-.12C296.43,71.53,296.07,71.62,295.58,71.72Z"/><path class="cls-2" d="M295.37,51.5a3.76,3.76,0,0,1,1.26-1.77,6.64,6.64,0,0,1,3.22-1.38,14.83,14.83,0,0,1,5.75,0,5.08,5.08,0,0,1,1.45.62A31.48,31.48,0,0,0,295.37,51.5Z"/><path d="M282.09,54.35c-2.9,1.67-6,3.28-9.39,2.24-.31-.1-.44.39-.14.48,3.54,1.08,6.76-.55,9.78-2.29a.25.25,0,0,0-.25-.43Z"/><path d="M282.28,54.37,281.89,57c0,.32.44.45.49.13l.38-2.61c.05-.32-.44-.46-.48-.14Z"/><path d="M297.28,50.53c3.71.81,6.83,1,10.06-1.23.26-.18,0-.62-.25-.43-3.12,2.19-6.12,2-9.68,1.18-.31-.07-.45.41-.13.48Z"/><path d="M297.09,50.45A3.81,3.81,0,0,0,298.33,52c.26.2.5-.24.25-.43a3.34,3.34,0,0,1-1.05-1.39c-.13-.3-.56,0-.44.25Z"/></svg>
