<svg id="Layer_1" data-name="Layer 1" xmlns="http://www.w3.org/2000/svg" viewBox="0 0 2500 768"><defs><style>.cls-1{fill:#fb9209;}.cls-2{fill:#1f2532;}.cls-3{font-size:155px;letter-spacing:0.05em;}.cls-10,.cls-13,.cls-3,.cls-6{fill:#fff;font-family:AbadiMT-CondensedExtraBold, Abadi MT Condensed Extra Bold;}.cls-4{letter-spacing:0.01em;}.cls-5{letter-spacing:-0.01em;}.cls-6{font-size:128.21px;letter-spacing:0.05em;}.cls-7{letter-spacing:0.01em;}.cls-8{letter-spacing:-0.01em;}.cls-9{letter-spacing:0.05em;}.cls-10{font-size:106.21px;letter-spacing:0.05em;}.cls-11{letter-spacing:0.01em;}.cls-12{letter-spacing:-0.01em;}.cls-13{font-size:67.6px;letter-spacing:0.05em;}.cls-14{letter-spacing:0.01em;}.cls-15{letter-spacing:-0.01em;}.cls-16{letter-spacing:0.05em;}</style></defs><title>privat_snak</title><path class="cls-1" d="M1880.82,380.49l.8,125.8s1.06,9.31,10.11,10.38h59.84l1.06,38.47v1.42l64.9-39.63,340.65.07s12.33-3.08,12.33-10.62V374.85s1.37-10.61-13.36-12.67L1905,363.89Z"/><path class="cls-2" d="M1906.44,364.28,1845,404.57l-1,.6V364.28h-38.55s-9.8-4.19-8.32-12.54L1797,222.15s-2-10.43,10.33-10.43H2355s15.57-3.87,15.57,12.68V351.68s2.67,10.86-10.48,10.9S1906.44,364.28,1906.44,364.28Z"/><text class="cls-3" transform="translate(1863.99 334.26)">PRI<tspan class="cls-4" x="220.45" y="0">V</tspan><tspan class="cls-5" x="301.55" y="0">A</tspan><tspan x="380.16" y="0">T</tspan></text><text class="cls-3" transform="translate(1941.52 484.63)">SNAK</text><path class="cls-1" d="M1286.86,385.93l.61,104.05s.81,7.7,7.7,8.58h45.62l.81,31.83v1.17l49.47-32.78,259.66.06s9.4-2.55,9.4-8.78V381.26s1-8.78-10.18-10.48l-344.64,1.42Z"/><path class="cls-2" d="M1306.39,372.52l-46.86,33.32-.74.5V372.52h-29.38s-7.47-3.47-6.34-10.38L1223,255s-1.49-8.62,7.88-8.62h417.48s11.86-3.21,11.86,10.48V362.09s2,9-8,9Z"/><text class="cls-6" transform="translate(1274.03 347.69) scale(0.92 1)">PRI<tspan class="cls-7" x="182.35" y="0">V</tspan><tspan class="cls-8" x="249.43" y="0">A</tspan><tspan class="cls-9" x="314.45" y="0">T</tspan></text><text class="cls-6" transform="translate(1333.13 472.06) scale(0.92 1)">SNAK</text><path class="cls-1" d="M766.07,385.92l.5,86.2s.68,6.38,6.41,7.11H810.9l.67,26.36v1l41.12-27.15,215.86,0s7.81-2.11,7.81-7.27V382.05s.87-7.27-8.46-8.68l-286.5,1.17Z"/><path class="cls-2" d="M782.3,374.81l-38.95,27.61-.62.41v-28H718.31s-6.22-2.87-5.28-8.6l-.09-88.79s-1.24-7.15,6.55-7.15h347s9.86-2.65,9.86,8.68v87.22s1.69,7.44-6.64,7.47S782.3,374.81,782.3,374.81Z"/><text class="cls-10" transform="translate(755.4 354.24) scale(0.92 1)">PRI<tspan class="cls-11" x="151.06" y="0">V</tspan><tspan class="cls-12" x="206.63" y="0">A</tspan><tspan x="260.49" y="0">T</tspan></text><text class="cls-10" transform="translate(804.53 457.27) scale(0.92 1)">SNAK</text><path class="cls-1" d="M327.47,377.78l.41,54.86a5.57,5.57,0,0,0,5.25,4.52h31.08l.55,16.78v.62l33.71-17.28,176.92,0s6.4-1.35,6.4-4.63V375.32s.71-4.63-6.94-5.53L340,370.54Z"/><path class="cls-2" d="M340.77,370.71l-31.92,17.57-.51.26V370.71h-20s-5.09-1.83-4.32-5.48l-.08-56.51s-1-4.55,5.37-4.55H573.74s8.08-1.69,8.08,5.53v55.51s1.39,4.73-5.44,4.75Z"/><text class="cls-13" transform="translate(318.73 357.61) scale(1.19 1)">PRI<tspan class="cls-14" x="96.14" y="0">V</tspan><tspan class="cls-15" x="131.51" y="0">A</tspan><tspan class="cls-16" x="165.79" y="0">T</tspan></text><text class="cls-13" transform="translate(358.99 423.19) scale(1.19 1)">SNAK</text></svg>
