<?xml version="1.0" encoding="utf-8"?>
<!-- Generator: Adobe Illustrator 22.0.1, SVG Export Plug-In . SVG Version: 6.00 Build 0)  -->
<svg version="1.1" id="Layer_1" xmlns="http://www.w3.org/2000/svg" xmlns:xlink="http://www.w3.org/1999/xlink" x="0px" y="0px"
	 viewBox="0 0 342.4 121.8" style="enable-background:new 0 0 342.4 121.8;" xml:space="preserve">
<style type="text/css">
	.st0{fill:none;stroke:#110A00;stroke-miterlimit:10;}
	.st1{fill:#FFFC00;}
	.st2{fill:#202531;}
	.st3{fill:#F2EB06;}
	.st4{fill:#191D27;}
	.st5{fill:#353B44;}
	.st6{fill:#3A414C;}
	.st7{fill:#F09638;}
</style>
<g>
	<path class="st0" d="M35.2,100.7"/>
	<path class="st1" d="M8.2,1.8V120h325.6V1.8H8.2z M35.2,20.8h56.6l-43.7,6.1l3.7,5.5L40.3,28l-5.1,72.7V20.8z M246.2,100.7
		l53.5-5.8l0.2-14.3l3.5,13.3l3.8-37v43.8H246.2z"/>
	<path class="st2" d="M8.5,1.8V120h325.6V1.8H8.5z M35.2,20.8h56.6l-43.7,6.1l3.7,5.5L40.3,28l-5.1,72.7V20.8z M246.2,100.7
		l53.5-5.8l0.2-14.3l3.5,13.3l3.8-37v43.8H246.2z"/>
	<polygon points="307.2,57 307.2,100.7 246.2,100.7 299.7,95 299.9,80.6 303.4,94 	"/>
	<polygon points="48.1,26.9 51.7,32.4 40.3,28 35.2,100.7 35.2,20.8 91.8,20.8 	"/>
	<path class="st3" d="M32.3,20.7"/>
	<g>
		<polygon class="st4" points="334.1,120 8.2,120 8.5,119.8 35.2,100.7 307.2,100.7 		"/>
		<polygon class="st5" points="334.1,1.8 307.2,20.7 32.6,20.8 8.2,1.8 		"/>
		<polygon class="st6" points="334.1,1.8 334.1,120 334.1,120 307.2,100.7 307.2,20.7 		"/>
		<polyline class="st6" points="8.2,1.8 8.5,2 8.8,2.1 35.2,20.8 35.2,100.7 8.5,119.8 8.2,120 		"/>
	</g>
	<g>
		<g>
			<path class="st4" d="M183.1,47.1c-1.3-1.1-3.1-1.7-5.1-1.7h-14c-2.1,0-3.8,0.6-5.1,1.7c-0.1,0.1-0.3,0.2-0.4,0.4
				c-2.1-1.4-4.7-2.1-7.9-2.1h-7.5c-2.7,0-4.4,1.1-5.4,2.1s-2.1,2.7-2.1,5.4v3.8l-3.4-7.1c-0.7-1.4-1.8-2.6-3.2-3.4
				c-1.1-0.6-2.4-1-3.7-1.1h-0.7c-1.4,0-2.7,0.4-3.9,1.1c-1.1,0.6-2,1.5-2.7,2.6c-0.4-0.7-0.9-1.3-1.5-1.8c-1.3-1.1-3.1-1.7-5.1-1.7
				h-14c-2.1,0-3.8,0.6-5.1,1.7c-0.1,0.1-0.1,0.1-0.2,0.2c-1.1-0.6-2.2-1.1-3.5-1.5C87,45.3,85.3,45,83.4,45c-2.3,0-4.5,0.4-6.5,1.3
				c-2.1,0.9-3.8,2.3-5.1,4c-1.4,1.9-2.1,4.1-2.1,6.4c0,2,0.4,3.8,1.3,5.3c0.1,0.2,0.2,0.3,0.3,0.5c-0.1,0.1-0.3,0.3-0.4,0.5
				c-1.1,1.3-1.7,3-1.7,4.7c0,1.3,0.3,2.4,0.8,3.4c0.5,0.9,1.2,1.7,2.1,2.4l0.2,0.1c1.4,1,3.1,1.7,5,2.2c1.8,0.4,3.7,0.7,5.7,0.7
				c2.4,0,4.6-0.4,6.5-1.2c2.2-0.9,3.9-2.2,5.2-4c1-1.4,1.7-3.1,2-4.8v2.2c0,2.2,0.8,4.1,2.3,5.5c1.4,1.4,3.3,2.1,5.5,2.1
				c2.1,0,4-0.7,5.5-2.1c0.2-0.2,0.5-0.5,0.7-0.8c0.3,0.3,0.6,0.7,1,1c1.4,1.2,3.2,1.8,5,1.8c1.4,0,2.7-0.4,3.9-1.1
				c1.2-0.7,2.2-1.9,2.8-3.2l0.1-0.1h3.3l0.1,0.1c0.6,1.3,1.6,2.5,2.8,3.2s2.5,1.1,3.9,1.1c1.8,0,3.5-0.6,4.9-1.8
				c1.4,1.2,3.1,1.9,5.1,1.9c2.8,0,4.5-1.2,5.5-2.2c0.3-0.3,0.6-0.7,0.9-1.1c0.8,1.1,1.7,2,2.8,2.5c1.1,0.6,2.4,0.9,3.6,0.9
				c1.8,0,3.6-0.6,5-1.8c1.2-1,2.1-2.3,2.4-3.8c0.4,1.3,1,2.4,2,3.3c1.4,1.4,3.3,2.1,5.5,2.1c2.1,0,4-0.7,5.5-2.1s2.3-3.4,2.3-5.5
				v-9.2c1.8-0.1,3.3-0.7,4.4-1.7c1.5-1.3,2.4-3.3,2.4-5.5C185.6,50.3,184.7,48.4,183.1,47.1z"/>
		</g>
		<g>
			<path class="st4" d="M264.7,62h-1.9v-9.1c0-2.1-0.8-4.1-2.2-5.5c-1.4-1.4-3.3-2.2-5.5-2.2c-2.2,0-4.1,0.8-5.5,2.2
				c-0.1,0.1-0.2,0.2-0.3,0.4c-0.1-0.1-0.2-0.3-0.4-0.4c-1.4-1.4-3.3-2.2-5.5-2.2s-4.1,0.8-5.5,2.2c-0.3,0.3-0.6,0.7-0.9,1l0,0
				c-2.2-2-5.2-3.1-8.8-3.1h-7.7c-2.7,0-4.4,1.1-5.4,2.1c-0.2,0.2-0.5,0.5-0.7,0.9c-0.1-0.1-0.3-0.2-0.4-0.3c-1.4-1-3-1.8-4.7-2.3
				c-1.6-0.4-3.3-0.7-5.2-0.7c-2.3,0-4.5,0.4-6.5,1.3c-2.1,0.9-3.8,2.3-5.1,4c-1.4,1.9-2.1,4.1-2.1,6.4c0,2,0.4,3.8,1.3,5.3
				c0.1,0.2,0.2,0.3,0.3,0.5c-0.1,0.1-0.3,0.3-0.4,0.5c-1.1,1.3-1.7,3-1.7,4.7c0,1.3,0.3,2.4,0.8,3.4c0.5,0.9,1.2,1.7,2.1,2.4
				l0.2,0.1c1.4,1,3.1,1.7,5,2.2c1.8,0.4,3.7,0.7,5.7,0.7c2.4,0,4.6-0.4,6.5-1.2c1.5-0.6,2.8-1.5,3.9-2.5c0.3,0.5,0.7,1,1.1,1.4
				c1.4,1.4,3.3,2.2,5.5,2.2s4.1-0.7,5.5-2.2c1.4-1.4,2.2-3.4,2.2-5.5v-0.1c3.3,0,5.6-1,7.2-2.1v2.2c0,2.2,0.8,4.1,2.2,5.5
				s3.3,2.2,5.5,2.2s4.1-0.7,5.5-2.2c0.1-0.1,0.3-0.3,0.4-0.4c0.1,0.1,0.2,0.2,0.3,0.3c1,1,2.7,2.1,5.4,2.1h9.8
				c2.1,0,3.8-0.6,5.1-1.7c1.6-1.3,2.4-3.3,2.4-5.5C272.3,65,269.2,62,264.7,62z"/>
		</g>
	</g>
	<g>
		<path class="st4" d="M183.1,47.1c-1.3-1.1-3.1-1.7-5.1-1.7h-14c-2.1,0-3.8,0.6-5.1,1.7c-0.1,0.1-0.3,0.2-0.4,0.4
			c-2.1-1.4-4.7-2.1-7.9-2.1h-7.5c-2.7,0-4.4,1.1-5.4,2.1s-2.1,2.7-2.1,5.4v3.8l-3.4-7.1c-0.7-1.4-1.8-2.6-3.2-3.4
			c-1.1-0.6-2.4-1-3.7-1.1h-0.7c-1.4,0-2.7,0.4-3.9,1.1c-1.1,0.6-2,1.5-2.7,2.6c-0.4-0.7-0.9-1.3-1.5-1.8c-1.3-1.1-3.1-1.7-5.1-1.7
			h-14c-2.1,0-3.8,0.6-5.1,1.7c-0.1,0.1-0.1,0.1-0.2,0.2c-1.1-0.6-2.2-1.1-3.5-1.5C87,45.3,85.3,45,83.4,45c-2.3,0-4.5,0.4-6.5,1.3
			c-2.1,0.9-3.8,2.3-5.1,4c-1.4,1.9-2.1,4.1-2.1,6.4c0,2,0.4,3.8,1.3,5.3c0.1,0.2,0.2,0.3,0.3,0.5c-0.1,0.1-0.3,0.3-0.4,0.5
			c-1.1,1.3-1.7,3-1.7,4.7c0,1.3,0.3,2.4,0.8,3.4c0.5,0.9,1.2,1.7,2.1,2.4l0.2,0.1c1.4,1,3.1,1.7,5,2.2c1.8,0.4,3.7,0.7,5.7,0.7
			c2.4,0,4.6-0.4,6.5-1.2c2.2-0.9,3.9-2.2,5.2-4c1-1.4,1.7-3.1,2-4.8v2.2c0,2.2,0.8,4.1,2.3,5.5c1.4,1.4,3.3,2.1,5.5,2.1
			c2.1,0,4-0.7,5.5-2.1c0.2-0.2,0.5-0.5,0.7-0.8c0.3,0.3,0.6,0.7,1,1c1.4,1.2,3.2,1.8,5,1.8c1.4,0,2.7-0.4,3.9-1.1
			c1.2-0.7,2.2-1.9,2.8-3.2l0.1-0.1h3.3l0.1,0.1c0.6,1.3,1.6,2.5,2.8,3.2s2.5,1.1,3.9,1.1c1.8,0,3.5-0.6,4.9-1.8
			c1.4,1.2,3.1,1.9,5.1,1.9c2.8,0,4.5-1.2,5.5-2.2c0.3-0.3,0.6-0.7,0.9-1.1c0.8,1.1,1.7,2,2.8,2.5c1.1,0.6,2.4,0.9,3.6,0.9
			c1.8,0,3.6-0.6,5-1.8c1.2-1,2.1-2.3,2.4-3.8c0.4,1.3,1,2.4,2,3.3c1.4,1.4,3.3,2.1,5.5,2.1c2.1,0,4-0.7,5.5-2.1s2.3-3.4,2.3-5.5
			v-9.2c1.8-0.1,3.3-0.7,4.4-1.7c1.5-1.3,2.4-3.3,2.4-5.5C185.6,50.3,184.7,48.4,183.1,47.1z"/>
		<path class="st4" d="M264.7,62h-1.9v-9.1c0-2.1-0.8-4.1-2.2-5.5c-1.4-1.4-3.3-2.2-5.5-2.2c-2.2,0-4.1,0.8-5.5,2.2
			c-0.1,0.1-0.2,0.2-0.3,0.4c-0.1-0.1-0.2-0.3-0.4-0.4c-1.4-1.4-3.3-2.2-5.5-2.2s-4.1,0.8-5.5,2.2c-0.3,0.3-0.6,0.7-0.9,1l0,0
			c-2.2-2-5.2-3.1-8.8-3.1h-7.7c-2.7,0-4.4,1.1-5.4,2.1c-0.2,0.2-0.5,0.5-0.7,0.9c-0.1-0.1-0.3-0.2-0.4-0.3c-1.4-1-3-1.8-4.7-2.3
			c-1.6-0.4-3.3-0.7-5.2-0.7c-2.3,0-4.5,0.4-6.5,1.3c-2.1,0.9-3.8,2.3-5.1,4c-1.4,1.9-2.1,4.1-2.1,6.4c0,2,0.4,3.8,1.3,5.3
			c0.1,0.2,0.2,0.3,0.3,0.5c-0.1,0.1-0.3,0.3-0.4,0.5c-1.1,1.3-1.7,3-1.7,4.7c0,1.3,0.3,2.4,0.8,3.4c0.5,0.9,1.2,1.7,2.1,2.4
			l0.2,0.1c1.4,1,3.1,1.7,5,2.2c1.8,0.4,3.7,0.7,5.7,0.7c2.4,0,4.6-0.4,6.5-1.2c1.5-0.6,2.8-1.5,3.9-2.5c0.3,0.5,0.7,1,1.1,1.4
			c1.4,1.4,3.3,2.2,5.5,2.2s4.1-0.7,5.5-2.2c1.4-1.4,2.2-3.4,2.2-5.5v-0.1c3.3,0,5.6-1,7.2-2.1v2.2c0,2.2,0.8,4.1,2.2,5.5
			s3.3,2.2,5.5,2.2s4.1-0.7,5.5-2.2c0.1-0.1,0.3-0.3,0.4-0.4c0.1,0.1,0.2,0.2,0.3,0.3c1,1,2.7,2.1,5.4,2.1h9.8
			c2.1,0,3.8-0.6,5.1-1.7c1.6-1.3,2.4-3.3,2.4-5.5C272.3,65,269.2,62,264.7,62z"/>
	</g>
	<path class="st7" d="M88.8,60.2c-1.1-0.6-2.6-1.1-4.5-1.5c-1.2-0.2-2.1-0.5-2.7-0.7s-1-0.5-1.2-0.7s-0.3-0.5-0.3-0.9
		c0-0.6,0.3-1.1,0.9-1.5s1.4-0.6,2.4-0.6c0.7,0,1.4,0.1,2,0.2c0.6,0.1,1.2,0.3,1.6,0.6c0.5,0.2,0.8,0.4,0.8,0.5
		c0.4,0.2,0.7,0.4,0.9,0.5c0.2,0.1,0.5,0.1,0.7,0.1c0.5,0,0.9-0.2,1.3-0.7c0.4-0.4,0.5-1,0.5-1.6c0-0.4-0.1-0.8-0.2-1.1
		c-0.2-0.3-0.4-0.6-0.8-0.8c-0.9-0.7-2-1.2-3.1-1.5S84.6,50,83.2,50c-1.7,0-3.2,0.3-4.5,0.9c-1.3,0.6-2.4,1.4-3.2,2.5
		c-0.8,1-1.1,2.2-1.1,3.5c0,1.1,0.2,2.1,0.7,2.9c0.5,0.8,1.3,1.5,2.4,2.1s2.7,1.1,4.7,1.5c1.6,0.3,2.7,0.6,3.2,1
		c0.5,0.3,0.8,0.7,0.8,1.1c0,0.7-0.3,1.1-0.9,1.5c-0.6,0.3-1.5,0.5-2.6,0.5c-1,0-1.9-0.1-2.7-0.3c-0.8-0.2-1.6-0.5-2.4-1
		c-0.4-0.2-0.7-0.4-0.9-0.5c-0.2-0.1-0.5-0.1-0.8-0.1c-0.5,0-0.9,0.2-1.3,0.7c-0.4,0.4-0.6,1-0.6,1.6c0,0.4,0.1,0.8,0.2,1.1
		c0.2,0.3,0.4,0.6,0.8,0.8c0.9,0.6,2,1.1,3.4,1.5c1.4,0.3,2.9,0.5,4.5,0.5c1.8,0,3.3-0.3,4.6-0.8c1.3-0.6,2.4-1.3,3.1-2.4
		c0.7-1,1.1-2.2,1.1-3.5c0-1.1-0.2-2-0.7-2.8S89.9,60.8,88.8,60.2z"/>
	<path class="st7" d="M113.4,50.8c-0.4-0.4-1.1-0.6-2-0.6h-14c-0.9,0-1.6,0.2-2,0.6c-0.4,0.4-0.7,1-0.7,1.7s0.2,1.4,0.7,1.7
		c0.4,0.4,1.1,0.6,2,0.6h4.1v14c0,0.8,0.3,1.5,0.8,2s1.2,0.8,2.1,0.8s1.5-0.3,2.1-0.8c0.5-0.5,0.8-1.2,0.8-2v-14h4.1
		c0.9,0,1.6-0.2,2-0.6c0.4-0.4,0.7-1,0.7-1.7S113.8,51.2,113.4,50.8z"/>
	<path class="st7" d="M135.6,68l-7.9-16.2c-0.3-0.5-0.7-1-1.2-1.3s-1.1-0.4-1.7-0.4s-1.2,0.1-1.7,0.4c-0.5,0.3-0.9,0.7-1.2,1.3
		L114,68c-0.2,0.4-0.3,0.8-0.3,1.1c0,0.7,0.3,1.3,0.8,1.7c0.6,0.5,1.2,0.7,1.9,0.7c0.5,0,0.9-0.1,1.3-0.4c0.4-0.2,0.7-0.6,0.9-1.1
		l1.4-3h9.6l1.3,3c0.2,0.5,0.5,0.9,0.9,1.1s0.8,0.4,1.3,0.4c0.7,0,1.3-0.2,1.9-0.7c0.5-0.5,0.8-1.1,0.8-1.7
		C135.9,68.8,135.8,68.4,135.6,68z M122,62.9l2.9-6.4l2.9,6.4H122z"/>
	<path class="st7" d="M158.3,67.9l-1.9-2.7c-0.5-0.7-1-1.2-1.5-1.5c-0.4-0.3-0.9-0.5-1.4-0.6c1.5-0.4,2.6-1.1,3.4-2.2
		c0.9-1.1,1.3-2.5,1.3-4.1c0-2.1-0.7-3.7-1.9-4.9c-1.3-1.1-3.2-1.7-5.8-1.7H143c-0.8,0-1.5,0.2-1.9,0.7c-0.5,0.5-0.7,1.1-0.7,1.9v16
		c0,0.9,0.2,1.5,0.8,2c0.5,0.5,1.2,0.8,2,0.8c0.9,0,1.5-0.2,2-0.8c0.5-0.5,0.7-1.2,0.7-2v-5.3h1.9c0.4,0,0.8,0.1,1.1,0.3
		c0.3,0.2,0.6,0.5,0.9,0.9l3.9,5.7c0.3,0.4,0.7,0.8,1.1,1c0.4,0.2,0.9,0.3,1.4,0.3c0.7,0,1.4-0.2,1.9-0.7c0.5-0.4,0.8-1,0.8-1.6
		C158.9,69,158.7,68.4,158.3,67.9z M152.3,58.8c-0.5,0.4-1.4,0.6-2.6,0.6h-3.8v-4.8h3.8c1.2,0,2.1,0.2,2.6,0.6
		c0.5,0.4,0.8,1,0.8,1.8C153,57.8,152.8,58.4,152.3,58.8z"/>
	<path class="st7" d="M178,50.3h-14c-0.9,0-1.6,0.2-2,0.6c-0.4,0.4-0.7,1-0.7,1.7s0.2,1.4,0.7,1.7c0.4,0.4,1.1,0.6,2,0.6h4.1v14
		c0,0.8,0.3,1.5,0.8,2s1.2,0.8,2.1,0.8c0.9,0,1.5-0.3,2.1-0.8c0.5-0.5,0.8-1.2,0.8-2v-14h4.1c0.9,0,1.6-0.2,2-0.6
		c0.4-0.4,0.7-1,0.7-1.7s-0.2-1.4-0.7-1.7C179.6,50.5,178.9,50.3,178,50.3z"/>
	<path class="st7" d="M209.5,60.2L209.5,60.2c-1.1-0.6-2.6-1.1-4.5-1.5c-1.2-0.2-2.1-0.5-2.7-0.7c-0.6-0.2-1-0.5-1.2-0.7
		s-0.3-0.5-0.3-0.9c0-0.6,0.3-1.1,0.9-1.5c0.6-0.4,1.4-0.6,2.4-0.6c0.7,0,1.4,0.1,2,0.2c0.6,0.1,1.2,0.3,1.6,0.6
		c0.5,0.2,0.8,0.4,0.8,0.5c0.4,0.2,0.7,0.4,0.9,0.5s0.5,0.1,0.7,0.1c0.5,0,0.9-0.2,1.3-0.7c0.4-0.4,0.5-1,0.5-1.6
		c0-0.4-0.1-0.8-0.2-1.1c-0.2-0.3-0.4-0.6-0.8-0.8c-0.9-0.7-2-1.2-3.1-1.5s-2.5-0.5-3.9-0.5c-1.7,0-3.2,0.3-4.5,0.9
		c-1.3,0.6-2.4,1.4-3.2,2.5c-0.8,1-1.1,2.2-1.1,3.5c0,1.1,0.2,2.1,0.7,2.9c0.5,0.8,1.3,1.5,2.4,2.1c1.1,0.6,2.7,1.1,4.7,1.5
		c1.6,0.3,2.7,0.6,3.2,1c0.5,0.3,0.8,0.7,0.8,1.1c0,0.7-0.3,1.1-0.9,1.5c-0.6,0.3-1.5,0.5-2.6,0.5c-1,0-1.9-0.1-2.7-0.3
		c-0.8-0.2-1.6-0.5-2.4-1c-0.4-0.2-0.7-0.4-0.9-0.5s-0.5-0.1-0.8-0.1c-0.5,0-0.9,0.2-1.3,0.7c-0.4,0.4-0.6,1-0.6,1.6
		c0,0.4,0.1,0.8,0.2,1.1c0.2,0.3,0.4,0.6,0.8,0.8c0.9,0.6,2,1.1,3.4,1.5c1.4,0.3,2.9,0.5,4.5,0.5c1.8,0,3.3-0.3,4.6-0.8
		c1.3-0.6,2.4-1.3,3.1-2.4c0.7-1,1.1-2.2,1.1-3.5c0-1.1-0.2-2-0.7-2.8S210.6,60.8,209.5,60.2z"/>
	<path class="st7" d="M233.7,52.1c-1.3-1.2-3.2-1.8-5.5-1.8h-7.7c-0.8,0-1.5,0.2-1.9,0.7c-0.5,0.5-0.7,1.1-0.7,1.9v16
		c0,0.9,0.2,1.5,0.7,2s1.2,0.8,2,0.8c0.9,0,1.6-0.2,2.1-0.8c0.5-0.5,0.8-1.2,0.8-2v-5h4.6c2.3,0,4.2-0.6,5.5-1.8s2-2.9,2-5
		C235.6,55,235,53.3,233.7,52.1z M229.6,59c-0.5,0.4-1.2,0.6-2.2,0.6h-3.9v-5h3.9c2,0,2.9,0.8,2.9,2.5C230.3,58,230.1,58.6,229.6,59
		z"/>
	<path class="st7" d="M243.3,50.1c-0.9,0-1.5,0.3-2,0.8s-0.8,1.2-0.8,2v16c0,0.9,0.3,1.5,0.8,2s1.2,0.8,2,0.8c0.9,0,1.6-0.3,2.1-0.8
		s0.8-1.2,0.8-2v-16c0-0.8-0.3-1.5-0.8-2C244.9,50.4,244.2,50.1,243.3,50.1z"/>
	<path class="st7" d="M264.7,66.9h-6.8v-14c0-0.8-0.3-1.5-0.8-2s-1.2-0.8-2.1-0.8c-0.9,0-1.5,0.3-2,0.8s-0.8,1.2-0.8,2v16
		c0,0.9,0.2,1.5,0.7,2c0.4,0.5,1.1,0.7,1.9,0.7h9.8c0.9,0,1.6-0.2,2-0.6s0.7-1,0.7-1.7C267.4,67.7,266.5,66.9,264.7,66.9z"/>
</g>
</svg>
