<svg id="Layer_1" data-name="Layer 1" xmlns="http://www.w3.org/2000/svg" viewBox="0 0 566.93 283.46"><defs><style>.cls-1{fill:#ac8370;}.cls-1,.cls-2,.cls-3,.cls-4,.cls-8{stroke:#262424;stroke-miterlimit:10;}.cls-1,.cls-2{stroke-width:4px;}.cls-2{fill:#b6937e;}.cls-3,.cls-7{fill:#fff;}.cls-3,.cls-4,.cls-8{stroke-width:2px;}.cls-4{fill:#9c7a52;}.cls-5{fill:#262424;}.cls-6{fill:#6c6d70;}.cls-8{fill:none;}</style></defs><title>stormblinker</title><path class="cls-1" d="M53.81,133.3S62.15,167,64.43,168.44c0,0,14.78,64.68,20.85,67.3,0,0,15.17,19.81,42.09,23.55,0,0,11.75,9,24.26,4.11,0,0,10.24,3.37,23.51-9.72,0,0,37.91-24.3,37.15-37.76,0,0,2.66-63.55-1.89-67.66,0,0,1.14-37.39-1.14-41.5L166.42,59.28,121.68,51.8,90.21,61.89,63.29,87.69Z"/><path class="cls-2" d="M74,210.44c-9.34,7.22-16.82-5.73-16.82-5.73C45.85,201,42.44,172.93,42.44,172.93c.38-22.43,18.38-10.15,18.38-10.15Z"/><path class="cls-2" d="M215.41,185.88c11.21,3.88,14.06-10.76,14.06-10.76,9.56-7.14,3.65-34.78,3.65-34.78-7.68-21.12-20.72-3.78-20.72-3.78Z"/><path class="cls-3" d="M195.92,149.75c-28.59-6.38-42.56,8.45-42.56,8.45s-1.52,3.51,3.38,5.38c0,0,23.11,10.84,37.73-7.84C194.47,155.74,199.27,150.5,195.92,149.75Z"/><path class="cls-4" d="M163.67,151.69l17.53-3.52s2.25,9.71-6.08,11.25C175.12,159.42,165.48,161.85,163.67,151.69Z"/><path class="cls-5" d="M154.29,132.75c1.25-1.77,4.49-2,6.43-2.74a23.88,23.88,0,0,1,9.08-2.19c5.9-.06,14-.68,19.28,2.35,2.79,1.61,5.31-2.71,2.52-4.31-6.61-3.81-16.73-3.48-24.11-3-4,.27-7.15,2-10.86,3.27-2.81.92-4.9,1.6-6.65,4.09s2.47,5.13,4.31,2.52Z"/><path class="cls-5" d="M154.27,127.54c-1.8,2.87,3.38.29,3.66.16a21.17,21.17,0,0,1,6.3-1.65c4.65-.56,9.36.11,14,.77,3.15.45,4.51-4.36,1.33-4.82-8.77-1.25-22.15-3.16-28.84,4.68-1.78,2.09-2,5.13.67,6.59,3.07,1.66,5.71-.77,7.24-3.21,1.72-2.73-2.61-5.24-4.32-2.52Z"/><path class="cls-5" d="M173.24,155.24c3.22,0,3.22-5,0-5s-3.22,5,0,5Z"/><path class="cls-3" d="M82.94,170.49c24.77-15.46,43-6.1,43-6.1s2.62,2.81-1.35,6.19c0,0-18.11,17.84-38.22,5.07C86.35,175.65,80,172.3,82.94,170.49Z"/><path class="cls-4" d="M114,161.66l-17.71,2.47s1.18,9.9,9.55,8.6C105.83,172.73,115.74,171.83,114,161.66Z"/><path class="cls-5" d="M119.26,136.66c-2.65-1.87-5.31-1.37-8.38-1.34-3.81,0-7-.52-10.76.61-6.87,2.09-16.26,4.85-21.07,10.47-2.08,2.43,1.44,6,3.54,3.53,4-4.68,11.69-6.77,17.34-8.68a20.84,20.84,0,0,1,8.45-1.05c2.45.15,6.26-.7,8.36.78,2.63,1.86,5.13-2.48,2.52-4.32Z"/><path class="cls-5" d="M111.78,139.86c6.25,4.66,12.36-3.29,5.24-6.42-9.24-4.07-19.74,1.15-27.86,5.38-2.86,1.49-.33,5.8,2.52,4.32a63.76,63.76,0,0,1,10.94-4.89,24.91,24.91,0,0,1,6-1.1,15.39,15.39,0,0,1,2.54,0q3.38,1.94,3.15-1.62c-2.58-1.93-5.08,2.41-2.52,4.31Z"/><path class="cls-5" d="M105.33,168.32c3.22,0,3.22-5,0-5s-3.22,5,0,5Z"/><path class="cls-5" d="M127.21,194.3c-1.77,2.7-3.26,7.13.59,8.9,1.71.79,4,.05,5.78.48,1.44.36,2.76,1.34,4.17,1.8a12.33,12.33,0,0,0,6.94.32c2.43-.62,4-2,5.94-3.52,1.71-1.36,2.7-1.52,4.69-2.07,1.41-.39,1.78-.15,3-1.05,3-2.24,2.43-6.09-.15-8.3-.61-.52-1.5.36-.89.88q.54,7.14-3.88,7.21a7.41,7.41,0,0,0-.8.07c-.35.27-.82.4-1.2.64-2.62,1.66-3.7,4.12-7,4.94s-6-.46-9.05-1.58c-.93-.34-2.13-.48-3-.85l-1.47,0q-5.64-3.78-2.52-7.27c.44-.67-.64-1.3-1.08-.63Z"/><path class="cls-5" d="M145.93,155.05c2.12,3.25,4.42,6.69,5.22,10.55.85,4.08-.55,8.08-.07,12.17.09.79,1.34.8,1.25,0-.49-4.19.94-8.33,0-12.5-.87-4-3.16-7.49-5.35-10.85-.44-.67-1.52,0-1.08.63Z"/><path class="cls-5" d="M51,167.11a22.89,22.89,0,0,1,7.88,5.07,18.7,18.7,0,0,0,5.29,4.12c.73.33,1.36-.75.63-1.08-2.81-1.27-4.59-3.74-6.92-5.65a23.83,23.83,0,0,0-6.55-3.66c-.75-.3-1.07.91-.33,1.2Z"/><path class="cls-5" d="M62.32,197.77a10.49,10.49,0,0,0,10.06,7.07.63.63,0,0,0,0-1.25,9.2,9.2,0,0,1-8.85-6.15c-.26-.76-1.47-.44-1.21.33Z"/><path class="cls-5" d="M59.21,188.89A27.62,27.62,0,0,1,58.72,172a.62.62,0,0,0-1.2-.34A28.79,28.79,0,0,0,58,189.22c.26.76,1.47.43,1.2-.33Z"/><path class="cls-5" d="M221.78,139.56a9.89,9.89,0,0,0-9.1,11.8c.14.79,1.35.46,1.2-.33a8.63,8.63,0,0,1,7.9-10.22c.8-.07.8-1.32,0-1.25Z"/><path class="cls-5" d="M213.19,146.79a14.94,14.94,0,0,1,7.42,11.94c0,.8,1.3.8,1.25,0a16.23,16.23,0,0,0-8-13,.63.63,0,0,0-.63,1.08Z"/><path class="cls-5" d="M215,178.23a12.43,12.43,0,0,0,6.59-8.87c.14-.79-1.06-1.13-1.21-.34a11.32,11.32,0,0,1-6,8.14c-.71.37-.08,1.45.63,1.07Z"/><path class="cls-5" d="M122.93,232.91c6.14-4.3,13.39-4.8,20.68-4.78,7.85,0,15.7.22,23.55.34a1.25,1.25,0,0,0,0-2.5c-8.87-.13-17.8-.53-26.68-.31-6.7.16-13.23,1.18-18.81,5.09-1.31.92-.06,3.09,1.26,2.16Z"/><path class="cls-5" d="M128.52,239.29a46.15,46.15,0,0,0,22.7-.41,1.25,1.25,0,0,0-.66-2.41,43.2,43.2,0,0,1-21.37.41c-1.57-.36-2.24,2-.67,2.41Z"/><path class="cls-5" d="M122.6,225c-2.21,3.78-4.16,8-2.2,12.27.67,1.47,2.83.2,2.16-1.26-1.52-3.32.54-6.91,2.19-9.75A1.25,1.25,0,0,0,122.6,225Z"/><path class="cls-5" d="M167,221.52a30.55,30.55,0,0,1,1.57,7.86c.1,1.6,2.6,1.61,2.5,0a33.48,33.48,0,0,0-1.66-8.53c-.52-1.51-2.93-.86-2.41.67Z"/><path class="cls-5" d="M149.35,255.61a18.43,18.43,0,0,0,.62,8.15c.48,1.53,2.89.88,2.41-.66a15.65,15.65,0,0,1-.62-6.83c.22-1.57-2.19-2.25-2.41-.66Z"/><path d="M97.85,30.59a21.77,21.77,0,0,1,0-4c.8-4.31,4-6.26,7.92-7.31,1.21-.32,2.46-.51,3.69-.76,5.31-1.05,9.67.88,13.52,4.27a2.8,2.8,0,0,0,2.82.81,94,94,0,0,1,20.57-2,72.12,72.12,0,0,1,35.28,9.21,10.94,10.94,0,0,0,4,1.45c5.34.74,9.16,3.92,12.32,8,4.16,5.32,6.8,11.42,9,17.71a159.26,159.26,0,0,1,6.61,26.87c.77,4.73,1.36,9.49,2.08,14.23.38,2.47-.8,4.25-2.53,5.75a10,10,0,0,1-7.9,2.25c-3.7-.41-7.34-1.19-11-1.66-6-.76-12-1.47-18.07-2.08a201.83,201.83,0,0,0-24-.65A103.12,103.12,0,0,0,138,104.17c-6.93,1.11-13.83,2.42-20.78,3.39-20.23,2.81-38.74,10.08-56,20.67a45.94,45.94,0,0,1-5.07,3c-5,2.21-9.57.78-12.52-3.74a27.68,27.68,0,0,1-3.74-10.1c-1.69-8.67-1.84-17.43-1.53-26.21.11-3.2.23-6.4.42-9.6.18-2.89.46-5.78.74-8.67a5.8,5.8,0,0,1,.57-1.67A53.71,53.71,0,0,1,53.73,53.35c9.82-8.67,21.3-14.49,33.5-19.08,3-1.14,6.1-2.11,9.16-3.15C96.89,31,97.38,30.76,97.85,30.59ZM183,36.26l-.11.06.15-.06a5.18,5.18,0,0,0,.79,1.18,26.74,26.74,0,0,1,7.92,11.49c2.75,7.51,5.55,15,8,22.63a87.66,87.66,0,0,1,4.18,23.72c.08,2.42,0,4.84,0,7.26a7.35,7.35,0,0,0,5.57-.43,2.83,2.83,0,0,0,1.81-3.46c-.92-6-1.73-12-2.81-17.9a130.59,130.59,0,0,0-6.9-25c-2-5-4.26-9.8-7.8-13.93C191,38.56,187.58,36.25,183,36.26Zm18.17,65.9c.05-.44.1-.67.1-.9a85.42,85.42,0,0,0-1.64-18.74c-2.15-11-6.1-21.54-10.07-32a23.7,23.7,0,0,0-7.43-10.75c-4.4-3.4-8.91-6.66-13.39-9.95a6.24,6.24,0,0,0-1.8-.81,71.65,71.65,0,0,0-20-3.19,97.13,97.13,0,0,0-31.19,4.86,11.15,11.15,0,0,0-1.16.51C119,40,120.89,49.58,123,58.91c3.16-.08,6.1-.21,9-.2a30.72,30.72,0,0,1,14.38,3.48c7,3.64,11.36,9.44,13.72,16.7,2,6.29,4,12.64,4,19.5A248.56,248.56,0,0,1,201.16,102.16ZM91,109.45c-.39-3-.85-5.73-1.08-8.49-.46-5.37-.77-10.76.15-16.13,2.14-12.6,9.38-20.74,21.85-24.22,2.64-.74,5.39-1.06,8.26-1.61-2-9.36-3.89-18.73-8.45-27.35-.63.09-1.11.11-1.57.22a157.76,157.76,0,0,0-29.17,9.55A93.82,93.82,0,0,0,56.08,57c-3.63,3.26-3.74,3.24-3.65,8,.18,9.72.38,19.44.74,29.15.19,4.85.59,9.7,1.21,14.51A27.19,27.19,0,0,0,60,122.36a8.84,8.84,0,0,1,.69,1.16A163.76,163.76,0,0,1,91,109.45Zm65.89-26.73c-1.49-5.35-3.86-9.93-7.85-13.58-5-4.56-11.15-6.16-17.74-6.28-3.11,0-6.23.48-9.35.53A35,35,0,0,0,112,65c-7.3,2.3-12.88,6.63-15.78,13.78a38.18,38.18,0,0,0-2,7.52,17.63,17.63,0,0,0-.28,6.58A135.85,135.85,0,0,1,156.84,82.72ZM142.9,99c.18-1.32.47-2.72.56-4.12a15.38,15.38,0,0,0-1-7.16,1.55,1.55,0,0,0-1.76-1.12c-2.16.17-4.33.22-6.48.44A131.36,131.36,0,0,0,104.4,93.4C100.9,94.6,97.48,96,94,97.34A43.87,43.87,0,0,0,95,107.11ZM49.73,64.45l-.44,0a34.83,34.83,0,0,0-4.77,7.68,9.8,9.8,0,0,0-.93,3.2,210.52,210.52,0,0,0-.94,27.51c.25,5.27.56,10.54,2,15.66A29.81,29.81,0,0,0,47.22,125c1.66,3,4.19,3.73,7.33,2.29A40,40,0,0,0,58.36,125c-1.07-1.69-2.13-3.19-3-4.79a37.48,37.48,0,0,1-4.2-16c-.63-9.93-1-19.87-1.39-29.81C49.62,71.07,49.73,67.75,49.73,64.45ZM159.78,97.19A36.3,36.3,0,0,0,157.87,87L147,86.48c.29,2.18.68,4.1.76,6s-.13,3.87-.22,5.94ZM102.55,30.66l17.71-4.51a13.13,13.13,0,0,0-5.57-3.3c-3.31-1-6.43.17-9.45,1.18S101.4,27.4,102.55,30.66Z"/><path class="cls-6" d="M201.16,102.16a248.56,248.56,0,0,0-37.11-3.77c0-6.86-1.93-13.21-4-19.5-2.36-7.26-6.75-13.06-13.72-16.7A30.72,30.72,0,0,0,132,58.71c-2.94,0-5.88.12-9,.2-2.06-9.33-3.94-18.87-8.4-27.74a11.15,11.15,0,0,1,1.16-.51A97.13,97.13,0,0,1,146.9,25.8a71.65,71.65,0,0,1,20,3.19,6.24,6.24,0,0,1,1.8.81c4.48,3.29,9,6.55,13.39,10a23.7,23.7,0,0,1,7.43,10.75c4,10.48,7.92,21,10.07,32a85.42,85.42,0,0,1,1.64,18.74C201.26,101.49,201.21,101.72,201.16,102.16ZM152.08,38.72a15.52,15.52,0,0,0,2.06-.52c1.05-.43,1.37-1.1,1.05-1.92s-.88-1-2-.64c-1.73.56-2.74.13-3.42-1.48-.49-1.16-1-1.5-1.77-1.2s-1.05,1-.76,2.09A5.47,5.47,0,0,0,152.08,38.72Z"/><path class="cls-6" d="M91,109.45a163.76,163.76,0,0,0-30.31,14.07,8.84,8.84,0,0,0-.69-1.16,27.19,27.19,0,0,1-5.57-13.7c-.62-4.81-1-9.66-1.21-14.51-.36-9.71-.56-19.43-.74-29.15-.09-4.77,0-4.75,3.65-8A93.82,93.82,0,0,1,80.94,41.42a157.76,157.76,0,0,1,29.17-9.55c.46-.11.94-.13,1.57-.22,4.56,8.62,6.48,18,8.45,27.35-2.87.55-5.62.87-8.26,1.61C99.4,64.09,92.16,72.23,90,84.83c-.92,5.37-.61,10.76-.15,16.13C90.1,103.72,90.56,106.46,91,109.45ZM81,47.13c-1.39,0-1.93.32-2,1.22s.51,1.26,1.27,1.47c3,.78,6.69-2.08,6.63-5.11,0-.75-.3-1.3-1.07-1.4a1.24,1.24,0,0,0-1.57,1c0,.12,0,.24,0,.35A2.87,2.87,0,0,1,81,47.13Z"/><path class="cls-6" d="M142.9,99,95,107.11A43.87,43.87,0,0,1,94,97.34C97.48,96,100.9,94.6,104.4,93.4A131.36,131.36,0,0,1,134.26,87c2.15-.22,4.32-.27,6.48-.44a1.55,1.55,0,0,1,1.76,1.12,15.38,15.38,0,0,1,1,7.16C143.37,96.28,143.08,97.68,142.9,99ZM137,91.3a1.28,1.28,0,0,0-1.32,1.35,1.2,1.2,0,0,0,1.19,1.28,1.26,1.26,0,0,0,1.42-1.24A1.31,1.31,0,0,0,137,91.3Zm-10.62,3.38a1.31,1.31,0,1,0-2.61.25,1.2,1.2,0,0,0,1.33,1.14A1.27,1.27,0,0,0,126.42,94.68Zm-11.2,2.2a1.31,1.31,0,1,0-2.62.13,1.22,1.22,0,0,0,1.28,1.2A1.26,1.26,0,0,0,115.22,96.88Zm-11.51,4.53a1.27,1.27,0,0,0,1.4-1.27,1.3,1.3,0,0,0-1.32-1.36,1.32,1.32,0,0,0-.08,2.63Z"/><path class="cls-6" d="M49.73,64.45c0,3.3-.11,6.62,0,9.92.4,9.94.76,19.88,1.39,29.81a37.48,37.48,0,0,0,4.2,16c.89,1.6,1.95,3.1,3,4.79a40,40,0,0,1-3.81,2.29c-3.14,1.44-5.67.74-7.33-2.29a29.81,29.81,0,0,1-2.61-6.57c-1.4-5.12-1.71-10.39-2-15.66a210.52,210.52,0,0,1,.94-27.51,9.8,9.8,0,0,1,.93-3.2,34.83,34.83,0,0,1,4.77-7.68Z"/><path class="cls-6" d="M183,36.26c4.59,0,8,2.3,10.78,5.59,3.54,4.13,5.83,9,7.8,13.93a130.59,130.59,0,0,1,6.9,25c1.08,5.94,1.89,11.93,2.81,17.9a2.83,2.83,0,0,1-1.81,3.46,7.35,7.35,0,0,1-5.57.43c0-2.42.07-4.84,0-7.26a87.66,87.66,0,0,0-4.18-23.72c-2.42-7.62-5.22-15.12-8-22.63a26.74,26.74,0,0,0-7.92-11.49,5.18,5.18,0,0,1-.79-1.18Z"/><path class="cls-6" d="M159.78,97.19l-12.29,1.27c.09-2.07.31-4,.22-5.94s-.47-3.86-.76-6l10.92.5A36.3,36.3,0,0,1,159.78,97.19Zm-8.65-4.33a1.31,1.31,0,0,0,0-2.62,1.3,1.3,0,0,0-1.38,1.3A1.25,1.25,0,0,0,151.13,92.86Z"/><path class="cls-6" d="M102.55,30.66c-1.15-3.26-.32-5.63,2.69-6.63s6.14-2.13,9.45-1.18a13.13,13.13,0,0,1,5.57,3.3Z"/><polygon class="cls-7" points="183.03 36.26 182.88 36.32 182.99 36.26 183.03 36.26"/><path d="M152.08,38.72a5.47,5.47,0,0,1-4.87-3.67c-.29-1.07,0-1.78.76-2.09s1.28,0,1.77,1.2c.68,1.61,1.69,2,3.42,1.48,1.15-.37,1.71-.19,2,.64s0,1.49-1.05,1.92A15.52,15.52,0,0,1,152.08,38.72Z"/><path d="M81,47.13a2.87,2.87,0,0,0,3.23-2.42c0-.11,0-.23,0-.35a1.24,1.24,0,0,1,1.57-1c.77.1,1.05.65,1.07,1.4.06,3-3.64,5.89-6.63,5.11-.76-.21-1.31-.61-1.27-1.47S79.61,47.12,81,47.13Z"/><path d="M137,91.3a1.31,1.31,0,0,1,1.29,1.39,1.26,1.26,0,0,1-1.42,1.24,1.2,1.2,0,0,1-1.19-1.28A1.28,1.28,0,0,1,137,91.3Z"/><path d="M126.42,94.68a1.27,1.27,0,0,1-1.28,1.39,1.2,1.2,0,0,1-1.33-1.14,1.31,1.31,0,1,1,2.61-.25Z"/><path d="M115.22,96.88a1.26,1.26,0,0,1-1.34,1.33A1.22,1.22,0,0,1,112.6,97a1.31,1.31,0,1,1,2.62-.13Z"/><path d="M103.71,101.41a1.32,1.32,0,0,1,.08-2.63,1.3,1.3,0,0,1,1.32,1.36A1.27,1.27,0,0,1,103.71,101.41Z"/><path d="M151.13,92.86a1.25,1.25,0,0,1-1.34-1.32,1.3,1.3,0,0,1,1.38-1.3,1.31,1.31,0,0,1,0,2.62Z"/><path class="cls-1" d="M342.42,133.3S350.76,167,353,168.44c0,0,14.78,64.68,20.85,67.3,0,0,15.17,19.81,42.09,23.55,0,0,11.75,9,24.26,4.11,0,0,10.24,3.37,23.51-9.72,0,0,37.91-24.3,37.15-37.76,0,0,2.66-63.55-1.89-67.66,0,0,1.14-37.39-1.14-41.5L455,59.28,410.29,51.8,378.82,61.89,351.9,87.69Z"/><path class="cls-2" d="M362.65,210.44c-9.34,7.22-16.82-5.73-16.82-5.73-11.37-3.74-14.78-31.78-14.78-31.78.38-22.43,18.38-10.15,18.38-10.15Z"/><path class="cls-2" d="M504,185.88c11.2,3.88,14.05-10.76,14.05-10.76,9.56-7.14,3.65-34.78,3.65-34.78-7.68-21.12-20.72-3.78-20.72-3.78Z"/><path class="cls-5" d="M442.9,132.75c1.25-1.77,4.49-2,6.44-2.74a23.78,23.78,0,0,1,9.07-2.19c5.9-.06,14-.68,19.28,2.35,2.79,1.61,5.31-2.71,2.52-4.31-6.61-3.81-16.73-3.48-24.11-3-4,.27-7.15,2-10.86,3.27-2.81.92-4.9,1.6-6.65,4.09s2.47,5.13,4.31,2.52Z"/><path class="cls-5" d="M442.88,127.54c-1.8,2.87,3.38.29,3.66.16a21.25,21.25,0,0,1,6.3-1.65c4.65-.56,9.36.11,14,.77,3.15.45,4.51-4.36,1.33-4.82-8.77-1.25-22.15-3.16-28.84,4.68-1.78,2.09-2,5.13.67,6.59,3.07,1.66,5.71-.77,7.24-3.21,1.72-2.73-2.61-5.24-4.32-2.52Z"/><path class="cls-5" d="M407.87,136.66c-2.65-1.87-5.31-1.37-8.38-1.34-3.81,0-7-.52-10.76.61-6.87,2.09-16.26,4.85-21.07,10.47-2.08,2.43,1.44,6,3.54,3.53,4-4.68,11.69-6.77,17.34-8.68A20.84,20.84,0,0,1,397,140.2c2.45.15,6.26-.7,8.36.78,2.63,1.86,5.13-2.48,2.52-4.32Z"/><path class="cls-5" d="M400.39,139.86c6.25,4.66,12.36-3.29,5.24-6.42-9.24-4.07-19.74,1.15-27.86,5.38-2.86,1.49-.33,5.8,2.52,4.32a64.11,64.11,0,0,1,10.94-4.89,24.9,24.9,0,0,1,6-1.1,15.28,15.28,0,0,1,2.53,0q3.38,1.94,3.15-1.62c-2.58-1.93-5.08,2.41-2.52,4.31Z"/><path class="cls-5" d="M415.82,194.3c-1.77,2.7-3.26,7.13.59,8.9,1.71.79,4,.05,5.78.48,1.44.36,2.76,1.34,4.17,1.8a12.33,12.33,0,0,0,6.94.32c2.43-.62,4-2,5.94-3.52a10.46,10.46,0,0,1,4.69-2.07c1.41-.39,1.78-.15,3-1.05,3-2.24,2.43-6.09-.15-8.3-.61-.52-1.5.36-.89.88q.54,7.14-3.87,7.21a7,7,0,0,0-.8.07c-.35.27-.83.4-1.21.64-2.61,1.66-3.7,4.12-7,4.94s-6-.46-9.05-1.58c-.93-.34-2.13-.48-3-.85l-1.47,0q-5.64-3.78-2.52-7.27c.44-.67-.64-1.3-1.08-.63Z"/><path class="cls-5" d="M434.54,155.05c2.12,3.25,4.42,6.69,5.22,10.55.85,4.08-.55,8.08-.07,12.17.09.79,1.34.8,1.25,0-.49-4.19.94-8.33,0-12.5-.87-4-3.16-7.49-5.35-10.85-.43-.67-1.52,0-1.08.63Z"/><path class="cls-5" d="M339.63,167.11a22.89,22.89,0,0,1,7.88,5.07,18.7,18.7,0,0,0,5.29,4.12c.73.33,1.36-.75.63-1.08-2.81-1.27-4.59-3.74-6.92-5.65a23.68,23.68,0,0,0-6.55-3.66c-.75-.3-1.07.91-.33,1.2Z"/><path class="cls-5" d="M350.93,197.77A10.5,10.5,0,0,0,361,204.84a.63.63,0,0,0,0-1.25,9.21,9.21,0,0,1-8.86-6.15c-.26-.76-1.47-.44-1.21.33Z"/><path class="cls-5" d="M347.82,188.89a27.62,27.62,0,0,1-.49-16.87.62.62,0,0,0-1.2-.34,28.79,28.79,0,0,0,.49,17.54c.26.76,1.47.43,1.2-.33Z"/><path class="cls-5" d="M510.39,139.56a9.89,9.89,0,0,0-9.1,11.8c.14.79,1.35.46,1.2-.33a8.63,8.63,0,0,1,7.9-10.22c.8-.07.8-1.32,0-1.25Z"/><path class="cls-5" d="M501.8,146.79a14.92,14.92,0,0,1,7.42,11.94c0,.8,1.3.8,1.25,0a16.21,16.21,0,0,0-8-13,.63.63,0,0,0-.63,1.08Z"/><path class="cls-5" d="M503.64,178.23a12.44,12.44,0,0,0,6.58-8.87c.14-.79-1.06-1.13-1.21-.34a11.3,11.3,0,0,1-6,8.14c-.71.37-.08,1.45.64,1.07Z"/><path class="cls-5" d="M411.54,232.91c6.14-4.3,13.39-4.8,20.68-4.78,7.85,0,15.71.22,23.56.34a1.25,1.25,0,0,0,0-2.5c-8.88-.13-17.81-.53-26.69-.31-6.7.16-13.22,1.18-18.81,5.09-1.31.92-.06,3.09,1.26,2.16Z"/><path class="cls-5" d="M417.13,239.29a46.15,46.15,0,0,0,22.7-.41,1.25,1.25,0,0,0-.66-2.41,43.2,43.2,0,0,1-21.37.41c-1.57-.36-2.23,2-.67,2.41Z"/><path class="cls-5" d="M411.21,225c-2.21,3.78-4.16,8-2.19,12.27.66,1.47,2.82.2,2.15-1.26-1.52-3.32.54-6.91,2.2-9.75a1.25,1.25,0,0,0-2.16-1.26Z"/><path class="cls-5" d="M455.65,221.52a30.55,30.55,0,0,1,1.57,7.86c.1,1.6,2.6,1.61,2.5,0a33.05,33.05,0,0,0-1.66-8.53c-.52-1.51-2.93-.86-2.41.67Z"/><path class="cls-5" d="M438,255.61a18.58,18.58,0,0,0,.62,8.15c.48,1.53,2.89.88,2.41-.66a15.65,15.65,0,0,1-.62-6.83c.22-1.57-2.19-2.25-2.41-.66Z"/><path d="M386.46,30.59a21.77,21.77,0,0,1,0-4c.8-4.31,4-6.26,7.92-7.31,1.21-.32,2.46-.51,3.69-.76,5.31-1.05,9.68.88,13.52,4.27a2.8,2.8,0,0,0,2.82.81,94,94,0,0,1,20.57-2A72.12,72.12,0,0,1,470.3,30.8a10.94,10.94,0,0,0,4,1.45c5.34.74,9.16,3.92,12.33,8,4.16,5.32,6.79,11.42,9,17.71a159.23,159.23,0,0,1,6.6,26.87c.77,4.73,1.36,9.49,2.08,14.23.38,2.47-.8,4.25-2.53,5.75a10,10,0,0,1-7.9,2.25c-3.69-.41-7.34-1.19-11-1.66-6-.76-12-1.47-18.07-2.08a201.83,201.83,0,0,0-24-.65,103.12,103.12,0,0,0-14.13,1.53c-6.93,1.11-13.83,2.42-20.78,3.39-20.23,2.81-38.74,10.08-56,20.67a45.94,45.94,0,0,1-5.07,3c-5,2.21-9.57.78-12.52-3.74a27.86,27.86,0,0,1-3.74-10.1c-1.68-8.67-1.84-17.43-1.53-26.21.12-3.2.23-6.4.43-9.6.18-2.89.45-5.78.73-8.67a5.8,5.8,0,0,1,.57-1.67,53.71,53.71,0,0,1,13.62-17.93c9.82-8.67,21.3-14.49,33.5-19.08,3-1.14,6.1-2.11,9.16-3.15C385.5,31,386,30.76,386.46,30.59Zm85.14,5.67-.11.06.16-.06a4.84,4.84,0,0,0,.78,1.18,26.65,26.65,0,0,1,7.92,11.49c2.75,7.51,5.55,15,8,22.63a87.28,87.28,0,0,1,4.18,23.72c.08,2.42,0,4.84,0,7.26a7.32,7.32,0,0,0,5.56-.43,2.83,2.83,0,0,0,1.81-3.46c-.92-6-1.73-12-2.81-17.9a130.59,130.59,0,0,0-6.9-25c-2-5-4.26-9.8-7.8-13.93C479.56,38.56,476.19,36.25,471.6,36.26Zm18.17,65.9c.05-.44.1-.67.1-.9a85.42,85.42,0,0,0-1.64-18.74c-2.15-11-6.1-21.54-10.07-32a23.7,23.7,0,0,0-7.43-10.75c-4.4-3.4-8.91-6.66-13.39-9.95a6.24,6.24,0,0,0-1.8-.81,71.65,71.65,0,0,0-20-3.19,97.13,97.13,0,0,0-31.19,4.86,11.15,11.15,0,0,0-1.16.51c4.46,8.87,6.34,18.41,8.4,27.74,3.16-.08,6.1-.21,9-.2A30.69,30.69,0,0,1,435,62.19c7,3.64,11.36,9.44,13.72,16.7,2,6.29,4,12.64,4,19.5A248.43,248.43,0,0,1,489.77,102.16Zm-110.21,7.29c-.39-3-.85-5.73-1.08-8.49-.46-5.37-.76-10.76.15-16.13,2.14-12.6,9.38-20.74,21.86-24.22,2.63-.74,5.38-1.06,8.25-1.61-2-9.36-3.89-18.73-8.45-27.35-.63.09-1.11.11-1.57.22a157.76,157.76,0,0,0-29.17,9.55A93.82,93.82,0,0,0,344.69,57c-3.63,3.26-3.74,3.24-3.65,8,.18,9.72.38,19.44.75,29.15.18,4.85.58,9.7,1.2,14.51a27.19,27.19,0,0,0,5.57,13.7,8.84,8.84,0,0,1,.69,1.16A163.76,163.76,0,0,1,379.56,109.45Zm65.89-26.73c-1.49-5.35-3.86-9.93-7.85-13.58-5-4.56-11.15-6.16-17.74-6.28-3.11,0-6.23.48-9.35.53A35,35,0,0,0,400.58,65c-7.3,2.3-12.88,6.63-15.78,13.78a38.18,38.18,0,0,0-2,7.52,17.84,17.84,0,0,0-.28,6.58A135.85,135.85,0,0,1,445.45,82.72ZM431.51,99c.18-1.32.48-2.72.56-4.12a15.38,15.38,0,0,0-1-7.16,1.55,1.55,0,0,0-1.76-1.12c-2.16.17-4.33.22-6.48.44A131.36,131.36,0,0,0,393,93.4c-3.5,1.2-6.92,2.62-10.41,3.94a43.87,43.87,0,0,0,1,9.77ZM338.34,64.45l-.43,0a34.87,34.87,0,0,0-4.78,7.68,9.8,9.8,0,0,0-.93,3.2,210.52,210.52,0,0,0-.94,27.51c.25,5.27.56,10.54,2,15.66a29.81,29.81,0,0,0,2.61,6.57c1.66,3,4.2,3.73,7.33,2.29A40,40,0,0,0,347,125c-1.07-1.69-2.13-3.19-3-4.79a37.48,37.48,0,0,1-4.2-16c-.63-9.93-1-19.87-1.39-29.81C338.23,71.07,338.34,67.75,338.34,64.45ZM448.39,97.19A36.3,36.3,0,0,0,446.48,87l-10.92-.5c.29,2.18.68,4.1.76,6s-.13,3.87-.22,5.94ZM391.16,30.66l17.71-4.51a13.13,13.13,0,0,0-5.57-3.3c-3.31-1-6.43.17-9.45,1.18S390,27.4,391.16,30.66Z"/><path class="cls-6" d="M489.77,102.16a248.43,248.43,0,0,0-37.11-3.77c0-6.86-1.92-13.21-4-19.5C446.34,71.63,442,65.83,435,62.19a30.69,30.69,0,0,0-14.38-3.48c-2.94,0-5.88.12-9,.2-2.06-9.33-3.94-18.87-8.4-27.74a11.15,11.15,0,0,1,1.16-.51,97.13,97.13,0,0,1,31.19-4.86,71.65,71.65,0,0,1,20,3.19,6.24,6.24,0,0,1,1.8.81c4.48,3.29,9,6.55,13.39,10a23.7,23.7,0,0,1,7.43,10.75c4,10.48,7.92,21,10.07,32a85.42,85.42,0,0,1,1.64,18.74C489.87,101.49,489.82,101.72,489.77,102.16ZM440.7,38.72a15.78,15.78,0,0,0,2.05-.52c1.06-.43,1.37-1.1,1.05-1.92s-.88-1-2-.64c-1.73.56-2.74.13-3.42-1.48-.49-1.16-1-1.5-1.77-1.2s-1.05,1-.76,2.09A5.49,5.49,0,0,0,440.7,38.72Z"/><path class="cls-6" d="M379.56,109.45a163.76,163.76,0,0,0-30.31,14.07,8.84,8.84,0,0,0-.69-1.16,27.19,27.19,0,0,1-5.57-13.7c-.62-4.81-1-9.66-1.2-14.51-.37-9.71-.57-19.43-.75-29.15-.09-4.77,0-4.75,3.65-8a93.82,93.82,0,0,1,24.86-15.57,157.76,157.76,0,0,1,29.17-9.55c.46-.11.94-.13,1.57-.22,4.56,8.62,6.48,18,8.45,27.35-2.87.55-5.62.87-8.25,1.61C388,64.09,380.77,72.23,378.63,84.83c-.91,5.37-.61,10.76-.15,16.13C378.71,103.72,379.17,106.46,379.56,109.45Zm-9.95-62.32c-1.38,0-1.93.32-2,1.22s.51,1.26,1.27,1.47c3,.78,6.69-2.08,6.63-5.11,0-.75-.3-1.3-1.07-1.4a1.24,1.24,0,0,0-1.57,1c0,.12,0,.24-.05.35A2.87,2.87,0,0,1,369.61,47.13Z"/><path class="cls-6" d="M431.51,99l-47.86,8.11a43.87,43.87,0,0,1-1-9.77C386.09,96,389.51,94.6,393,93.4A131.36,131.36,0,0,1,422.87,87c2.15-.22,4.32-.27,6.48-.44a1.55,1.55,0,0,1,1.76,1.12,15.38,15.38,0,0,1,1,7.16C432,96.28,431.69,97.68,431.51,99Zm-5.86-7.7a1.28,1.28,0,0,0-1.32,1.35,1.2,1.2,0,0,0,1.19,1.28,1.26,1.26,0,0,0,1.42-1.24A1.31,1.31,0,0,0,425.65,91.3ZM415,94.68a1.31,1.31,0,1,0-2.61.25,1.21,1.21,0,0,0,1.33,1.14A1.27,1.27,0,0,0,415,94.68Zm-11.2,2.2a1.31,1.31,0,1,0-2.62.13,1.22,1.22,0,0,0,1.28,1.2A1.26,1.26,0,0,0,403.83,96.88Zm-11.51,4.53a1.27,1.27,0,0,0,1.4-1.27,1.3,1.3,0,0,0-1.32-1.36,1.32,1.32,0,0,0-.08,2.63Z"/><path class="cls-6" d="M338.34,64.45c0,3.3-.11,6.62,0,9.92.4,9.94.76,19.88,1.39,29.81a37.48,37.48,0,0,0,4.2,16c.89,1.6,1.95,3.1,3,4.79a40,40,0,0,1-3.81,2.29c-3.13,1.44-5.67.74-7.33-2.29a29.81,29.81,0,0,1-2.61-6.57c-1.4-5.12-1.71-10.39-2-15.66a210.52,210.52,0,0,1,.94-27.51,9.8,9.8,0,0,1,.93-3.2,34.87,34.87,0,0,1,4.78-7.68Z"/><path class="cls-6" d="M471.6,36.26c4.59,0,8,2.3,10.78,5.59,3.54,4.13,5.83,9,7.8,13.93a130.59,130.59,0,0,1,6.9,25c1.08,5.94,1.89,11.93,2.81,17.9a2.83,2.83,0,0,1-1.81,3.46,7.32,7.32,0,0,1-5.56.43c0-2.42.06-4.84,0-7.26a87.28,87.28,0,0,0-4.18-23.72c-2.42-7.62-5.22-15.12-8-22.63a26.65,26.65,0,0,0-7.92-11.49,4.84,4.84,0,0,1-.78-1.18Z"/><path class="cls-6" d="M448.39,97.19,436.1,98.46c.09-2.07.31-4,.22-5.94s-.47-3.86-.76-6l10.92.5A36.3,36.3,0,0,1,448.39,97.19Zm-8.65-4.33a1.31,1.31,0,0,0,0-2.62,1.31,1.31,0,0,0-1.38,1.3A1.25,1.25,0,0,0,439.74,92.86Z"/><path class="cls-6" d="M391.16,30.66C390,27.4,390.85,25,393.85,24s6.14-2.13,9.45-1.18a13.13,13.13,0,0,1,5.57,3.3Z"/><polygon class="cls-7" points="471.64 36.26 471.49 36.32 471.6 36.26 471.64 36.26"/><path d="M440.7,38.72a5.49,5.49,0,0,1-4.88-3.67c-.29-1.07,0-1.78.76-2.09s1.28,0,1.77,1.2c.68,1.61,1.69,2,3.42,1.48,1.15-.37,1.71-.19,2,.64s0,1.49-1.05,1.92A15.78,15.78,0,0,1,440.7,38.72Z"/><path d="M369.61,47.13a2.87,2.87,0,0,0,3.23-2.42c0-.11,0-.23.05-.35a1.24,1.24,0,0,1,1.57-1c.77.1,1.05.65,1.07,1.4.06,3-3.64,5.89-6.63,5.11-.76-.21-1.31-.61-1.27-1.47S368.23,47.12,369.61,47.13Z"/><path d="M425.65,91.3a1.31,1.31,0,0,1,1.29,1.39,1.26,1.26,0,0,1-1.42,1.24,1.2,1.2,0,0,1-1.19-1.28A1.28,1.28,0,0,1,425.65,91.3Z"/><path d="M415,94.68a1.27,1.27,0,0,1-1.28,1.39,1.21,1.21,0,0,1-1.33-1.14,1.31,1.31,0,1,1,2.61-.25Z"/><path d="M403.83,96.88a1.26,1.26,0,0,1-1.34,1.33,1.22,1.22,0,0,1-1.28-1.2,1.31,1.31,0,1,1,2.62-.13Z"/><path d="M392.32,101.41a1.32,1.32,0,0,1,.08-2.63,1.3,1.3,0,0,1,1.32,1.36A1.27,1.27,0,0,1,392.32,101.41Z"/><path d="M439.74,92.86a1.25,1.25,0,0,1-1.34-1.32,1.31,1.31,0,0,1,1.38-1.3,1.31,1.31,0,0,1,0,2.62Z"/><path class="cls-8" d="M374.88,167.45a51.3,51.3,0,0,0,34-5.59s-3.78,10.25-9.11,11.78"/><path class="cls-8" d="M480,151.86a51.35,51.35,0,0,1-34,5.22s3.71,8.13,10.94,8.93"/></svg>
