<?xml version="1.0" encoding="utf-8"?>
<!-- Generator: Adobe Illustrator 22.0.1, SVG Export Plug-In . SVG Version: 6.00 Build 0)  -->
<svg version="1.1" id="Layer_1" xmlns="http://www.w3.org/2000/svg" xmlns:xlink="http://www.w3.org/1999/xlink" x="0px" y="0px"
	 viewBox="0 0 342.4 121.8" style="enable-background:new 0 0 342.4 121.8;" xml:space="preserve">
<style type="text/css">
	.st0{fill:none;stroke:#110A00;stroke-miterlimit:10;}
	.st1{fill:#FFFC00;}
	.st2{fill:#202531;}
	.st3{fill:#F2EB06;}
	.st4{fill:#191D27;}
	.st5{fill:#353B44;}
	.st6{fill:#3A414C;}
	.st7{fill:#F09638;}
</style>
<g>
	<g>
		<path class="st0" d="M35.2,100.7"/>
		<path class="st1" d="M8.2,1.8V120h325.6V1.8H8.2z M35.2,20.8h56.6l-43.7,6.1l3.7,5.5L40.3,28l-5.1,72.7V20.8z M246.2,100.7
			l53.5-5.8l0.2-14.3l3.5,13.3l3.8-37v43.8H246.2z"/>
		<path class="st2" d="M8.5,1.8V120h325.6V1.8H8.5z M35.2,20.8h56.6l-43.7,6.1l3.7,5.5L40.3,28l-5.1,72.7V20.8z M246.2,100.7
			l53.5-5.8l0.2-14.3l3.5,13.3l3.8-37v43.8H246.2z"/>
		<polygon points="307.2,57 307.2,100.7 246.2,100.7 299.7,95 299.9,80.6 303.4,94 		"/>
		<polygon points="48.1,26.9 51.7,32.4 40.3,28 35.2,100.7 35.2,20.8 91.8,20.8 		"/>
		<path class="st3" d="M32.3,20.7"/>
		<g>
			<polygon class="st4" points="334.1,120 8.2,120 8.5,119.8 35.2,100.7 307.2,100.7 			"/>
			<polygon class="st5" points="334.1,1.8 307.2,20.7 32.6,20.8 8.2,1.8 			"/>
			<polygon class="st6" points="334.1,1.8 334.1,120 334.1,120 307.2,100.7 307.2,20.7 			"/>
			<polyline class="st6" points="8.2,1.8 8.5,2 8.8,2.1 35.2,20.8 35.2,100.7 8.5,119.8 8.2,120 			"/>
		</g>
	</g>
	<g>
		<path class="st4" d="M270,67.3c-0.7-0.7-1.6-1.1-2.5-1.2c-0.1-1.4-0.6-2.5-1.5-3.4l0,0c-0.7-0.7-2-1.6-4.2-1.6
			c-0.6,0-1.3,0.1-1.9,0.2c0-0.1,0-0.1,0-0.2c0.7-0.2,1.4-0.5,2-1.1c0.7-0.7,1.1-1.7,1.1-2.8s-0.4-2-1.1-2.8c-0.4-0.5-1-0.8-1.6-1
			c0.2-0.5,0.3-1,0.3-1.5c0-1.1-0.5-2.1-1.3-2.8c-0.7-0.6-1.5-0.9-2.4-0.9c-0.7,0-1.4,0.2-2,0.6l0,0c-0.3,0.2-0.5,0.4-0.7,0.6
			c-0.2-0.2-0.5-0.4-0.8-0.6c-0.6-0.4-1.3-0.5-1.9-0.5c-0.7,0-1.4,0.2-2,0.5c-0.7-0.3-1.6-0.6-2.7-0.6c-0.7,0-1.3,0.1-2,0.2
			c-0.4,0.1-0.8,0.2-1.2,0.4c-0.6-0.4-1.2-0.6-1.9-0.6c-0.2,0-0.5,0-0.7,0.1c-0.2-0.9-0.6-1.6-1.2-2.1c-0.7-0.6-1.6-0.9-2.5-0.9
			c-1,0-1.8,0.3-2.5,0.9c-0.7,0.6-1.1,1.4-1.2,2.3c-0.6-0.2-1.3-0.3-2-0.3c-1.2,0-2.3,0.3-3.2,0.8c-1,0.6-1.8,1.4-2.4,2.4
			c-0.1,0.2-0.2,0.3-0.2,0.5c-0.1-0.2-0.2-0.4-0.2-0.6c-0.5-1-1.2-1.8-2.2-2.3c-0.9-0.5-1.9-0.8-3.1-0.8c-1.1,0-2,0.2-2.9,0.7
			c-0.6-0.4-1.3-0.7-2.1-0.7c-0.2,0-0.5,0-0.7,0.1c-0.2-0.9-0.6-1.6-1.2-2.1c-0.7-0.6-1.6-0.9-2.5-0.9c-1,0-1.8,0.3-2.5,0.9
			c-0.6,0.5-1,1.3-1.2,2.1l0,0c-0.2-0.9-0.6-1.6-1.2-2.1c-0.7-0.6-1.6-0.9-2.5-0.9c-0.6,0-1.1,0.1-1.6,0.3c-0.6-0.3-1.2-0.5-2-0.5
			c-1.3,0-2.2,0.5-2.7,1c-0.8,0.7-1.2,1.7-1.2,2.8c-0.7-0.5-1.6-0.7-2.5-0.7h-0.2c-0.4,0-0.8,0.1-1.2,0.2c-0.4-0.2-0.9-0.2-1.4-0.2
			c-0.9,0-1.6,0.3-2.3,0.7c-0.9-0.5-1.9-0.8-3-0.8c-1.2,0-2.2,0.3-3.2,0.8c-0.6,0.4-1.2,0.8-1.6,1.4c-0.2-0.5-0.5-1-1-1.4l0,0
			c-0.7-0.6-1.7-0.9-2.7-0.9h-0.2c-0.4,0-0.8,0.1-1.2,0.2c-0.4-0.2-0.9-0.2-1.4-0.2c-0.9,0-1.6,0.3-2.3,0.7c-0.9-0.5-1.9-0.8-3-0.8
			c-1.2,0-2.2,0.3-3.2,0.8c-0.2,0.1-0.3,0.2-0.5,0.3c-0.8-0.6-1.7-1-2.9-1.1c-0.2-0.8-0.5-1.5-1.2-2c-0.7-0.6-1.6-0.9-2.6-0.9
			s-1.9,0.3-2.6,1c-0.8,0.7-1.2,1.7-1.2,2.7v0.4c-0.1-0.1-0.1-0.1-0.2-0.2c-0.2-0.2-0.5-0.4-1-0.6c-0.2-0.5-0.5-1-0.9-1.4
			c-0.7-0.7-1.6-1-2.6-1s-1.9,0.4-2.6,1c-0.4,0.4-0.7,0.8-0.9,1.3c-0.7-0.3-1.4-0.4-2.2-0.4c-0.7,0-1.3,0.1-1.9,0.3
			c-0.1-0.9-0.5-1.6-1.2-2.2l0,0c-0.7-0.6-1.6-1-2.6-1s-1.9,0.4-2.6,1c-0.6,0.5-0.9,1.2-1.1,1.9c-0.9,0.1-1.7,0.4-2.5,0.9
			c-0.9,0.6-1.6,1.4-2.1,2.4c-0.4,0.9-0.7,2-0.7,3.1c0,0.1,0,0.1,0,0.2c-0.1-0.1-0.1-0.2-0.2-0.2l0,0c-0.6-0.7-1.5-1.2-2.4-1.3
			c-0.1-0.7-0.3-1.3-0.6-1.9c-0.5-1-1.2-1.8-2.2-2.3c-0.9-0.5-1.9-0.8-3.1-0.8s-2.2,0.3-3.2,0.8l0,0c-0.7-0.5-1.5-0.8-2.4-0.8
			c-0.5,0-0.9,0.1-1.3,0.2c-0.6-0.2-1.1-0.3-1.8-0.3c-1.1,0-2.2,0.3-3.1,0.9c-0.1,0.1-0.3,0.2-0.4,0.2c-0.7-0.6-1.8-1.1-3.4-1.1
			c-0.6,0-1.2,0.1-1.8,0.3c-0.4-0.2-0.9-0.2-1.3-0.2c-0.9,0-1.7,0.3-2.3,0.7c-0.9-0.5-1.9-0.8-3-0.8c-0.9,0-1.7,0.2-2.5,0.5
			c-0.6-0.3-1.3-0.5-2.1-0.4h-0.2c-0.4,0-0.8,0.1-1.2,0.2c-0.4-0.2-0.9-0.2-1.4-0.2c-0.4,0-0.7,0-1,0.1c-0.3-0.4-0.5-0.7-0.8-0.9
			C86.4,45.7,84.4,45,82,45h-2.8c-1,0-2,0.4-2.7,1c-0.7,0.7-1.1,1.7-1.1,2.7v8.1c0,0.3,0,0.6,0.1,0.9H75c-1,0-2,0.4-2.7,1
			C71.6,60,71.2,61,71.2,62v8.1c0,1.1,0.4,2,1.1,2.7s1.6,1,2.7,1h2.8c2.1,0,3.9-0.6,5.3-1.7l0,0c0.8,0.8,2.3,1.8,4.7,1.8
			c0.6,0,1.3-0.1,1.9-0.3c0.6-0.2,1.2-0.4,1.7-0.7l0,0c0.1,0,0.1-0.1,0.2-0.1c0.8,0.6,1.8,0.9,2.9,1h0.4c0.1,0,0.2,0,0.3,0
			c0.8,0,1.6-0.2,2.2-0.6c0.7-0.4,1.1-1,1.4-1.8c0.2,0.2,0.4,0.4,0.5,0.6c0.8,0.8,2.3,1.8,4.7,1.8c0.6,0,1.3-0.1,1.9-0.3
			c0.4-0.1,0.7-0.2,1.1-0.4c0.6,0.4,1.3,0.6,2.1,0.6c1,0,1.8-0.3,2.5-0.9c0.8-0.7,1.3-1.7,1.3-2.8v-1.9c0.6-0.1,1.1-0.4,1.6-0.8
			c0,0.1,0.1,0.2,0.1,0.3c-0.3,0.6-0.5,1.2-0.5,1.9c0,1.3,0.7,2.5,1.8,3.2c1.1,0.7,2.4,1,4,1c0.8,0,1.6-0.1,2.3-0.3
			c0.2,0.8,0.6,1.4,1.2,1.9c0.7,0.6,1.5,0.9,2.4,0.9c1.4,0,2.7-0.8,3.3-2.1l0.6-1.4c0.7,0.6,1.6,0.9,2.5,0.9s1.7-0.3,2.3-0.8
			c0.7,0.5,1.5,0.8,2.3,0.8c0.9,0,1.7-0.3,2.3-0.8c0.9,0.5,1.9,0.8,3,0.8c0.6,0,1.2-0.1,1.8-0.3c0.4,0.1,0.9,0.2,1.3,0.2
			c1,0,1.9-0.4,2.6-1c0.7-0.7,1.2-1.7,1.2-2.7v-2.7c0.1,0.1,0.2,0.1,0.2,0.2v2.5c0,1.1,0.5,2.2,1.3,2.9c0.7,0.6,1.6,0.9,2.5,0.9
			c1,0,1.8-0.3,2.5-0.9c0.1-0.1,0.2-0.2,0.3-0.3c0.2,0.2,0.4,0.3,0.7,0.4c1,0.5,2,0.8,3.2,0.8s2.3-0.3,3.2-0.8l0.1-0.1
			c0.7,0.5,1.5,0.8,2.4,0.8c1,0,1.8-0.3,2.5-0.9c0.8-0.7,1.3-1.7,1.3-2.8v-1.9c0.7-0.2,1.3-0.5,1.7-0.9v2.7c0,1.1,0.4,2,1.1,2.7
			c0.7,0.7,1.6,1,2.7,1h5c0.6,0,1-0.1,1.4-0.2c0.5,0.2,1,0.3,1.6,0.3c0.8,0,1.5-0.2,2.2-0.6c0.6,0.4,1.4,0.6,2.2,0.6
			s1.5-0.2,2.2-0.6c0.6,0.4,1.4,0.6,2.2,0.6c0.6,0,1.2-0.1,1.8-0.4c0.5,0.3,1.1,0.4,1.8,0.4c0.8,0,1.5-0.2,2.2-0.6
			c0.6,0.4,1.4,0.6,2.2,0.6s1.5-0.2,2.2-0.6c0.6,0.4,1.4,0.6,2.2,0.6s1.5-0.2,2.2-0.6c0,0,0.1,0,0.1,0.1c0.8,0.4,1.6,0.6,2.5,0.6
			c0.5,0,1.1-0.1,1.6-0.2c0.4,0.1,0.8,0.2,1.2,0.2c1,0,1.9-0.4,2.6-1c0.6-0.6,0.9-1.3,1.1-2.1c0.1,0.8,0.5,1.4,1,2
			c0.7,0.7,1.7,1.1,2.7,1.1c0.8,0,1.5-0.2,2.1-0.6c0.9,0.4,2,0.6,3.2,0.6c1.3,0,2.5-0.3,3.4-0.9c0.2,0.1,0.3,0.2,0.5,0.3
			c0.8,0.4,1.6,0.6,2.5,0.6c0.5,0,1.1-0.1,1.6-0.2c0.4,0.1,0.8,0.2,1.2,0.2c0.6,0,1.2-0.1,1.7-0.4c0.5,0.3,1.1,0.4,1.7,0.4
			c0.5,0,0.9-0.1,1.3-0.2c0.6,0.2,1.1,0.3,1.8,0.3c1.2,0,2.2-0.3,3.2-0.9c0.2-0.1,0.3-0.2,0.5-0.3c0.9,0.7,2.2,1.3,4,1.3
			c0.6,0,1.3-0.1,1.9-0.3c0.4-0.1,0.7-0.2,1.1-0.4c0.6,0.4,1.3,0.6,2.1,0.6c0.6,0,1.2-0.1,1.8-0.4c0.5,0.3,1.1,0.4,1.8,0.4
			c0.8,0,1.5-0.2,2.2-0.6c0.1,0,0.1,0.1,0.2,0.1c0.8,0.4,1.6,0.6,2.5,0.6c0.5,0,1.1-0.1,1.6-0.2c0.4,0.1,0.8,0.2,1.2,0.2
			c0.6,0,1.2-0.1,1.7-0.4c0.5,0.3,1.1,0.4,1.7,0.4c1.1,0,2.1-0.4,2.8-1.2c0.7-0.7,1.1-1.7,1.1-2.8C271.2,69,270.8,68,270,67.3z
			 M258.8,52.9L258.8,52.9L258.8,52.9L258.8,52.9z"/>
		<g>
			<path class="st7" d="M78.7,58c-0.2-0.1-0.2-0.4-0.2-0.6v-8.1c0-0.3,0.1-0.5,0.2-0.6c0.2-0.1,0.4-0.2,0.6-0.2h2.8
				c1.6,0,2.9,0.4,3.8,1.3c0.9,0.9,1.3,2.1,1.3,3.6c0,1.6-0.4,2.8-1.3,3.6c-0.9,0.9-2.1,1.3-3.8,1.3h-2.8
				C79.1,58.2,78.9,58.1,78.7,58z M82,56.8c2.3,0,3.4-1.2,3.4-3.5s-1.1-3.5-3.4-3.5h-1.7v6.9L82,56.8L82,56.8z"/>
			<path class="st7" d="M93.3,51.4c0.1,0.1,0.2,0.3,0.2,0.5c0,0.3-0.1,0.4-0.2,0.6c-0.1,0.1-0.3,0.2-0.7,0.2h-0.4
				c-0.5,0.1-1,0.2-1.2,0.6c-0.3,0.3-0.4,0.7-0.4,1.2v2.9c0,0.3-0.1,0.5-0.3,0.6c-0.2,0.1-0.4,0.2-0.6,0.2c-0.3,0-0.5-0.1-0.6-0.2
				c-0.2-0.1-0.2-0.4-0.2-0.6V52c0-0.3,0.1-0.5,0.2-0.6c0.2-0.1,0.4-0.2,0.6-0.2s0.4,0.1,0.6,0.2c0.1,0.1,0.2,0.3,0.2,0.6v0.6
				c0.2-0.4,0.4-0.7,0.8-0.9c0.3-0.2,0.7-0.3,1.2-0.4h0.2C92.9,51.2,93.1,51.3,93.3,51.4z"/>
			<path class="st7" d="M99.9,56.5c0.1,0.1,0.1,0.3,0.1,0.5c0,0.3-0.2,0.5-0.5,0.7s-0.7,0.3-1.1,0.4c-0.4,0.1-0.8,0.2-1.1,0.2
				c-1.1,0-2-0.3-2.6-0.9c-0.6-0.6-1-1.5-1-2.6c0-0.7,0.1-1.3,0.4-1.9c0.3-0.5,0.7-1,1.2-1.3s1.1-0.4,1.7-0.4s1.2,0.1,1.6,0.4
				c0.5,0.3,0.8,0.7,1.1,1.1c0.3,0.5,0.4,1.1,0.4,1.7c0,0.4-0.2,0.6-0.5,0.6h-4.1c0.1,0.6,0.2,1.1,0.5,1.4c0.3,0.3,0.8,0.5,1.3,0.5
				c0.3,0,0.6,0,0.8-0.1c0.2-0.1,0.5-0.2,0.8-0.3s0.5-0.2,0.6-0.2C99.7,56.4,99.8,56.4,99.9,56.5z M95.9,52.9
				c-0.3,0.3-0.5,0.7-0.5,1.3h3.2c0-0.6-0.2-1-0.4-1.3c-0.3-0.3-0.6-0.4-1.1-0.4S96.2,52.6,95.9,52.9z"/>
			<path class="st7" d="M107.3,51.9c0.4,0.5,0.6,1.2,0.6,2.1v3.4c0,0.3-0.1,0.5-0.2,0.6c-0.2,0.1-0.4,0.2-0.6,0.2
				c-0.3,0-0.5-0.1-0.6-0.2c-0.2-0.1-0.2-0.4-0.2-0.6v-3.3c0-0.5-0.1-0.9-0.3-1.2c-0.2-0.2-0.5-0.4-0.9-0.4c-0.5,0-0.9,0.2-1.2,0.5
				c-0.3,0.3-0.5,0.7-0.5,1.3v3.1c0,0.3-0.1,0.5-0.2,0.6c-0.2,0.1-0.4,0.2-0.6,0.2c-0.3,0-0.5-0.1-0.6-0.2c-0.2-0.1-0.2-0.4-0.2-0.6
				V52c0-0.2,0.1-0.4,0.2-0.6c0.2-0.1,0.4-0.2,0.6-0.2s0.4,0.1,0.6,0.2c0.2,0.1,0.2,0.3,0.2,0.6v0.4c0.2-0.4,0.5-0.7,0.9-0.9
				s0.8-0.3,1.3-0.3C106.3,51.2,106.9,51.5,107.3,51.9z"/>
			<path class="st7" d="M116.1,51.5c0.2,0.1,0.2,0.3,0.2,0.6v5.5c0,1.1-0.3,1.9-0.9,2.4s-1.5,0.8-2.6,0.8c-1,0-1.9-0.2-2.5-0.6
				c-0.3-0.2-0.5-0.5-0.5-0.7s0-0.4,0.1-0.5s0.2-0.2,0.4-0.2c0.1,0,0.2,0,0.3,0.1c0.1,0,0.2,0.1,0.4,0.1c0.3,0.1,0.6,0.2,0.9,0.3
				s0.6,0.1,0.9,0.1c1.2,0,1.8-0.6,1.8-1.8v-0.9c-0.2,0.4-0.5,0.7-0.9,0.9s-0.8,0.3-1.3,0.3c-0.6,0-1.1-0.1-1.6-0.4
				c-0.5-0.3-0.8-0.7-1.1-1.2c-0.3-0.5-0.4-1.1-0.4-1.8s0.1-1.3,0.4-1.8s0.6-0.9,1.1-1.2s1-0.4,1.6-0.4c0.5,0,0.9,0.1,1.3,0.3
				s0.7,0.5,0.9,0.9v-0.4c0-0.2,0.1-0.4,0.2-0.6c0.2-0.1,0.4-0.2,0.6-0.2C115.7,51.3,115.9,51.3,116.1,51.5z M114.1,56.1
				c0.3-0.4,0.5-0.9,0.5-1.5s-0.2-1.1-0.5-1.5s-0.7-0.5-1.3-0.5c-0.5,0-1,0.2-1.3,0.5c-0.3,0.4-0.5,0.9-0.5,1.5s0.2,1.1,0.5,1.5
				s0.7,0.5,1.3,0.5C113.4,56.7,113.8,56.5,114.1,56.1z"/>
			<path class="st7" d="M123.9,56.5c0.1,0.1,0.1,0.3,0.1,0.5c0,0.3-0.2,0.5-0.5,0.7s-0.7,0.3-1.1,0.4c-0.4,0.1-0.8,0.2-1.1,0.2
				c-1.1,0-2-0.3-2.6-0.9c-0.6-0.6-1-1.5-1-2.6c0-0.7,0.1-1.3,0.4-1.9c0.3-0.5,0.7-1,1.2-1.3s1.1-0.4,1.7-0.4s1.2,0.1,1.6,0.4
				c0.5,0.3,0.8,0.7,1.1,1.1c0.3,0.5,0.4,1.1,0.4,1.7c0,0.4-0.2,0.6-0.5,0.6h-4.1c0.1,0.6,0.2,1.1,0.5,1.4c0.3,0.3,0.8,0.5,1.3,0.5
				c0.3,0,0.6,0,0.8-0.1c0.2-0.1,0.5-0.2,0.8-0.3s0.5-0.2,0.6-0.2C123.7,56.4,123.8,56.4,123.9,56.5z M120,52.9
				c-0.3,0.3-0.5,0.7-0.5,1.3h3.2c0-0.6-0.2-1-0.4-1.3c-0.3-0.3-0.6-0.4-1.1-0.4C120.6,52.5,120.3,52.6,120,52.9z"/>
			<path class="st7" d="M127.1,56.6c0.2,0.2,0.3,0.6,0.3,1c0,0.9-0.3,1.6-0.9,2.3c-0.1,0.1-0.3,0.2-0.4,0.2s-0.3,0-0.4-0.1
				s-0.2-0.2-0.2-0.3s0-0.2,0.1-0.3c0.3-0.3,0.5-0.6,0.5-1c-0.3,0-0.5-0.1-0.7-0.3s-0.3-0.4-0.3-0.7s0.1-0.5,0.3-0.7
				c0.2-0.2,0.4-0.3,0.7-0.3C126.7,56.2,126.9,56.3,127.1,56.6z"/>
			<path class="st7" d="M139.1,48.5c0.2,0.1,0.3,0.3,0.3,0.6v8.4c0,0.3-0.1,0.5-0.2,0.6c-0.2,0.1-0.4,0.2-0.6,0.2
				c-0.3,0-0.5-0.1-0.6-0.2c-0.2-0.1-0.2-0.3-0.2-0.6v-0.3c-0.2,0.4-0.5,0.7-0.9,0.9s-0.8,0.3-1.3,0.3c-0.6,0-1.1-0.1-1.6-0.4
				c-0.5-0.3-0.8-0.7-1.1-1.3c-0.3-0.5-0.4-1.2-0.4-1.9s0.1-1.3,0.4-1.9c0.3-0.5,0.6-0.9,1.1-1.2s1-0.4,1.6-0.4
				c0.5,0,0.9,0.1,1.3,0.3c0.4,0.2,0.7,0.5,0.9,0.9v-3.3c0-0.2,0.1-0.4,0.2-0.6c0.2-0.1,0.4-0.2,0.6-0.2
				C138.8,48.3,139,48.4,139.1,48.5z M137.2,56.4c0.3-0.4,0.5-0.9,0.5-1.6c0-0.7-0.2-1.3-0.5-1.6c-0.3-0.4-0.7-0.6-1.3-0.6
				s-1,0.2-1.3,0.6c-0.3,0.4-0.5,0.9-0.5,1.6c0,0.7,0.2,1.3,0.5,1.6c0.3,0.4,0.7,0.6,1.3,0.6S136.9,56.8,137.2,56.4z"/>
			<path class="st7" d="M147,56.5c0.1,0.1,0.1,0.3,0.1,0.5c0,0.3-0.2,0.5-0.5,0.7s-0.7,0.3-1.1,0.4c-0.4,0.1-0.8,0.2-1.1,0.2
				c-1.1,0-2-0.3-2.6-0.9c-0.6-0.6-1-1.5-1-2.6c0-0.7,0.1-1.3,0.4-1.9c0.3-0.5,0.7-1,1.2-1.3s1.1-0.4,1.7-0.4c0.6,0,1.2,0.1,1.6,0.4
				c0.5,0.3,0.8,0.7,1.1,1.1c0.3,0.5,0.4,1.1,0.4,1.7c0,0.4-0.2,0.6-0.5,0.6h-4.1c0.1,0.6,0.2,1.1,0.5,1.4c0.3,0.3,0.8,0.5,1.3,0.5
				c0.3,0,0.6,0,0.8-0.1s0.5-0.2,0.8-0.3s0.5-0.2,0.6-0.2C146.8,56.4,146.9,56.4,147,56.5z M143,52.9c-0.3,0.3-0.5,0.7-0.5,1.3h3.2
				c0-0.6-0.2-1-0.4-1.3c-0.3-0.3-0.6-0.4-1.1-0.4S143.3,52.6,143,52.9z"/>
			<path class="st7" d="M152.8,57.6c0,0.2-0.1,0.4-0.3,0.5s-0.4,0.2-0.8,0.1h-0.4c-1.6-0.1-2.3-0.9-2.3-2.5v-3h-0.7
				c-0.3,0-0.4-0.1-0.6-0.2c-0.1-0.1-0.2-0.3-0.2-0.5s0.1-0.4,0.2-0.5c0.1-0.1,0.3-0.2,0.6-0.2h0.7V50c0-0.3,0.1-0.5,0.2-0.6
				c0.2-0.1,0.4-0.2,0.6-0.2c0.3,0,0.5,0.1,0.6,0.2c0.2,0.1,0.2,0.3,0.2,0.6v1.3h1.2c0.3,0,0.4,0.1,0.6,0.2c0.1,0.1,0.2,0.3,0.2,0.5
				s-0.1,0.4-0.2,0.5c-0.1,0.1-0.3,0.2-0.6,0.2h-1.2v3.2c0,0.7,0.3,1.1,0.9,1.1h0.4C152.5,57,152.8,57.2,152.8,57.6z"/>
			<path class="st7" d="M163.9,54v3.4c0,0.3-0.1,0.5-0.2,0.6c-0.2,0.1-0.4,0.2-0.6,0.2c-0.3,0-0.5-0.1-0.6-0.2
				c-0.2-0.1-0.2-0.4-0.2-0.6V54c0-0.5-0.1-0.9-0.3-1.1c-0.2-0.2-0.5-0.3-0.9-0.3c-0.5,0-0.9,0.2-1.2,0.5s-0.5,0.7-0.5,1.3v3.1
				c0,0.3-0.1,0.5-0.2,0.6c-0.2,0.1-0.4,0.2-0.6,0.2c-0.3,0-0.5-0.1-0.6-0.2c-0.2-0.1-0.2-0.4-0.2-0.6v-8.4c0-0.2,0.1-0.4,0.2-0.6
				c0.2-0.1,0.4-0.2,0.6-0.2c0.3,0,0.5,0.1,0.6,0.2c0.2,0.1,0.2,0.3,0.2,0.6v3.3c0.2-0.4,0.5-0.6,0.9-0.8s0.8-0.3,1.3-0.3
				C163.1,51.2,163.9,52.2,163.9,54z"/>
			<path class="st7" d="M171.4,56.5c0.1,0.1,0.1,0.3,0.1,0.5c0,0.3-0.2,0.5-0.5,0.7s-0.7,0.3-1.1,0.4c-0.4,0.1-0.8,0.2-1.1,0.2
				c-1.1,0-2-0.3-2.6-0.9c-0.6-0.6-1-1.5-1-2.6c0-0.7,0.1-1.3,0.4-1.9c0.3-0.5,0.7-1,1.2-1.3s1.1-0.4,1.7-0.4c0.6,0,1.1,0.1,1.6,0.4
				c0.5,0.3,0.8,0.7,1.1,1.1c0.3,0.5,0.4,1.1,0.4,1.7c0,0.4-0.2,0.6-0.5,0.6H167c0.1,0.6,0.2,1.1,0.5,1.4c0.3,0.3,0.8,0.5,1.3,0.5
				c0.3,0,0.6,0,0.8-0.1s0.5-0.2,0.8-0.3s0.5-0.2,0.6-0.2C171.2,56.4,171.3,56.4,171.4,56.5z M167.5,52.9c-0.3,0.3-0.5,0.7-0.5,1.3
				h3.2c0-0.6-0.2-1-0.4-1.3c-0.3-0.3-0.6-0.4-1.1-0.4C168.1,52.5,167.8,52.6,167.5,52.9z"/>
			<path class="st7" d="M177.4,51.4c0.1,0.1,0.2,0.3,0.2,0.5c0,0.3-0.1,0.4-0.2,0.6c-0.1,0.1-0.3,0.2-0.7,0.2h-0.4
				c-0.5,0.1-1,0.2-1.2,0.6c-0.3,0.3-0.4,0.7-0.4,1.2v2.9c0,0.3-0.1,0.5-0.3,0.6s-0.4,0.2-0.6,0.2c-0.3,0-0.5-0.1-0.6-0.2
				c-0.2-0.1-0.2-0.4-0.2-0.6V52c0-0.3,0.1-0.5,0.2-0.6c0.2-0.1,0.4-0.2,0.6-0.2c0.2,0,0.4,0.1,0.6,0.2c0.1,0.1,0.2,0.3,0.2,0.6v0.6
				c0.2-0.4,0.4-0.7,0.8-0.9c0.3-0.2,0.7-0.3,1.2-0.4h0.2C177.1,51.2,177.3,51.3,177.4,51.4z"/>
			<path class="st7" d="M188,56.5c0.1,0.1,0.1,0.3,0.1,0.5c0,0.3-0.2,0.5-0.5,0.7s-0.7,0.3-1.1,0.4c-0.4,0.1-0.8,0.2-1.1,0.2
				c-1.1,0-2-0.3-2.6-0.9c-0.6-0.6-1-1.5-1-2.6c0-0.7,0.1-1.3,0.4-1.9c0.3-0.5,0.7-1,1.2-1.3s1.1-0.4,1.7-0.4c0.6,0,1.1,0.1,1.6,0.4
				c0.5,0.3,0.8,0.7,1.1,1.1c0.3,0.5,0.4,1.1,0.4,1.7c0,0.4-0.2,0.6-0.5,0.6h-4.1c0.1,0.6,0.2,1.1,0.5,1.4c0.3,0.3,0.8,0.5,1.3,0.5
				c0.3,0,0.6,0,0.8-0.1s0.5-0.2,0.8-0.3s0.5-0.2,0.6-0.2C187.7,56.4,187.9,56.4,188,56.5z M184,52.9c-0.3,0.3-0.5,0.7-0.5,1.3h3.2
				c0-0.6-0.2-1-0.4-1.3c-0.3-0.3-0.6-0.4-1.1-0.4S184.3,52.6,184,52.9z"/>
			<path class="st7" d="M194,51.4c0.1,0.1,0.2,0.3,0.2,0.5c0,0.3-0.1,0.4-0.2,0.6c-0.1,0.1-0.3,0.2-0.7,0.2h-0.4
				c-0.5,0.1-1,0.2-1.2,0.6c-0.3,0.3-0.4,0.7-0.4,1.2v2.9c0,0.3-0.1,0.5-0.3,0.6s-0.4,0.2-0.6,0.2c-0.3,0-0.5-0.1-0.6-0.2
				c-0.2-0.1-0.2-0.4-0.2-0.6V52c0-0.3,0.1-0.5,0.2-0.6c0.2-0.1,0.4-0.2,0.6-0.2c0.2,0,0.4,0.1,0.6,0.2c0.1,0.1,0.2,0.3,0.2,0.6v0.6
				c0.2-0.4,0.4-0.7,0.8-0.9c0.3-0.2,0.7-0.3,1.2-0.4h0.2C193.7,51.2,193.8,51.3,194,51.4z"/>
			<path class="st7" d="M198.8,49.8c-0.2-0.2-0.3-0.4-0.3-0.7s0.1-0.5,0.3-0.7s0.4-0.3,0.8-0.3c0.3,0,0.6,0.1,0.7,0.3
				c0.2,0.2,0.3,0.4,0.3,0.7s-0.1,0.5-0.3,0.7s-0.4,0.3-0.8,0.3C199.3,50,199,49.9,198.8,49.8z M199,58.1c-0.2-0.1-0.2-0.4-0.2-0.6
				v-5.4c0-0.3,0.1-0.5,0.2-0.6c0.2-0.1,0.4-0.2,0.6-0.2s0.5,0.1,0.6,0.2c0.2,0.1,0.3,0.3,0.3,0.6v5.4c0,0.3-0.1,0.5-0.3,0.6
				s-0.4,0.2-0.6,0.2S199.1,58.2,199,58.1z"/>
			<path class="st7" d="M208.6,57.5c0,0.2-0.1,0.4-0.2,0.6c-0.2,0.2-0.3,0.3-0.5,0.3s-0.4-0.1-0.6-0.3l-3.3-3v2.4
				c0,0.3-0.1,0.5-0.3,0.6s-0.4,0.2-0.6,0.2s-0.5-0.1-0.6-0.2c-0.2-0.1-0.2-0.3-0.2-0.6v-8.3c0-0.3,0.1-0.5,0.2-0.6
				c0.2-0.1,0.4-0.2,0.6-0.2s0.5,0.1,0.6,0.2c0.2,0.1,0.3,0.3,0.3,0.6v5.3l3-2.9c0.2-0.2,0.4-0.3,0.6-0.3c0.2,0,0.4,0.1,0.6,0.2
				c0.2,0.2,0.2,0.3,0.2,0.6c0,0.2-0.1,0.4-0.3,0.6l-2.2,2l2.4,2.2C208.5,57,208.6,57.2,208.6,57.5z"/>
			<path class="st7" d="M216.1,57.5c0,0.2-0.1,0.4-0.2,0.6c-0.2,0.2-0.3,0.3-0.5,0.3s-0.4-0.1-0.6-0.3l-3.3-3v2.4
				c0,0.3-0.1,0.5-0.3,0.6s-0.4,0.2-0.6,0.2s-0.5-0.1-0.6-0.2c-0.2-0.1-0.2-0.3-0.2-0.6v-8.3c0-0.3,0.1-0.5,0.2-0.6
				c0.2-0.1,0.4-0.2,0.6-0.2s0.5,0.1,0.6,0.2c0.2,0.1,0.3,0.3,0.3,0.6v5.3l3-2.9c0.2-0.2,0.4-0.3,0.6-0.3c0.2,0,0.4,0.1,0.6,0.2
				c0.2,0.2,0.2,0.3,0.2,0.6c0,0.2-0.1,0.4-0.3,0.6l-2.2,2l2.4,2.2C216,57,216.1,57.2,216.1,57.5z"/>
			<path class="st7" d="M222.9,56.5c0.1,0.1,0.1,0.3,0.1,0.5c0,0.3-0.2,0.5-0.5,0.7s-0.7,0.3-1.1,0.4c-0.4,0.1-0.8,0.2-1.1,0.2
				c-1.1,0-2-0.3-2.6-0.9c-0.6-0.6-1-1.5-1-2.6c0-0.7,0.1-1.3,0.4-1.9c0.3-0.5,0.7-1,1.2-1.3s1.1-0.4,1.7-0.4c0.6,0,1.1,0.1,1.6,0.4
				c0.5,0.3,0.8,0.7,1.1,1.1c0.3,0.5,0.4,1.1,0.4,1.7c0,0.4-0.2,0.6-0.5,0.6h-4.1c0.1,0.6,0.2,1.1,0.5,1.4c0.3,0.3,0.8,0.5,1.3,0.5
				c0.3,0,0.6,0,0.8-0.1s0.5-0.2,0.8-0.3s0.5-0.2,0.6-0.2C222.7,56.4,222.8,56.4,222.9,56.5z M219,52.9c-0.3,0.3-0.5,0.7-0.5,1.3
				h3.2c0-0.6-0.2-1-0.4-1.3c-0.3-0.3-0.6-0.4-1.1-0.4S219.3,52.6,219,52.9z"/>
			<path class="st7" d="M229.6,57.9c-0.5-0.3-0.9-0.7-1.2-1.2s-0.4-1.2-0.4-1.9s0.1-1.3,0.4-1.9c0.3-0.5,0.7-0.9,1.2-1.2
				s1.1-0.4,1.8-0.4s1.3,0.1,1.8,0.4c0.5,0.3,0.9,0.7,1.2,1.2s0.4,1.2,0.4,1.9s-0.1,1.3-0.4,1.9c-0.3,0.5-0.7,1-1.2,1.2
				c-0.5,0.3-1.1,0.4-1.8,0.4C230.8,58.3,230.2,58.2,229.6,57.9z M232.8,56.4c0.3-0.4,0.4-0.9,0.4-1.6c0-0.7-0.1-1.3-0.4-1.6
				c-0.3-0.4-0.7-0.6-1.3-0.6s-1,0.2-1.3,0.6c-0.3,0.4-0.5,0.9-0.5,1.6c0,0.7,0.1,1.3,0.4,1.6c0.3,0.4,0.7,0.6,1.3,0.6
				S232.5,56.8,232.8,56.4z"/>
			<path class="st7" d="M242.7,57.5c0,0.2-0.1,0.4-0.2,0.6c-0.2,0.2-0.3,0.3-0.5,0.3s-0.4-0.1-0.6-0.3l-3.3-3v2.4
				c0,0.3-0.1,0.5-0.3,0.6s-0.4,0.2-0.6,0.2s-0.5-0.1-0.6-0.2c-0.2-0.1-0.2-0.3-0.2-0.6v-8.3c0-0.3,0.1-0.5,0.2-0.6
				c0.2-0.1,0.4-0.2,0.6-0.2s0.5,0.1,0.6,0.2c0.2,0.1,0.3,0.3,0.3,0.6v5.3l3-2.9c0.2-0.2,0.4-0.3,0.6-0.3c0.2,0,0.4,0.1,0.6,0.2
				c0.2,0.2,0.2,0.3,0.2,0.6c0,0.2-0.1,0.4-0.3,0.6l-2.2,2l2.4,2.2C242.7,57,242.7,57.2,242.7,57.5z"/>
			<path class="st7" d="M248.9,51.9c0.5,0.5,0.7,1.2,0.7,2.1v3.4c0,0.3-0.1,0.4-0.2,0.6c-0.1,0.1-0.4,0.2-0.6,0.2
				c-0.2,0-0.4-0.1-0.6-0.2c-0.2-0.1-0.2-0.3-0.2-0.6v-0.3c-0.2,0.4-0.4,0.6-0.7,0.9c-0.3,0.2-0.7,0.3-1.2,0.3s-0.9-0.1-1.2-0.3
				c-0.4-0.2-0.7-0.4-0.9-0.8c-0.2-0.3-0.3-0.7-0.3-1.1c0-0.5,0.1-0.9,0.4-1.2c0.3-0.3,0.7-0.5,1.3-0.6s1.4-0.2,2.4-0.2h0.3v-0.3
				c0-0.5-0.1-0.8-0.3-1s-0.5-0.3-0.9-0.3c-0.3,0-0.5,0-0.8,0.1s-0.6,0.2-1,0.3c-0.2,0.1-0.4,0.2-0.5,0.2c-0.2,0-0.3-0.1-0.4-0.2
				c-0.1-0.1-0.2-0.3-0.2-0.5s0-0.3,0.1-0.4c0.1-0.1,0.2-0.2,0.4-0.3c0.3-0.2,0.7-0.3,1.2-0.4c0.5-0.1,0.9-0.2,1.3-0.2
				C247.8,51.2,248.5,51.5,248.9,51.9z M247.5,56.6c0.3-0.3,0.4-0.7,0.4-1.2v-0.3h-0.3c-0.6,0-1.1,0-1.5,0.1
				c-0.3,0.1-0.6,0.2-0.7,0.3c-0.1,0.1-0.2,0.3-0.2,0.6s0.1,0.5,0.3,0.7s0.5,0.3,0.8,0.3C246.8,57.1,247.2,56.9,247.5,56.6z"/>
			<path class="st7" d="M256.5,51.4c0.1-0.1,0.3-0.1,0.4-0.1c0.2,0,0.4,0.1,0.6,0.2c0.2,0.1,0.3,0.3,0.3,0.5c0,0.1,0,0.2-0.1,0.3
				l-3.8,8c-0.2,0.3-0.4,0.5-0.7,0.5c-0.2,0-0.4-0.1-0.6-0.2c-0.2-0.1-0.2-0.3-0.2-0.5c0-0.1,0-0.2,0.1-0.3l0.9-2l-2.6-5.4
				c0-0.1-0.1-0.2-0.1-0.3c0-0.2,0.1-0.4,0.3-0.5s0.4-0.2,0.6-0.2c0.2,0,0.3,0,0.4,0.1c0.1,0.1,0.2,0.2,0.3,0.4l2,4.3l1.9-4.3
				C256.2,51.6,256.3,51.5,256.5,51.4z"/>
			<path class="st7" d="M258.3,58c-0.2-0.2-0.3-0.4-0.3-0.7s0.1-0.5,0.3-0.7c0.2-0.2,0.4-0.3,0.7-0.3c0.3,0,0.5,0.1,0.7,0.3
				s0.3,0.4,0.3,0.7s-0.1,0.5-0.3,0.7c-0.2,0.2-0.4,0.3-0.7,0.3C258.7,58.3,258.5,58.2,258.3,58z"/>
			<path class="st7" d="M74.3,70.8c-0.2-0.1-0.2-0.4-0.2-0.6V62c0-0.3,0.1-0.5,0.2-0.6c0.2-0.1,0.4-0.2,0.6-0.2h2.8
				c1.6,0,2.9,0.4,3.8,1.3c0.9,0.9,1.3,2.1,1.3,3.6c0,1.6-0.4,2.8-1.3,3.6c-0.9,0.9-2.1,1.3-3.8,1.3H75C74.7,71,74.5,71,74.3,70.8z
				 M77.6,69.6c2.3,0,3.4-1.2,3.4-3.5c0-2.3-1.1-3.5-3.4-3.5h-1.7v6.9L77.6,69.6L77.6,69.6z"/>
			<path class="st7" d="M90.3,69.3c0.1,0.1,0.1,0.3,0.1,0.5c0,0.3-0.2,0.5-0.5,0.7s-0.7,0.3-1.1,0.4s-0.8,0.2-1.1,0.2
				c-1.1,0-2-0.3-2.6-0.9s-1-1.5-1-2.6c0-0.7,0.1-1.3,0.4-1.9c0.3-0.5,0.7-1,1.2-1.3s1.1-0.4,1.7-0.4s1.2,0.1,1.6,0.4
				c0.5,0.3,0.8,0.7,1.1,1.1c0.3,0.5,0.4,1.1,0.4,1.7c0,0.4-0.2,0.6-0.5,0.6h-4.1c0.1,0.6,0.2,1.1,0.5,1.4s0.8,0.5,1.3,0.5
				c0.3,0,0.6,0,0.8-0.1c0.2-0.1,0.5-0.2,0.8-0.3c0.3-0.1,0.5-0.2,0.6-0.2C90,69.2,90.2,69.2,90.3,69.3z M86.3,65.7
				C86,66,85.9,66.4,85.8,67H89c0-0.6-0.2-1-0.4-1.3c-0.3-0.3-0.6-0.4-1.1-0.4C87,65.3,86.6,65.4,86.3,65.7z"/>
			<path class="st7" d="M96,70.4c0,0.2-0.1,0.4-0.3,0.5c-0.2,0.1-0.4,0.2-0.8,0.1h-0.4c-1.6-0.1-2.3-0.9-2.3-2.5v-3h-0.7
				c-0.3,0-0.4-0.1-0.6-0.2c-0.1-0.1-0.2-0.3-0.2-0.5s0.1-0.4,0.2-0.5s0.3-0.2,0.6-0.2h0.7v-1.3c0-0.3,0.1-0.5,0.2-0.6
				c0.2-0.1,0.4-0.2,0.6-0.2c0.3,0,0.5,0.1,0.6,0.2c0.2,0.1,0.2,0.3,0.2,0.6v1.3H95c0.3,0,0.4,0.1,0.6,0.2c0.1,0.1,0.2,0.3,0.2,0.5
				s-0.1,0.4-0.2,0.5s-0.3,0.2-0.6,0.2h-1v3.2c0,0.7,0.3,1.1,0.9,1.1h0.4C95.8,69.8,96,70.1,96,70.4z"/>
			<path class="st7" d="M106.5,69.3c0.1,0.1,0.1,0.3,0.1,0.5c0,0.3-0.2,0.5-0.5,0.7s-0.7,0.3-1.1,0.4s-0.8,0.2-1.1,0.2
				c-1.1,0-2-0.3-2.6-0.9s-1-1.5-1-2.6c0-0.7,0.1-1.3,0.4-1.9c0.3-0.5,0.7-1,1.2-1.3s1.1-0.4,1.7-0.4s1.2,0.1,1.6,0.4
				c0.5,0.3,0.8,0.7,1.1,1.1c0.3,0.5,0.4,1.1,0.4,1.7c0,0.4-0.2,0.6-0.5,0.6h-4.1c0.1,0.6,0.2,1.1,0.5,1.4s0.8,0.5,1.3,0.5
				c0.3,0,0.6,0,0.8-0.1c0.2-0.1,0.5-0.2,0.8-0.3c0.3-0.1,0.5-0.2,0.6-0.2C106.3,69.2,106.4,69.2,106.5,69.3z M102.6,65.7
				c-0.3,0.3-0.5,0.7-0.5,1.3h3.2c0-0.6-0.2-1-0.4-1.3c-0.3-0.3-0.6-0.4-1.1-0.4C103.2,65.3,102.9,65.4,102.6,65.7z"/>
			<path class="st7" d="M112.5,64.2c0.1,0.1,0.2,0.3,0.2,0.5c0,0.3-0.1,0.4-0.2,0.6c-0.1,0.1-0.3,0.2-0.7,0.2h-0.4
				c-0.5,0.1-1,0.2-1.2,0.6c-0.3,0.3-0.4,0.7-0.4,1.2v2.9c0,0.3-0.1,0.5-0.3,0.6c-0.2,0.1-0.4,0.2-0.6,0.2c-0.3,0-0.5-0.1-0.6-0.2
				c-0.2-0.1-0.2-0.4-0.2-0.6v-5.4c0-0.3,0.1-0.5,0.2-0.6c0.2-0.1,0.4-0.2,0.6-0.2s0.4,0.1,0.6,0.2c0.1,0.1,0.2,0.3,0.2,0.6v0.6
				c0.2-0.4,0.4-0.7,0.8-0.9c0.3-0.2,0.7-0.3,1.2-0.4h0.2C112.2,64,112.4,64.1,112.5,64.2z"/>
			<path class="st7" d="M117.3,70.5c-0.3-0.2-0.4-0.4-0.4-0.8c0-0.2,0.1-0.3,0.2-0.5c0.1-0.1,0.2-0.2,0.4-0.2c0.2,0,0.4,0.1,0.7,0.2
				c0.3,0.1,0.6,0.2,0.8,0.3c0.2,0.1,0.6,0.1,0.9,0.1c0.4,0,0.7-0.1,0.9-0.2c0.2-0.1,0.3-0.3,0.3-0.5s0-0.3-0.1-0.4
				s-0.2-0.2-0.5-0.3c-0.2-0.1-0.6-0.2-1-0.3c-0.8-0.2-1.4-0.4-1.8-0.7c-0.4-0.3-0.5-0.7-0.5-1.3c0-0.4,0.1-0.8,0.4-1.1
				c0.2-0.3,0.6-0.6,1-0.8s0.9-0.3,1.4-0.3c0.4,0,0.8,0,1.1,0.1c0.4,0.1,0.7,0.2,1,0.4c0.3,0.2,0.4,0.4,0.4,0.7
				c0,0.2-0.1,0.3-0.2,0.5c-0.1,0.1-0.2,0.2-0.4,0.2c-0.1,0-0.2,0-0.3-0.1c-0.1,0-0.2-0.1-0.4-0.2c-0.3-0.1-0.5-0.2-0.7-0.3
				c-0.2-0.1-0.4-0.1-0.7-0.1c-0.3,0-0.6,0.1-0.8,0.2c-0.2,0.1-0.3,0.3-0.3,0.6c0,0.2,0.1,0.4,0.3,0.5c0.2,0.1,0.6,0.2,1.2,0.4
				c0.6,0.1,1.1,0.3,1.5,0.4c0.4,0.2,0.6,0.4,0.8,0.6c0.2,0.3,0.2,0.6,0.2,1c0,0.6-0.3,1.1-0.8,1.5s-1.2,0.6-2.1,0.6
				C118.7,71.1,117.9,70.9,117.3,70.5z"/>
			<path class="st7" d="M129,64.2c0.1-0.1,0.3-0.1,0.4-0.1c0.2,0,0.4,0.1,0.6,0.2c0.2,0.1,0.3,0.3,0.3,0.5c0,0.1,0,0.2-0.1,0.3
				l-3.8,8c-0.2,0.3-0.4,0.5-0.7,0.5c-0.2,0-0.4-0.1-0.6-0.2s-0.2-0.3-0.2-0.5c0-0.1,0-0.2,0.1-0.3l0.9-2l-2.6-5.4
				c0-0.1-0.1-0.2-0.1-0.3c0-0.2,0.1-0.4,0.3-0.5c0.2-0.1,0.4-0.2,0.6-0.2s0.3,0,0.4,0.1s0.2,0.2,0.3,0.4l2,4.3l1.9-4.3
				C128.8,64.4,128.9,64.3,129,64.2z"/>
			<path class="st7" d="M137.1,64.7c0.4,0.5,0.6,1.2,0.6,2.1v3.4c0,0.3-0.1,0.5-0.2,0.6c-0.2,0.1-0.4,0.2-0.6,0.2
				c-0.3,0-0.5-0.1-0.6-0.2c-0.2-0.1-0.2-0.4-0.2-0.6v-3.3c0-0.5-0.1-0.9-0.3-1.2c-0.2-0.2-0.5-0.4-0.9-0.4c-0.5,0-0.9,0.2-1.2,0.5
				s-0.5,0.7-0.5,1.3v3.1c0,0.3-0.1,0.5-0.2,0.6c-0.2,0.1-0.4,0.2-0.6,0.2c-0.3,0-0.5-0.1-0.6-0.2c-0.2-0.1-0.2-0.4-0.2-0.6v-5.4
				c0-0.2,0.1-0.4,0.2-0.6c0.2-0.1,0.4-0.2,0.6-0.2c0.2,0,0.4,0.1,0.6,0.2c0.2,0.1,0.2,0.3,0.2,0.6v0.4c0.2-0.4,0.5-0.7,0.9-0.9
				c0.4-0.2,0.8-0.3,1.3-0.3C136.1,64,136.7,64.3,137.1,64.7z"/>
			<path class="st7" d="M145.8,61.3c0.2,0.1,0.3,0.3,0.3,0.6v8.4c0,0.3-0.1,0.5-0.2,0.6c-0.2,0.1-0.4,0.2-0.6,0.2
				c-0.3,0-0.5-0.1-0.6-0.2c-0.2-0.1-0.2-0.3-0.2-0.6V70c-0.2,0.4-0.5,0.7-0.9,0.9c-0.4,0.2-0.8,0.3-1.3,0.3c-0.6,0-1.1-0.1-1.6-0.4
				s-0.8-0.7-1.1-1.3c-0.3-0.5-0.4-1.2-0.4-1.9c0-0.7,0.1-1.3,0.4-1.9c0.3-0.5,0.6-0.9,1.1-1.2c0.5-0.3,1-0.4,1.6-0.4
				c0.5,0,0.9,0.1,1.3,0.3c0.4,0.2,0.7,0.5,0.9,0.9V62c0-0.2,0.1-0.4,0.2-0.6c0.2-0.1,0.4-0.2,0.6-0.2
				C145.4,61.1,145.7,61.2,145.8,61.3z M143.9,69.2c0.3-0.4,0.5-0.9,0.5-1.6s-0.2-1.3-0.5-1.6c-0.3-0.4-0.7-0.6-1.3-0.6
				s-1,0.2-1.3,0.6s-0.5,0.9-0.5,1.6s0.2,1.3,0.5,1.6c0.3,0.4,0.7,0.6,1.3,0.6C143.2,69.8,143.6,69.6,143.9,69.2z"/>
			<path class="st7" d="M154.2,62.9c-0.2,0.2-0.3,0.6-0.3,1v0.3h1.2c0.5,0,0.8,0.2,0.8,0.7c0,0.4-0.3,0.7-0.8,0.7h-1.2v4.8
				c0,0.3-0.1,0.5-0.2,0.6c-0.2,0.1-0.4,0.2-0.6,0.2c-0.3,0-0.5-0.1-0.6-0.2c-0.2-0.1-0.3-0.3-0.3-0.6v-4.8h-0.7
				c-0.5,0-0.8-0.2-0.8-0.7c0-0.4,0.3-0.7,0.8-0.7h0.7v-0.1c0-0.9,0.2-1.6,0.7-2.1s1.1-0.8,1.9-0.8h0.4c0.4,0,0.6,0,0.8,0.1
				s0.2,0.3,0.2,0.5c0,0.4-0.2,0.6-0.7,0.7h-0.4C154.7,62.5,154.4,62.6,154.2,62.9z"/>
			<path class="st7" d="M157.9,70.7c-0.5-0.3-0.9-0.7-1.2-1.2s-0.4-1.2-0.4-1.9c0-0.7,0.1-1.3,0.4-1.9c0.3-0.5,0.7-0.9,1.2-1.2
				c0.5-0.3,1.1-0.4,1.8-0.4s1.3,0.1,1.8,0.4s0.9,0.7,1.2,1.2s0.4,1.2,0.4,1.9c0,0.7-0.1,1.3-0.4,1.9c-0.3,0.5-0.7,1-1.2,1.2
				c-0.5,0.3-1.1,0.4-1.8,0.4S158.4,71,157.9,70.7z M161,69.2c0.3-0.4,0.4-0.9,0.4-1.6s-0.1-1.3-0.4-1.6c-0.3-0.4-0.7-0.6-1.3-0.6
				s-1,0.2-1.3,0.6s-0.5,0.9-0.5,1.6s0.1,1.3,0.4,1.6c0.3,0.4,0.7,0.6,1.3,0.6C160.3,69.8,160.7,69.6,161,69.2z"/>
			<path class="st7" d="M169,64.2c0.1,0.1,0.2,0.3,0.2,0.5c0,0.3-0.1,0.4-0.2,0.6c-0.1,0.1-0.3,0.2-0.7,0.2h-0.4
				c-0.5,0.1-1,0.2-1.2,0.6c-0.3,0.3-0.4,0.7-0.4,1.2v2.9c0,0.3-0.1,0.5-0.3,0.6s-0.4,0.2-0.6,0.2c-0.3,0-0.5-0.1-0.6-0.2
				c-0.2-0.1-0.2-0.4-0.2-0.6v-5.4c0-0.3,0.1-0.5,0.2-0.6c0.2-0.1,0.4-0.2,0.6-0.2c0.2,0,0.4,0.1,0.6,0.2c0.1,0.1,0.2,0.3,0.2,0.6
				v0.6c0.2-0.4,0.4-0.7,0.8-0.9c0.3-0.2,0.7-0.3,1.2-0.4h0.2C168.7,64,168.9,64.1,169,64.2z"/>
			<path class="st7" d="M174.1,70.8c-0.2-0.1-0.2-0.4-0.2-0.6V62c0-0.3,0.1-0.5,0.2-0.6c0.2-0.1,0.4-0.2,0.6-0.2h5
				c0.3,0,0.5,0.1,0.6,0.2c0.1,0.1,0.2,0.3,0.2,0.5s-0.1,0.4-0.2,0.5c-0.1,0.1-0.4,0.2-0.6,0.2h-4.1v2.7h3.9c0.3,0,0.5,0.1,0.6,0.2
				s0.2,0.3,0.2,0.5s-0.1,0.4-0.2,0.5c-0.1,0.1-0.4,0.2-0.6,0.2h-3.9v2.9h4.1c0.3,0,0.5,0.1,0.6,0.2s0.2,0.3,0.2,0.5
				s-0.1,0.4-0.2,0.5c-0.1,0.1-0.4,0.2-0.6,0.2h-5C174.5,71,174.3,71,174.1,70.8z"/>
			<path class="st7" d="M191.8,64.7c0.4,0.4,0.6,1.2,0.6,2.1v3.4c0,0.3-0.1,0.5-0.2,0.6c-0.2,0.1-0.4,0.2-0.6,0.2
				c-0.3,0-0.5-0.1-0.6-0.2c-0.2-0.1-0.2-0.4-0.2-0.6v-3.4c0-0.5-0.1-0.9-0.3-1.1s-0.5-0.3-0.8-0.3c-0.5,0-0.8,0.2-1.1,0.5
				s-0.4,0.7-0.4,1.3v3.1c0,0.3-0.1,0.5-0.2,0.6c-0.2,0.1-0.4,0.2-0.6,0.2c-0.3,0-0.5-0.1-0.6-0.2c-0.2-0.1-0.3-0.4-0.3-0.6v-3.4
				c0-0.5-0.1-0.9-0.3-1.1s-0.5-0.3-0.8-0.3c-0.5,0-0.8,0.2-1.1,0.5s-0.4,0.7-0.4,1.3v3.1c0,0.3-0.1,0.5-0.3,0.6s-0.4,0.2-0.6,0.2
				s-0.5-0.1-0.6-0.2c-0.2-0.1-0.2-0.4-0.2-0.6V65c0-0.3,0.1-0.5,0.3-0.6s0.4-0.2,0.6-0.2c0.2,0,0.4,0.1,0.6,0.2
				c0.2,0.1,0.2,0.3,0.2,0.6v0.3c0.2-0.4,0.5-0.7,0.9-0.9c0.4-0.2,0.8-0.3,1.2-0.3c1,0,1.7,0.4,2.1,1.3c0.2-0.4,0.5-0.7,0.9-0.9
				c0.4-0.2,0.9-0.3,1.4-0.3C190.9,64,191.4,64.3,191.8,64.7z"/>
			<path class="st7" d="M204,64.7c0.4,0.4,0.6,1.2,0.6,2.1v3.4c0,0.3-0.1,0.5-0.2,0.6c-0.2,0.1-0.4,0.2-0.6,0.2
				c-0.3,0-0.5-0.1-0.6-0.2c-0.2-0.1-0.2-0.4-0.2-0.6v-3.4c0-0.5-0.1-0.9-0.3-1.1s-0.5-0.3-0.8-0.3c-0.5,0-0.8,0.2-1.1,0.5
				s-0.4,0.7-0.4,1.3v3.1c0,0.3-0.1,0.5-0.2,0.6c-0.2,0.1-0.4,0.2-0.6,0.2c-0.3,0-0.5-0.1-0.6-0.2c-0.2-0.1-0.3-0.4-0.3-0.6v-3.4
				c0-0.5-0.1-0.9-0.3-1.1s-0.5-0.3-0.8-0.3c-0.5,0-0.8,0.2-1.1,0.5s-0.4,0.7-0.4,1.3v3.1c0,0.3-0.1,0.5-0.3,0.6s-0.4,0.2-0.6,0.2
				c-0.3,0-0.5-0.1-0.6-0.2c-0.2-0.1-0.2-0.4-0.2-0.6V65c0-0.3,0.1-0.5,0.3-0.6s0.4-0.2,0.6-0.2c0.2,0,0.4,0.1,0.6,0.2
				c0.2,0.1,0.2,0.3,0.2,0.6v0.3c0.2-0.4,0.5-0.7,0.9-0.9c0.4-0.2,0.8-0.3,1.2-0.3c1,0,1.7,0.4,2.1,1.3c0.2-0.4,0.5-0.7,0.9-0.9
				c0.4-0.2,0.9-0.3,1.4-0.3C203,64,203.6,64.3,204,64.7z"/>
			<path class="st7" d="M211.5,64.7c0.5,0.5,0.7,1.2,0.7,2.1v3.4c0,0.3-0.1,0.4-0.2,0.6c-0.1,0.1-0.4,0.2-0.6,0.2
				c-0.2,0-0.4-0.1-0.6-0.2c-0.2-0.1-0.2-0.3-0.2-0.6V70c-0.2,0.4-0.4,0.6-0.7,0.9c-0.3,0.2-0.7,0.3-1.2,0.3s-0.9-0.1-1.2-0.3
				c-0.4-0.2-0.7-0.4-0.9-0.8c-0.2-0.3-0.3-0.7-0.3-1.1c0-0.5,0.1-0.9,0.4-1.2c0.3-0.3,0.7-0.5,1.3-0.6s1.4-0.2,2.4-0.2h0.3v-0.3
				c0-0.5-0.1-0.8-0.3-1s-0.5-0.3-0.9-0.3c-0.3,0-0.5,0-0.8,0.1s-0.6,0.2-1,0.3c-0.2,0.1-0.4,0.2-0.5,0.2c-0.2,0-0.3-0.1-0.4-0.2
				c-0.1-0.1-0.2-0.3-0.2-0.5s0-0.3,0.1-0.4s0.2-0.2,0.4-0.3c0.3-0.2,0.7-0.3,1.2-0.4s0.9-0.2,1.3-0.2C210.3,64,211,64.3,211.5,64.7
				z M210,69.4c0.3-0.3,0.4-0.7,0.4-1.2v-0.3h-0.3c-0.6,0-1.1,0-1.5,0.1c-0.3,0.1-0.6,0.2-0.7,0.3c-0.1,0.1-0.2,0.3-0.2,0.6
				c0,0.3,0.1,0.5,0.3,0.7s0.5,0.3,0.8,0.3C209.4,69.9,209.8,69.7,210,69.4z"/>
			<path class="st7" d="M218.1,70.9c-0.2-0.2-0.2-0.4-0.2-0.7V62c0-0.3,0.1-0.5,0.2-0.6c0.2-0.2,0.4-0.2,0.6-0.2
				c0.3,0,0.5,0.1,0.7,0.2c0.2,0.2,0.2,0.4,0.2,0.6v8.2c0,0.3-0.1,0.5-0.2,0.7c-0.2,0.2-0.4,0.3-0.7,0.3
				C218.5,71.1,218.3,71,218.1,70.9z"/>
			<path class="st7" d="M221.6,70.5c-0.3-0.2-0.4-0.4-0.4-0.8c0-0.2,0.1-0.3,0.2-0.5c0.1-0.1,0.2-0.2,0.4-0.2s0.4,0.1,0.7,0.2
				s0.6,0.2,0.8,0.3c0.2,0.1,0.6,0.1,0.9,0.1c0.4,0,0.7-0.1,0.9-0.2s0.3-0.3,0.3-0.5s0-0.3-0.1-0.4s-0.2-0.2-0.5-0.3
				c-0.2-0.1-0.6-0.2-1-0.3c-0.8-0.2-1.4-0.4-1.8-0.7c-0.4-0.3-0.5-0.7-0.5-1.3c0-0.4,0.1-0.8,0.4-1.1c0.2-0.3,0.6-0.6,1-0.8
				s0.9-0.3,1.4-0.3c0.4,0,0.8,0,1.1,0.1c0.4,0.1,0.7,0.2,1,0.4c0.3,0.2,0.4,0.4,0.4,0.7c0,0.2-0.1,0.3-0.2,0.5
				c-0.1,0.1-0.2,0.2-0.4,0.2c-0.1,0-0.2,0-0.3-0.1c-0.1,0-0.2-0.1-0.4-0.2c-0.3-0.1-0.5-0.2-0.7-0.3c-0.2-0.1-0.4-0.1-0.7-0.1
				s-0.6,0.1-0.8,0.2s-0.3,0.3-0.3,0.6c0,0.2,0.1,0.4,0.3,0.5s0.6,0.2,1.2,0.4c0.6,0.1,1.1,0.3,1.5,0.4c0.4,0.2,0.6,0.4,0.8,0.6
				c0.2,0.3,0.2,0.6,0.2,1c0,0.6-0.3,1.1-0.8,1.5s-1.2,0.6-2.1,0.6C223.1,71.1,222.3,70.9,221.6,70.5z"/>
			<path class="st7" d="M233.5,64.7c0.5,0.5,0.7,1.2,0.7,2.1v3.4c0,0.3-0.1,0.4-0.2,0.6c-0.1,0.1-0.4,0.2-0.6,0.2
				c-0.2,0-0.4-0.1-0.6-0.2c-0.2-0.1-0.2-0.3-0.2-0.6V70c-0.2,0.4-0.4,0.6-0.7,0.9c-0.3,0.2-0.7,0.3-1.2,0.3s-0.9-0.1-1.2-0.3
				c-0.4-0.2-0.7-0.4-0.9-0.8c-0.2-0.3-0.3-0.7-0.3-1.1c0-0.5,0.1-0.9,0.4-1.2c0.3-0.3,0.7-0.5,1.3-0.6s1.4-0.2,2.4-0.2h0.3v-0.3
				c0-0.5-0.1-0.8-0.3-1s-0.5-0.3-0.9-0.3c-0.3,0-0.5,0-0.8,0.1s-0.6,0.2-1,0.3c-0.2,0.1-0.4,0.2-0.5,0.2c-0.2,0-0.3-0.1-0.4-0.2
				c-0.1-0.1-0.2-0.3-0.2-0.5s0-0.3,0.1-0.4s0.2-0.2,0.4-0.3c0.3-0.2,0.7-0.3,1.2-0.4s0.9-0.2,1.3-0.2C232.3,64,233,64.3,233.5,64.7
				z M232.1,69.4c0.3-0.3,0.4-0.7,0.4-1.2v-0.3h-0.3c-0.6,0-1.1,0-1.5,0.1c-0.3,0.1-0.6,0.2-0.7,0.3c-0.1,0.1-0.2,0.3-0.2,0.6
				c0,0.3,0.1,0.5,0.3,0.7s0.5,0.3,0.8,0.3C231.4,69.9,231.8,69.7,232.1,69.4z"/>
			<path class="st7" d="M241.5,64.5c0.5,0.3,0.8,0.7,1.1,1.2s0.4,1.2,0.4,1.9c0,0.7-0.1,1.3-0.4,1.9c-0.3,0.5-0.6,1-1.1,1.3
				s-1,0.4-1.6,0.4c-0.5,0-0.9-0.1-1.3-0.3c-0.4-0.2-0.7-0.5-0.9-0.9v0.3c0,0.3-0.1,0.5-0.2,0.6c-0.2,0.1-0.4,0.2-0.6,0.2
				c-0.3,0-0.5-0.1-0.6-0.2c-0.2-0.1-0.2-0.3-0.2-0.6v-8.4c0-0.2,0.1-0.4,0.2-0.6c0.2-0.1,0.4-0.2,0.6-0.2c0.3,0,0.5,0.1,0.6,0.2
				c0.2,0.1,0.2,0.3,0.2,0.6v3.3c0.2-0.4,0.5-0.7,0.9-0.9c0.4-0.2,0.8-0.3,1.3-0.3C240.5,64,241,64.2,241.5,64.5z M240.7,69.2
				c0.3-0.4,0.5-0.9,0.5-1.6s-0.2-1.2-0.5-1.6s-0.7-0.6-1.3-0.6s-1,0.2-1.3,0.6s-0.5,0.9-0.5,1.6s0.2,1.3,0.5,1.6
				c0.3,0.4,0.7,0.6,1.3,0.6C240,69.8,240.4,69.6,240.7,69.2z"/>
			<path class="st7" d="M250.1,69.3c0.1,0.1,0.1,0.3,0.1,0.5c0,0.3-0.2,0.5-0.5,0.7s-0.7,0.3-1.1,0.4c-0.4,0.1-0.8,0.2-1.1,0.2
				c-1.1,0-2-0.3-2.6-0.9s-1-1.5-1-2.6c0-0.7,0.1-1.3,0.4-1.9c0.3-0.5,0.7-1,1.2-1.3s1.1-0.4,1.7-0.4c0.6,0,1.1,0.1,1.6,0.4
				s0.8,0.7,1.1,1.1c0.3,0.5,0.4,1.1,0.4,1.7c0,0.4-0.2,0.6-0.5,0.6h-4.1c0.1,0.6,0.2,1.1,0.5,1.4s0.8,0.5,1.3,0.5
				c0.3,0,0.6,0,0.8-0.1s0.5-0.2,0.8-0.3c0.3-0.1,0.5-0.2,0.6-0.2C249.9,69.2,250,69.2,250.1,69.3z M246.2,65.7
				c-0.3,0.3-0.5,0.7-0.5,1.3h3.2c0-0.6-0.2-1-0.4-1.3c-0.3-0.3-0.6-0.4-1.1-0.4C246.9,65.3,246.5,65.4,246.2,65.7z"/>
			<path class="st7" d="M252,70.9c-0.2-0.1-0.2-0.4-0.2-0.6V62c0-0.3,0.1-0.5,0.2-0.6c0.2-0.1,0.4-0.2,0.6-0.2s0.5,0.1,0.6,0.2
				c0.2,0.1,0.3,0.3,0.3,0.6v8.3c0,0.3-0.1,0.5-0.3,0.6s-0.4,0.2-0.6,0.2S252.2,71,252,70.9z"/>
			<path class="st7" d="M255.6,70.9c-0.2-0.1-0.2-0.4-0.2-0.6V62c0-0.3,0.1-0.5,0.2-0.6c0.2-0.1,0.4-0.2,0.6-0.2
				c0.3,0,0.5,0.1,0.6,0.2c0.2,0.1,0.3,0.3,0.3,0.6v8.3c0,0.3-0.1,0.5-0.3,0.6c-0.2,0.1-0.4,0.2-0.6,0.2
				C255.9,71.1,255.7,71,255.6,70.9z"/>
			<path class="st7" d="M263.9,64.7c0.5,0.5,0.7,1.2,0.7,2.1v3.4c0,0.3-0.1,0.4-0.2,0.6c-0.1,0.1-0.4,0.2-0.6,0.2s-0.4-0.1-0.6-0.2
				s-0.2-0.3-0.2-0.6V70c-0.2,0.4-0.4,0.6-0.7,0.9c-0.3,0.2-0.7,0.3-1.2,0.3s-0.9-0.1-1.2-0.3c-0.4-0.2-0.7-0.4-0.9-0.8
				c-0.2-0.3-0.3-0.7-0.3-1.1c0-0.5,0.1-0.9,0.4-1.2c0.3-0.3,0.7-0.5,1.3-0.6c0.6-0.1,1.4-0.2,2.4-0.2h0.3v-0.3c0-0.5-0.1-0.8-0.3-1
				c-0.2-0.2-0.5-0.3-0.9-0.3c-0.3,0-0.5,0-0.8,0.1s-0.6,0.2-1,0.3c-0.2,0.1-0.4,0.2-0.5,0.2c-0.2,0-0.3-0.1-0.4-0.2
				s-0.2-0.3-0.2-0.5s0-0.3,0.1-0.4s0.2-0.2,0.4-0.3c0.3-0.2,0.7-0.3,1.2-0.4s0.9-0.2,1.3-0.2C262.8,64,263.5,64.3,263.9,64.7z
				 M262.5,69.4c0.3-0.3,0.4-0.7,0.4-1.2v-0.3h-0.3c-0.6,0-1.1,0-1.5,0.1c-0.3,0.1-0.6,0.2-0.7,0.3c-0.1,0.1-0.2,0.3-0.2,0.6
				c0,0.3,0.1,0.5,0.3,0.7c0.2,0.2,0.5,0.3,0.8,0.3C261.9,69.9,262.2,69.7,262.5,69.4z"/>
			<path class="st7" d="M266.5,70.8c-0.2-0.2-0.3-0.4-0.3-0.7c0-0.3,0.1-0.5,0.3-0.7c0.2-0.2,0.4-0.3,0.7-0.3c0.3,0,0.5,0.1,0.7,0.3
				c0.2,0.2,0.3,0.4,0.3,0.7c0,0.3-0.1,0.5-0.3,0.7c-0.2,0.2-0.4,0.3-0.7,0.3C266.9,71.1,266.7,71,266.5,70.8z"/>
		</g>
	</g>
</g>
</svg>
